<svg xmlns="http://www.w3.org/2000/svg" width="920" height="200"><path d="M856 159.3a23.5 23.5 0 1 1 47 0 23.5 23.5 0 0 1-47 0" fill="#86bc24"/><path d="M107.2 97.2c0-15-2.9-26-8.6-33.1-5.8-7.2-14.5-10.8-26.2-10.8H59.9v91h9.6c13 0 22.5-4 28.6-11.7 6-7.7 9.1-19.5 9.1-35.4m44.5-1.6c0 27.1-7.3 48-21.9 62.6-14.6 14.7-35 22-61.4 22H17V18H72c25.4 0 45 6.6 58.9 20 13.8 13.3 20.8 32.5 20.8 57.7m142 84.6h40.8v-163h-40.8v163zm98.1-60.8c0 10.4 1.4 18.3 4.1 23.8 2.7 5.4 7.3 8.2 13.7 8.2 6.3 0 10.8-2.8 13.4-8.2 2.6-5.5 4-13.4 4-23.8a54 54 0 0 0-4-23.4c-2.7-5.3-7.2-8-13.6-8a14 14 0 0 0-13.5 8c-2.7 5.2-4 13-4 23.4m76.5 0c0 19.8-5.1 35.3-15.6 46.3-10.4 11.1-25 16.7-43.6 16.7-18 0-32.3-5.7-42.9-17-10.6-11.4-15.9-26.7-15.9-46 0-19.7 5.2-35 15.6-46 10.4-11 25-16.4 43.8-16.4 11.6 0 21.9 2.5 30.8 7.6 8.9 5 15.8 12.3 20.6 21.7a71.6 71.6 0 0 1 7.2 33.1m16.3 60.8h40.8v-121h-40.9v121zm0-135.7h40.8V17.2h-40.9v27.3zm123.5 104.8c5.5 0 12-1.4 19.7-4.1v30.4a79 79 0 0 1-33.2 6.8c-13.7 0-23.6-3.5-29.7-10.4-6-6.8-9-17.4-9-31.6v-50h-14.3V59.1H556V28.2l41.1-7.1v38h26v31.3h-26v47.2c0 7.8 3.7 11.7 11 11.7m94.5 0c5.5 0 12-1.4 19.7-4.1v30.4a78.8 78.8 0 0 1-33.1 6.8c-13.8 0-23.6-3.5-29.7-10.4-6-6.8-9-17.4-9-31.6v-50H636V59.1h14.3V27.7l41.2-6.6v38h26v31.3h-26v47.2c0 7.8 3.6 11.7 11 11.7m71.2-44.6c.6-6.7 2.5-11.5 5.7-14.6 3.3-3.1 7.3-4.7 12-4.7 5.3 0 9.5 1.8 12.6 5.3a21 21 0 0 1 4.8 14h-35zm57.6-33.4c-9.7-9.5-23.5-14.3-41.3-14.3-18.7 0-33 5.5-43.2 16.4-10 11-15.1 26.6-15.1 47 0 19.9 5.4 35.2 16.3 45.9 11 10.7 26.2 16 45.9 16 9.4 0 17.6-.6 24.4-1.9a70.7 70.7 0 0 0 19.7-6.9l-6.3-27.2c-4.6 1.8-9 3.3-13.1 4.3-6 1.4-12.6 2-19.8 2-7.9 0-14-1.9-18.6-5.7a21 21 0 0 1-7.3-16h73v-18.5c0-18-4.9-31.6-14.6-41.1m-625.6 33.4c.6-6.7 2.5-11.5 5.7-14.6 3.2-3.1 7.3-4.7 12-4.7 5.3 0 9.4 1.8 12.5 5.3a21 21 0 0 1 4.9 14h-35zm57.6-33.4C253.7 61.8 239.9 57 222 57c-18.7 0-33.1 5.5-43.2 16.4-10 11-15.1 26.6-15.1 47 0 19.9 5.4 35.2 16.3 45.9 10.9 10.7 26.2 16 45.9 16 9.4 0 17.6-.6 24.4-1.9a70.8 70.8 0 0 0 19.7-6.9l-6.3-27.2a87.6 87.6 0 0 1-33 6.4c-7.8 0-14-2-18.6-5.8a21 21 0 0 1-7.2-16h73v-18.5c0-18-5-31.6-14.6-41.1" fill="#0f0b0b"/></svg>