<svg xmlns="http://www.w3.org/2000/svg" viewBox="141.1 125 217.7 249.8"><path d="M157.3 338.8c0-2.7-1.8-3.8-2.8-4.3a4.4 4.4 0 0 0 2.2-3.8c0-3.2-2.2-5-5.9-5h-8.2v19.1h8.1c4.1.1 6.6-2.2 6.6-6zm-6.7 2.9h-4.5v-5.4h4.5c1.9 0 2.9.9 2.9 2.7 0 1.7-1 2.7-2.9 2.7zm0-8.6h-4.5V329h4.3c1.7 0 2.5.7 2.5 2.1 0 .9-.4 2-2.3 2zm14.4 12.1c1.4 0 2.5-.5 3.3-1.4v1.1h3.5v-14h-3.5v7.7c0 2.3-.9 3.4-2.6 3.4-1.8 0-2.6-1.1-2.6-3.4v-7.7h-3.5v7.9c.1 2.4.8 6.4 5.4 6.4zm47.4-8c0-2.2.9-3.4 2.7-3.4 1.7 0 2.5 1.1 2.5 3.4v7.7h3.5V337c0-4.2-1.8-6.4-5.1-6.4-1.4 0-2.7.5-3.5 1.5v-1.2H209v14h3.5v-7.7h-.1zm-37.5-6.3h3.5v14h-3.5zm6.6 14h3.4v-19.8l-3.4 1.7zm14.4-13a4 4 0 0 0-3.1-1.3c-3.4 0-5.5 2.7-5.5 7.1 0 4.7 2 7.4 5.4 7.4 1.2 0 2.2-.4 3.2-1.4v1.1h3.4V325l-3.4 1.7v5.2zm-2.4 10.1c-1.2 0-2.6-.8-2.6-4.3 0-3.2 1.4-3.9 2.6-3.9a3 3 0 0 1 2.5 1.4v5.5c-.6.6-1.3 1.3-2.5 1.3zm77.7-11.4c-1.1 0-2.2.5-3.1 1.3v-6.5l-3.5 1.7v17.7h3.5v-1c.9.9 1.9 1.3 3.2 1.3 3.4 0 5.4-2.7 5.4-7.4 0-4.3-2.1-7.1-5.5-7.1zm-.7 3.2c1.3 0 2.6 1 2.6 3.9s-.8 4.3-2.5 4.3c-1.3 0-2.2-.9-2.5-1.3v-5.5c.6-.9 1.4-1.4 2.4-1.4zm-38.6-1.9a4.4 4.4 0 0 0-3.1-1.3c-3.4 0-5.5 2.7-5.5 7.1 0 4.7 2 7.4 5.4 7.4 1.2 0 2.3-.5 3.2-1.4v.3c0 1.5 0 3.6-4.5 3.7h-.2l1.2 2.7h.1c4.6-.1 6.8-2.4 6.8-7v-12.7h-3.4v1.2zm0 3.2v5.5c-.5.7-1.2 1.4-2.4 1.4s-2.6-.8-2.6-4.3c0-3.2 1.4-3.9 2.6-3.9 1.3 0 2 .7 2.4 1.3zm14.2-.8a7 7 0 0 1 3.6-1c1.6 0 2.5.7 2.5 2v.9a7 7 0 0 0-3-.7c-2.6 0-5.6 1.2-5.6 4.6 0 3.6 2.8 4.9 5.2 4.9a5 5 0 0 0 3.4-1.4v1.1h3.4v-9.4c0-3-2.1-4.9-5.6-4.9-1.9 0-3.6.4-5.2 1.4l1.3 2.5zm1 6c0-1.2.9-2 2.4-2 1 0 1.9.2 2.7.7v1.9c-.4.7-1.4 1.5-2.7 1.5-1.5-.1-2.4-.9-2.4-2.1zm40.7.5c-.6.6-1.5 1.2-2.8 1.2-.7 0-2.9-.2-3.1-3h8.6v-1c0-4.4-2.3-7.3-5.9-7.3-3.6 0-6.3 3.1-6.3 7.3 0 4.4 2.6 7.3 6.6 7.3 1.8 0 3.6-.7 4.9-2.2l-2-2.3zm-5.9-4.4c.1-1.7 1.1-2.9 2.6-2.9 1.8 0 2.6 1.5 2.6 2.9h-5.2zm39.2 4.4c-.6.6-1.5 1.2-2.8 1.2-.7 0-2.9-.2-3.1-3h8.6v-1c0-4.4-2.3-7.3-5.9-7.3-3.6 0-6.3 3.1-6.3 7.3 0 4.4 2.6 7.3 6.6 7.3 1.8 0 3.6-.7 4.9-2.2l-2-2.3zm-5.8-4.4c.1-1.7 1.1-2.9 2.6-2.9 1.8 0 2.6 1.5 2.6 2.9h-5.2zm-8.4-2.2h3.1V331h-3.1v-5.3l-3.5 1.7v3.6h-2.1v3.2h2.1v6.8c0 2 1 4.3 3.7 4.3 1.1 0 2.1-.2 2.9-.6l.4-3.3c-.6.3-1.4.6-2.1.6-1 0-1.5-.6-1.5-1.9v-5.9h.1zm-6.3 7.1a5 5 0 0 1-2.1.6c-1 0-1.5-.6-1.5-1.9v-5.9h2.9v-3.2H297v-5.3l-3.5 1.7v3.6h-2.2v3.2h2.2v6.8c0 2 1 4.3 3.7 4.3 1.1 0 2.1-.2 2.9-.6l.5-3.3zm34.6-9.8c-.7-.5-1.7-.8-2.6-.8-1.2 0-2.3.5-3.1 1.5V331H326v14h3.5v-7.6c0-2.2.8-3.3 2.5-3.3a4 4 0 0 1 2.3.8l.9-3.4zm-160.3-6h3.4v3.4h-3.4zm27.5 5.4h3.5v14h-3.5zm0-5.4h3.4v3.4h-3.4zm98.3 30.8a4 4 0 0 0-3.1-1.3c-3.4 0-5.5 2.7-5.5 7.1 0 4.7 2 7.4 5.4 7.4 1.2 0 2.2-.4 3.2-1.4v1.1h3.4v-19.8l-3.4 1.7v5.2zm-2.4 10.1c-1.2 0-2.6-.8-2.6-4.3 0-3.2 1.4-3.9 2.6-3.9a3 3 0 0 1 2.5 1.4v5.5c-.6.6-1.3 1.3-2.5 1.3zm-114-10.5c-.7-.5-1.7-.8-2.6-.8-1.2 0-2.3.5-3.1 1.5v-1.2h-3.5v14h3.5v-7.6c0-2.2.8-3.3 2.5-3.3a4 4 0 0 1 2.3.8l.9-3.4zm-29.3 4.6l-.7 3.5-.8-3.5-1.5-5.1h-3l-1.5 5.1-.8 3.5-.7-3.4-1.3-5.2h-3.6l3.9 13.9v.1h3l1.5-5.7.8-3.2.8 3 1.6 5.8h3l3.9-14h-3.4l-1.2 5.2zm11.7-5.5c-3.7 0-6.4 3.1-6.4 7.3s2.7 7.3 6.4 7.3 6.4-3.1 6.4-7.3-2.7-7.3-6.4-7.3zm0 11.4c-1.7 0-2.8-1.6-2.8-4 0-2.5 1.1-4 2.8-4 1.7 0 2.8 1.6 2.8 4s-1.1 4-2.8 4zm117.9-10.5c-.7-.5-1.7-.8-2.6-.8-1.2 0-2.3.5-3.1 1.5v-1.2h-3.5v14h3.5v-7.6c0-2.2.8-3.3 2.5-3.3a4 4 0 0 1 2.3.8l.9-3.4zm-29.3 4.6l-.7 3.5-.8-3.5-1.5-5.1h-2.9l-1.5 5.1-.8 3.5-.7-3.4-1.3-5.2h-3.6l3.9 13.9v.1h3l1.5-5.7.8-3.2.8 3 1.6 5.8h3l3.9-14h-3.4l-1.3 5.2zM267 355c-3.7 0-6.4 3.1-6.4 7.3s2.7 7.3 6.4 7.3 6.4-3.1 6.4-7.3c-.1-4.2-2.8-7.3-6.4-7.3zm0 11.4c-1.7 0-2.8-1.6-2.8-4 0-2.5 1.1-4 2.8-4s2.8 1.6 2.8 4-1.1 4-2.8 4zm-69.6-11.1h-4l-2.8 3.6-1.3 1.8v-11.1l-3.4 1.7v18h3.4v-4.2l1.8-2.3 2.9 6.5h3.8l-4.3-9.4 3.9-4.6zm12.7 6.3c0-2.2.9-3.4 2.7-3.4 1.7 0 2.5 1.1 2.5 3.4v7.7h3.5v-7.9c0-4.2-1.8-6.4-5.1-6.4-1.4 0-2.7.5-3.5 1.5v-1.2h-3.5v14h3.5v-7.7h-.1zm19.5-5.3a4.4 4.4 0 0 0-3.1-1.3c-3.4 0-5.5 2.7-5.5 7.1 0 4.7 2 7.4 5.4 7.4 1.2 0 2.3-.5 3.2-1.4v.3c0 1.5 0 3.6-4.5 3.7h-.2l1.2 2.7h.1c4.6-.1 6.8-2.4 6.8-7v-12.7h-3.4v1.2zm0 3.3v5.5c-.6.7-1.2 1.4-2.4 1.4s-2.6-.8-2.6-4.3c0-3.2 1.4-3.9 2.6-3.9 1.2-.1 2 .7 2.4 1.3zm-29.5-4.3h3.5v14h-3.5zm0-5.4h3.4v3.4h-3.4zm86.1 19.4h3.5v-19.8l-3.5 1.8z" fill="#575756"/><path fill="#ffe400" d="M141.2 204.4L358.8 125v41z"/><path d="M166.1 275.6h28.5v-16.5h-28.5v-13h31.5L187.2 228h-44.6v78.6h62.8v-18.1h-39.3zm81.2-47.6L234 253.7 220.6 228h-26l27.4 47.6v31h23.5v-31L273 228z" fill="#575756"/></svg>