<?xml version="1.0" encoding="utf-8"?>
<!-- Generator: Adobe Illustrator 22.0.1, SVG Export Plug-In . SVG Version: 6.00 Build 0)  -->
<svg version="1.1" id="Layer_1" xmlns="http://www.w3.org/2000/svg" xmlns:xlink="http://www.w3.org/1999/xlink" x="0px" y="0px"
	 viewBox="0 0 116.9 30.3" style="enable-background:new 0 0 116.9 30.3;" xml:space="preserve">
<style type="text/css">
	.st0{fill:#EA2D8C;}
</style>
<path d="M116.6,17.9c-0.9-2.9-3.4-4.5-6-3.7c-0.4,0.1-1.1,0.4-1.2,0.7c-0.3,1-1.1,1.4-1.5,2.3c-0.6,1.2-1.2,2.4-1.8,3.6
	c-0.5,1-1.1,2-1.7,2.9c-0.2,0.3-0.6,0.5-0.9,0.4c-0.2-0.1-0.5-0.6-0.5-0.9c-0.1-0.9,0-1.8,0.1-2.7c0-1.1,0.1-2.3,0.1-3.4
	c0-0.7-0.4-1.4-1.2-1.6c-0.8-0.2-1.6,0.1-2.1,0.9c-0.6,1.1-1.2,2.2-1.8,3.3c-0.4,0.7-0.8,1.5-1.3,2.2c-0.3,0.5-0.7,1.1-1.3,0.7
	c-0.2-0.2-0.2-1-0.1-1.6c0.2-1.1,0.6-2.2,0.7-3.3c0.3-1.7-0.6-3-2.2-3.3c-0.4-0.1-0.9-0.1-1.3-0.2c-0.7,0-1-0.3-0.8-1.1
	c0.4-1.5-0.7-2.5-2.1-2.1c-1.2,0.4-2.2,1.8-1.9,3.2c0.2,1.1,0,2-0.4,3c-0.3,0.8-0.6,1.6-0.7,2.4c-0.2,1,0.2,1.7,1,2
	c0.7,0.3,1.5-0.1,2-0.9c0.3-0.6,0.6-1.2,0.9-1.9c0.2-0.4,0.3-1.1,1-0.9c0.6,0.3,0.4,0.9,0.4,1.4c0,0.2-0.1,0.5-0.2,0.7
	c-0.2,1-0.5,2.1-0.7,3.1c-0.4,2.3,0.5,4.1,2.2,4.6c1.6,0.5,3-0.1,4.2-1.1c0.6-0.5,1.2-1,1.8-1.6c-0.1,0.3,0,0.8,0.1,1.2
	c0.3,2.1,1.2,3.3,2.7,3.6c1.5,0.2,2.6-0.5,3.5-1.6c0.7-0.9,1.3-1.8,1.9-2.7c0,0.1,0.1,0.1,0.1,0.2c1.3,3.5,5.3,3.7,7.4,0.7
	C116.9,23.9,117.5,21,116.6,17.9z M112.9,23.1c-0.3,0.6-0.8,1-1.5,0.9c-0.7-0.1-1-0.6-1-1.3c0-0.9,0-1.9,0.3-2.8
	c0.2-0.9,1-1.3,1.7-1.1c0.7,0.1,1.1,0.8,1.1,1.7c0,0.1,0,0.2,0,0.3c0,0,0.1,0,0.1,0C113.3,21.6,113.2,22.4,112.9,23.1z M68.4,17.5
	c-0.7-0.3-1.6,0-2.1,1c-0.6,1-1.1,2.1-1.7,3.1c-0.6,1-1.3,1.9-2.1,2.7c-0.7,0.7-1.7,1-2.7,0.4c-0.9-0.6-1-1.6-1.1-2.6
	c0.5-0.1,0.9-0.2,1.3-0.3c3.1-0.9,5.6-4.5,5.1-8.8c-0.2-1.3-0.9-2.3-2.1-2.8c-1.9-0.9-4.1-0.3-5.7,1.6c-1.9,2.4-2.8,5.3-2.8,8.4
	c0,1.6-1,2.3-1.9,3.2c-0.1,0.1-0.4,0-0.7,0.1c0.1-0.8,0.1-1.6,0.1-2.3c0.1-1.6,0.3-3.2,0.4-4.8c0.1-0.9-0.3-1.6-1.1-2
	c-0.8-0.4-1.7-0.3-2.4,0.3c-0.5,0.5-0.9,1-1.2,1.6c-0.6,1-1,2-1.6,3c-0.2,0.3-0.5,0.6-0.7,0.9c-0.1-0.1-0.2-0.1-0.3-0.1
	c0-0.5,0-1.1,0-1.6c0-1.3,0.1-2.6-0.1-3.8c-0.1-1.4-1.2-1.9-2.4-1.2c-0.4,0.3-0.9,0.7-1.1,1.1c-0.8,1.5-1.5,3-2.3,4.5
	c-0.1,0.3-0.3,0.5-0.5,0.8c-0.1,0-0.1-0.1-0.2-0.1c0-0.8,0.1-1.6,0-2.4c-0.2-2.7-1.5-5.3-5.3-4.6c-2.1,0.4-4.3,0.7-6.5,1.2
	c-0.8,0.2-2,0.2-1.9,1.6c0,0.1-0.1,0.1-0.2,0.2c-0.8,1.1-1.7,2.2-2.3,3.4c-0.6,1.3-1.2,3.2-1.8,4c0,0-0.1,0.1-0.1,0.1
	c-0.2,0.1-0.4,0.1-0.7,0c0.1-0.5,0.2-1,0.4-1.5c0.7-2.8,0.3-4.2-1.9-5.7c0.1-0.1,0.2-0.2,0.3-0.2c2.9-1.8,4.4-5,3.7-8.3
	c-0.6-2.9-2.3-4.8-4.8-6C13.3-0.5,8.8-0.5,4.4,1.4C1.3,2.7-0.1,5,0,8.2c0.1,2.4,2,4.3,4.4,4.3c0.9,0,1.7-0.7,1.9-1.4
	C6.4,10.1,6,9.5,5,9.1C4.8,9,4.6,9,4.5,8.9C3.3,8.3,3,7,3.9,6c0.5-0.6,1.2-1,1.9-1.3c1.8-0.8,3.7-1,5.7-0.9c1.8,0.1,3.6,0.5,5.1,1.6
	c2,1.5,2.6,4.1,1.4,6.5c-1.1,2.1-3.3,3-5.6,2.2c0-0.4,0-0.5,0-0.7c0-1-0.5-1.8-1.3-2c-1-0.3-2.1,0-2.4,1c-0.2,0.5-0.1,0.6-0.2,1.2
	c0,0.5-0.1,0.7-0.6,0.9c-0.9,0.2-1.4,1-1.5,2c-0.1,1.1,0.3,1.6,1.8,2.1C8,20,7.9,21.6,7.7,23.2c-0.1,1.1-0.3,2.2-0.3,3.4
	c0,1.6,0.9,2.6,2.2,2.4c1-0.1,1.7-0.9,1.9-1.9c0.1-0.8,0.1-1.7,0.1-2.5c0.1-2.1,0.1-4.1,0.2-6.2c0.6-0.1,1.1-0.1,1.7-0.2
	c1.6-0.3,3,0.8,3,2.4c0,0.6-0.1,1.1-0.2,1.7c-0.2,1.2-0.4,2.4-0.5,3.7c-0.1,1.5,0.7,2.4,2.2,2.6c1.5,0.2,2.8-0.5,3.7-1.6
	c0.5-0.6,0.9-1.2,1.4-1.8c0.1,0.2,0.3,0.6,0.4,0.9c0.9,1.9,2.4,2.7,4.4,2.4c1.6-0.3,2.7-1.3,3.4-2.7c1.4-2.6,1.8-5.4,0.8-8.4
	c1.6-0.9,2.7-0.3,2.7,1.6c0,1.2-0.1,2.5-0.2,3.7c-0.1,1.6-0.2,3.2-0.2,4.9c0,0.8,0.3,1.4,1,1.8c0.7,0.3,1.4,0.2,2-0.3
	c0.4-0.4,0.7-0.9,1-1.4c0.9-1.8,1.7-3.7,2.5-5.5c0.1-0.3,0.4-0.6,0.6-0.9c0.1,0,0.2,0.1,0.2,0.1c0,0.6,0,1.1,0,1.7
	c0,1.1,0,2.2,0.1,3.2c0.1,0.9,0.5,1.6,1.4,1.8c0.9,0.2,1.6-0.2,2.1-1.2c0.7-1.3,1.3-2.7,1.9-4.1c0.2-0.4,0.4-0.7,0.7-1
	c0.1,0,0.2,0.1,0.3,0.1c0,0.4,0.1,0.7,0.1,1.1c0.1,1.1,0.1,2.2,0.2,3.3c0.2,1.6,1.2,2.5,2.7,2.2c0.9-0.2,1.7-0.7,2.6-1.2
	c0.6-0.3,1-0.9,1.5-1.4c1.7,3,4.4,4.1,7.2,2.7c3.4-1.8,5.4-5,6.6-8.7C69.6,18.7,69.1,17.8,68.4,17.5z M60.4,13.9
	c0.2-0.2,0.6-0.3,0.8-0.2c0.2,0.1,0.4,0.5,0.4,0.8c0,1.4-0.6,2.6-1.7,3.5c-0.2,0.2-0.6,0.2-1,0.4C58.8,16.6,59.3,15.1,60.4,13.9z
	 M29.1,20.9c0,0.1-0.2,1.5-0.5,2.2c-0.2,0.4-0.7,0.7-1.1,0.7c-0.3,0-0.8-0.5-0.8-0.9c-0.1-1-0.1-2,0-3c0.1-0.9,0.8-1.4,1.4-1.2
	c0.8,0.1,0.9,0.9,1,1.5C29.1,20.3,29.1,20.6,29.1,20.9z M88.3,25.5c-0.8,0.1-1.7,0.1-2.4-0.2c-1.2-0.5-2.4-1.3-3.6-2.1
	c0.7-1,1.3-1.8,1.9-2.6c2.3-3.6,3.7-7.5,3.6-11.9c-0.2-4.3-3.2-7.3-7.1-7.3c0,0-3.1,0.1-5.6,1.5c-2.8,1.9-4.1,5.3-3.2,8
	c0.5,1.2,2.5,0.7,2.9,0.5c0.1-2,0.3-2.8,0.3-2.8c1-4.2,5.4-3.6,5.4-3.6c1.9,0.5,2.9,1.9,3,4.3c0.2,4.6-1.8,8.2-4.3,11.5
	c-1.2-0.5-2.2-1.1-3.3-1.5c-2.8-0.9-5.3,0-6.7,2.4c-1.7,3-0.2,6.7,3,7.2c1.1,0.2,2.3,0.1,3.3-0.2c1.5-0.5,2.9-1.4,4.4-2.2
	c1.1,0.7,2.5,1.6,3.8,2.4c0.7,0.4,1.6,0.8,2.4,0.9c1.5,0.3,3,0.1,4.1-1.3c0.6-0.7,0.6-1.7,0.1-2.4C89.7,25.3,89,25.5,88.3,25.5z
	 M72.2,25.4c-0.4,0.1-1.1-0.1-1.5-0.4c-0.2-0.2-0.3-1-0.1-1.2c0.3-0.4,0.9-0.8,1.3-0.7c0.8,0.1,1.6,0.5,2.4,0.8c0,0.1,0,0.3,0,0.4
	C73.7,24.7,73,25.2,72.2,25.4z"/>
<path class="st0" d="M101.7,13.1c-1.3,0-2.1-0.9-2.1-2.3c0-1.4,1-2.4,2.3-2.4c1.1,0,2.1,1.1,2.1,2.4
	C103.8,12.1,102.9,13.1,101.7,13.1z"/>
</svg>
