<svg version="1" xmlns="http://www.w3.org/2000/svg" width="346.667" height="346.667" viewBox="0 0 260.000000 260.000000"><path d="M115.9.4c-.2.2-2.6.7-5.4 1-15 2-35.6 9.5-47.9 17.4C29.4 40.3 9.5 70 2.5 108.7c-1.4 7.8-1.5 34.4-.1 40.8.4 1.6 1.1 5.5 1.7 8.5 7.1 35.5 35 70.6 69.4 87.1 12.8 6.1 23.2 9.5 35.5 11.5 1.4.2 4.1.7 6 1 4.3.7 24.2.7 29.3-.1 10.7-1.5 10.9-1.6 17.2-3 9-2.1 26.7-9.3 34-13.8 7-4.3 18.9-13.4 24-18.4 6.7-6.5 12.5-13.1 12.5-14.1-.1-.6-5.6-5-14-11-1.5-1.1-2.1-.9-4.1 1.3-4.8 5.2-16.4 16.5-17 16.5-.3 0-1.7.9-3 2.1-2.9 2.5-11.6 7.7-18.4 10.8-5.6 2.7-18.5 7.2-18.5 6.6 0-.3-1.2 0-2.7.6-5.9 2.3-29.1 3.2-40.8 1.7-23-3.1-49.5-17.8-65.1-36.2-2.7-3.2-5.4-6.3-6-7-2.2-2.3-10.1-16.3-12.7-22.4-2.5-5.8-5.6-16.2-6.2-20.7-.2-1.1-.6-3.4-1-5-1.3-5.6-1.2-24 .1-32 1.8-11.2 2.1-12.6 5-20.7 7.3-20.4 20.6-38.2 37.8-51.1C72 36.8 79.8 32 82 31.5c.3-.1 2.6-1.1 5.2-2.3 13.4-6 26.4-8.6 43.3-8.5 7.2 0 14.4.3 16 .7 1.7.3 5 1 7.5 1.5s6.6 1.7 9 2.6c2.5.9 5 1.7 5.5 1.9 4.1 1.2 11.9 5.2 12.2 6.3.2.5-.6 2-1.8 3.4-1.1 1.3-3.5 4.3-5.2 6.6-2 2.8-3.4 4-4.1 3.4-.6-.5-1.4-1-1.9-1-.4 0-2.2-.7-4-1.4-2.7-1.2-4.4-1.7-9.9-3.2-.5-.2-.9-.3-1-.5-.3-.2-2.2-.5-10.8-1.8-6.5-1-21.3-.9-26 .2-1.4.4-4 .8-5.8 1.1-1.8.2-3.7.7-4.2 1-.6.4-2.1.8-3.5 1.1-1.4.2-5.8 2-9.9 3.8-16.3 7.5-30.6 20-39.8 35.1-3.3 5.3-8.8 16.7-8.8 18 0 .3-.7 3-1.6 6-2.3 8-2.7 11.8-2.7 23 0 10.6.8 18.1 2.3 22.1.5 1.3.8 2.4.5 2.4-.9 0 3.8 11.9 7.5 18.7 11.5 21.4 30.4 37 53.5 44.3 8.7 2.7 14.4 3.4 26.5 3.4 12.1.1 17.9-.8 28.2-4 7.4-2.4 10.1-3.6 18.9-8.5 5.2-3 13.7-9.9 19.2-15.8l5.8-6.1-2.8-2.3c-1.5-1.3-8.9-7-16.3-12.8-7.4-5.7-14.1-10.9-14.8-11.6-.7-.7-1.6-1.3-2-1.3-.4 0-2.1-1.3-3.8-2.9-4.2-3.9-6.9-4.7-8.6-2.3-.7 1.1-3.3 3.3-5.8 4.9-16.7 11-38.7 4.7-47.8-13.6-2.3-4.7-2.7-6.9-2.7-13.6 0-9.2 1.8-14.4 7.3-21.3 3.2-4 10-9.2 12.6-9.6.6-.1 1.8-.6 2.6-1.1 2.2-1.3 17.2-1.4 18.9-.1.8.6 1.5.9 1.5.7.2-.7 9.4 3.8 10.1 4.9.3.6 3.4-2.6 6.7-7 7-9.3 7.2-8.6-4-14.1-30.9-15.1-68.2 3.3-74.6 36.8-4.9 25.9 9.2 51.1 33.4 59.8 6.4 2.3 7.6 2.5 16.5 3 8.4.3 17.9-1.5 24.2-4.8 4.1-2.2 4.2-2.2 7.8.8 4.3 3.6 4.7 3.8 8.4 6.4 3.2 2.3 3.3 2.5 1.5 3.8-3.3 2.5-13.5 7.4-19.8 9.5-8.9 3-28.5 3.4-37.9.8-14.5-4.1-26-11.1-35.6-21.7-15.6-17.3-21.5-41.8-15.7-65.8 1.8-7.5 8.1-19.5 14.1-26.8 19.4-23.5 51.6-31.8 80.4-20.7 4.2 1.7 9.9 4.5 12.8 6.5 2.9 1.9 5.4 3.5 5.7 3.5.5 0 28.8-36.2 33.4-42.7l2.2-3.2-8.3-5.5C189.1 13.2 172.4 6 159 3.1c-2.5-.5-5.8-1.3-7.5-1.6-3.2-.7-35-1.7-35.6-1.1z"/><path d="M217.2 46.6c-6.4 8.2-7 9.7-4.9 11.9 2.1 2.2 4.7 5.5 4.7 6 0 .2 1.1 1.6 2.5 3.1 1.3 1.4 2.2 3 1.9 3.5-.3.5 0 .9.6.9s.9.4.6.9c-.3.5.1 1.2 1 1.5.8.3 1.2 1 .9 1.6-.3.5-.2 1 .3 1 .8 0 2.2 3.2 2.1 4.8 0 .1.7 1 1.6 1.8.8.9 1.3 2 1 2.5-.4.5-.1.9.6.9s.9.3.6.7c-.4.3 0 1.7.8 3 .9 1.3 1.3 2.3 1 2.3-.3 0 .1 1.6.9 3.5s1.2 3.5.8 3.5c-.3 0-.1.5.5 1.1.6.6.9 1.7.7 2.4-.3.7-.1 1.6.4 1.9.6.3.8 1.5.5 2.6-.3 1.1-.1 2 .4 2s.9 1.5.8 3.2c-.1 1.8 0 3.7.3 4.2.8 1.4.8 24.6 0 24.6-.4 0-.8 1-.7 2.2 0 1.3-.3 3.6-.6 5.3-.4 1.6-.7 3.7-.9 4.5-.1.9-.6 2.1-1 2.8-.4.7-.5 1.6-.2 1.9.3.3.1 1.1-.4 1.8-.5.6-1.1 2.1-1.3 3.2-.2 1.2-.9 2.8-1.5 3.6-.7.8-1.2 1.9-1.1 2.3.3 1.4-2.2 7.4-3.1 7.4-.5 0-.7.7-.6 1.5.2 1.4 15 13.5 16.5 13.5 1.2 0 6.8-11.9 10.1-21.5 10.4-30.1 8.5-66.2-5.1-95.3-1.6-3.4-2.9-6.4-2.9-6.7 0-.2-1.3-2.4-3-4.8-1.6-2.5-3-4.9-3-5.5 0-.6-.4-1.2-.8-1.4-.5-.2-2.2-2.3-3.9-4.8-1.8-2.5-4.9-6.5-7.1-8.9l-3.8-4.4-6.2 7.9z"/><path d="M193.1 77.7c-6.4 8.2-6.9 9.4-4.8 11.5.7.7 3.2 5.1 5.4 9.8 7.7 15.8 9.1 32.8 4.3 49.9-1.2 4.1-1.7 7.7-1.3 8 3.8 2.6 13.1 9.8 14.3 10.9 1.3 1.3 1.6 1.1 2.8-1.9.8-1.9 1.5-3.9 1.7-4.4.1-.6.7-2.2 1.3-3.8 1.6-3.9 3.2-11.1 3.7-17.2.2-2.2.4-4 .5-4 .1 0 .3-3.3.5-7.3.1-3.9-.1-7.2-.5-7.2s-.6-1.4-.4-3.1c.2-1.7.1-3.6-.3-4.2-.4-.7-.8-1.8-.9-2.7-.7-5.6-1.4-8.9-2.5-11.5-.7-1.7-1.3-3.6-1.5-4.3-.9-4.5-14.1-26.2-15.9-26.2-.2 0-3.1 3.5-6.4 7.7zM172.4 104.6c-1.6 2.2-3.1 4.1-3.4 4.4-.3.3-2.1 2.5-4 4.9-3.3 4.3-4.5 7.7-2.9 8.7.4.2.6 1.9.4 3.6-.3 2.5.3 3.7 2.9 6.2 1.8 1.7 4.3 3.8 5.6 4.6 1.2.8 2.8 2.1 3.6 2.7.7.7 1.6 1.3 2 1.3.4 0 1.3.8 2 1.7 1.2 1.6 1.5 1.6 2.3.3 1.6-2.3 2.4-11.6 1.7-18.9-.6-6.6-3-15.2-5.9-20.6l-1.4-2.8-2.9 3.9zM125.2 113.7c-2.8.6-10.1 7.6-10.4 10 0 1-.2 3.1-.4 4.8-.5 5.9 3.4 12.1 9.8 15.4 2.9 1.5 12.5 1.1 13.7-.6.3-.5 1.4-1.3 2.4-1.6 1.1-.4 2.1-1.6 2.4-2.7.3-1.1.9-2 1.4-2 1.2 0 2.2-8.4 1.4-12-.8-3.7-6.1-9.5-10-11-2.6-1-6-1.1-10.3-.3z"/></svg>