<svg xmlns="http://www.w3.org/2000/svg" viewBox="88.6 335.7 433.7 124"><path fill="#231F20" d="M120.2 433.5c0 7.2-3 17-11.8 17-4.4 0-7-2.3-7-6.9 0-8.5 12.5-10.1 18.8-10.1m12.6 24.9v-40.2c0-13-8.6-17.6-20.6-17.6-11.7 0-21.5 5-21.5 18h12.9c0-5.7 3-8.7 8.6-8.7 6.5 0 8 4.7 8 10.3v5.6c-12.8.3-31.6 2.1-31.6 19 0 9.7 7.6 14.9 16.6 14.9 6.2 0 11.9-2 14.7-7.9h.3v6.6h12.6m39-37.2h14c0-13.8-7.7-20.6-21.5-20.6-17 0-25.8 10.7-25.8 27 0 19.7 10 32 30.2 32 5.6 0 11.1-.9 16.5-2.5V449a29 29 0 0 1-9.5 1.4c-15 0-23.2-10.9-23.2-25.1 0-6.8 2.4-15.4 10.8-15.4 6.8 0 8.5 5.5 8.5 11.3m50.6 0h14c0-13.8-7.8-20.6-21.5-20.6-17 0-25.9 10.7-25.9 27 0 19.7 10.1 32 30.3 32 5.5 0 11.1-.9 16.5-2.5V449c-3.1 1-6.3 1.4-9.5 1.4-15 0-23.3-10.9-23.3-25.1 0-6.8 2.5-15.4 10.8-15.4 6.9 0 8.6 5.5 8.6 11.3m51.6-2.4h-20.7c.6-5.7 5-9.8 10.7-9.8 6 0 10 3.7 10 9.8m12.4 8v-3.3c0-13.8-7-22.9-21.4-22.9-16.9 0-24.3 10.6-24.3 26.6 0 18.6 8.5 32.5 28.5 32.5 5.4 0 10.7-.6 15.8-2.3v-9.1a33.7 33.7 0 0 1-10.8 2.1c-12.8 0-21.3-11.7-21.3-23.7h33.5m39 31.7h13.2v-39.2c0-9.7-4.5-18.6-15.3-18.6-8 0-13.7 4.7-16.7 11.9h-.3v-10.6h-13.1v56.5h13.1v-24.5c0-7.6 3.8-21 13.3-21 1.4 0 2.8.2 3.8 1.1 2.2 2.1 2 9.4 2 12.1v32.3M366 411h16.7v-9.2H366v-18.7l-13.1 5.3V402h-11v9.1h11v33.1c0 11.8 5.7 15.6 17.3 15.6 3.5 0 7.2-.4 10.7-1v-9.2c-2 .5-4 1-6 1-8.2 0-9-6.1-9-12.8v-26.6m55 47.3H434v-56.5h-13.2v24.4c0 7.6-3.8 21-13.3 21-1.3 0-2.8 0-3.8-1-2.2-2.2-2-9.4-2-12.1v-32.3h-13.1V441c0 9.7 4.4 18.6 15.3 18.6 8 0 13.7-4.8 16.7-11.9h.2v10.6m34.7-24.8c0-13.3 5-19.2 18.5-19.2v-13.8c-9.5 0-14 4-18.3 11.7h-.2V402h-13.2v56.5h13.2v-24.8m54.3-14.8h-20.6c.6-5.7 5-9.8 10.7-9.8 6 0 10 3.7 10 9.8m12.4 8v-3.3c0-13.8-7.1-22.9-21.5-22.9-16.8 0-24.2 10.6-24.2 26.6 0 18.6 8.4 32.5 28.5 32.5 5.3 0 10.7-.6 15.8-2.3v-9.1a33.8 33.8 0 0 1-10.8 2.1c-12.9 0-21.3-11.7-21.3-23.7h33.5"/><path fill="#27AAE1" d="M341.8 335.7v9.2l30 11.7-30 11.6v9.3l41-16.7v-8.5l-41-16.6"/></svg>