<?xml version="1.0" encoding="utf-8"?>
<!-- Generator: Adobe Illustrator 23.1.1, SVG Export Plug-In . SVG Version: 6.00 Build 0)  -->
<svg version="1.1" id="Layer_3" xmlns="http://www.w3.org/2000/svg" xmlns:xlink="http://www.w3.org/1999/xlink" x="0px" y="0px"
	 viewBox="0 0 291.6 48.24" enable-background="new 0 0 291.6 48.24" xml:space="preserve">
<g>
	<g>
		<linearGradient id="SVGID_1_" gradientUnits="userSpaceOnUse" x1="23.0181" y1="2.5127" x2="23.0181" y2="47.113">
			<stop  offset="0" style="stop-color:#3C7BAE"/>
			<stop  offset="0.0531" style="stop-color:#3A74A3"/>
			<stop  offset="0.3587" style="stop-color:#2D5276"/>
			<stop  offset="0.6293" style="stop-color:#223B5A"/>
			<stop  offset="0.8523" style="stop-color:#1B2E4A"/>
			<stop  offset="1" style="stop-color:#182945"/>
		</linearGradient>
		<path fill="url(#SVGID_1_)" d="M2.19,45.48L21.73,3.2c0.19-0.38,0.5-0.69,1.07-0.69h0.63c0.63,0,0.88,0.31,1.07,0.69l19.35,42.28
			c0.38,0.82-0.13,1.63-1.07,1.63h-5.47c-0.94,0-1.38-0.38-1.82-1.26l-3.08-6.78H13.63l-3.08,6.78c-0.25,0.63-0.82,1.26-1.82,1.26
			H3.26C2.32,47.11,1.82,46.3,2.19,45.48z M29.33,32.1l-6.28-13.82h-0.19L16.7,32.1H29.33z"/>
		<linearGradient id="SVGID_2_" gradientUnits="userSpaceOnUse" x1="61.1377" y1="3.1402" x2="61.1377" y2="47.113">
			<stop  offset="0" style="stop-color:#3C7BAE"/>
			<stop  offset="0.0531" style="stop-color:#3A74A3"/>
			<stop  offset="0.3587" style="stop-color:#2D5276"/>
			<stop  offset="0.6293" style="stop-color:#223B5A"/>
			<stop  offset="0.8523" style="stop-color:#1B2E4A"/>
			<stop  offset="1" style="stop-color:#182945"/>
		</linearGradient>
		<path fill="url(#SVGID_2_)" d="M48.45,4.33c0-0.63,0.5-1.19,1.19-1.19h5.78c0.63,0,1.19,0.57,1.19,1.19v35.24h16.02
			c0.69,0,1.19,0.57,1.19,1.19v5.15c0,0.63-0.5,1.19-1.19,1.19H49.64c-0.69,0-1.19-0.57-1.19-1.19V4.33z"/>
		<linearGradient id="SVGID_3_" gradientUnits="userSpaceOnUse" x1="94.2242" y1="2.5127" x2="94.2242" y2="47.6783">
			<stop  offset="0" style="stop-color:#3C7BAE"/>
			<stop  offset="0.0531" style="stop-color:#3A74A3"/>
			<stop  offset="0.3587" style="stop-color:#2D5276"/>
			<stop  offset="0.6293" style="stop-color:#223B5A"/>
			<stop  offset="0.8523" style="stop-color:#1B2E4A"/>
			<stop  offset="1" style="stop-color:#182945"/>
		</linearGradient>
		<path fill="url(#SVGID_3_)" d="M97.46,2.51c5.65,0,11.06,2.2,15.33,5.84c0.5,0.5,0.57,1.26,0.06,1.76l-3.89,4.08
			c-0.5,0.5-1.07,0.5-1.63,0c-2.7-2.39-6.03-3.64-9.49-3.64c-7.85,0-14.07,6.72-14.07,14.57c0,7.79,6.22,14.39,14.13,14.39
			c3.52,0,6.22-1.07,7.48-1.57V32.6h-5.03c-0.69,0-1.19-0.5-1.19-1.13v-4.96c0-0.69,0.5-1.19,1.19-1.19h12.06
			c0.63,0,1.13,0.57,1.13,1.19v16.08c0,0.5-0.25,0.82-0.5,1.01c0,0-6.47,4.08-15.58,4.08c-12.5,0-22.55-9.93-22.55-22.49
			C74.91,12.63,84.96,2.51,97.46,2.51z"/>
		<linearGradient id="SVGID_4_" gradientUnits="userSpaceOnUse" x1="189.6153" y1="3.1402" x2="189.6153" y2="47.113">
			<stop  offset="0" style="stop-color:#3C7BAE"/>
			<stop  offset="0.0531" style="stop-color:#3A74A3"/>
			<stop  offset="0.3587" style="stop-color:#2D5276"/>
			<stop  offset="0.6293" style="stop-color:#223B5A"/>
			<stop  offset="0.8523" style="stop-color:#1B2E4A"/>
			<stop  offset="1" style="stop-color:#182945"/>
		</linearGradient>
		<path fill="url(#SVGID_4_)" d="M171.18,4.33c0-0.63,0.57-1.19,1.19-1.19h5.84c0.69,0,1.19,0.57,1.19,1.19v16.65h20.48V4.33
			c0-0.63,0.5-1.19,1.19-1.19h5.78c0.63,0,1.19,0.57,1.19,1.19v41.59c0,0.63-0.57,1.19-1.19,1.19h-5.78c-0.69,0-1.19-0.57-1.19-1.19
			V28.58h-20.48v17.34c0,0.63-0.5,1.19-1.19,1.19h-5.84c-0.63,0-1.19-0.57-1.19-1.19V4.33z"/>
		<linearGradient id="SVGID_5_" gradientUnits="userSpaceOnUse" x1="233.9333" y1="3.1402" x2="233.9333" y2="47.7416">
			<stop  offset="0" style="stop-color:#3C7BAE"/>
			<stop  offset="0.0531" style="stop-color:#3A74A3"/>
			<stop  offset="0.3587" style="stop-color:#2D5276"/>
			<stop  offset="0.6293" style="stop-color:#223B5A"/>
			<stop  offset="0.8523" style="stop-color:#1B2E4A"/>
			<stop  offset="1" style="stop-color:#182945"/>
		</linearGradient>
		<path fill="url(#SVGID_5_)" d="M216.44,4.33c0-0.63,0.57-1.19,1.19-1.19h5.97c0.69,0,1.19,0.57,1.19,1.19v26.2
			c0,5.34,3.64,9.05,9.11,9.05c5.46,0,9.17-3.71,9.17-8.98V4.33c0-0.63,0.5-1.19,1.19-1.19h5.97c0.63,0,1.19,0.57,1.19,1.19v26.64
			c0,9.55-7.6,16.77-17.53,16.77c-9.86,0-17.46-7.22-17.46-16.77V4.33z"/>
		<linearGradient id="SVGID_6_" gradientUnits="userSpaceOnUse" x1="274.8594" y1="3.1402" x2="274.8594" y2="47.113">
			<stop  offset="0" style="stop-color:#3C7BAE"/>
			<stop  offset="0.0531" style="stop-color:#3A74A3"/>
			<stop  offset="0.3587" style="stop-color:#2D5276"/>
			<stop  offset="0.6293" style="stop-color:#223B5A"/>
			<stop  offset="0.8523" style="stop-color:#1B2E4A"/>
			<stop  offset="1" style="stop-color:#182945"/>
		</linearGradient>
		<path fill="url(#SVGID_6_)" d="M282.37,24.88c3.64,1.26,7.54,4.21,7.54,10.11c0,7.04-6.03,12.12-13.69,12.12h-15.2
			c-0.69,0-1.19-0.57-1.19-1.19V4.33c0-0.63,0.5-1.19,1.19-1.19h14.39c7.47,0,13.25,5.03,13.25,11.62c0,4.71-3.02,8.17-6.28,9.8
			V24.88z M274.77,21.61c3.2,0,5.28-2.51,5.28-5.65s-2.07-5.34-5.28-5.34h-6.85v10.99H274.77z M275.64,39.7
			c3.14,0,5.53-2.45,5.53-5.72c0-3.14-2.39-5.47-5.53-5.47h-7.73V39.7H275.64z"/>
	</g>
	<linearGradient id="SVGID_7_" gradientUnits="userSpaceOnUse" x1="142.5424" y1="0.4701" x2="142.5424" y2="47.1381">
		<stop  offset="0" style="stop-color:#3C7BAE"/>
		<stop  offset="0.0531" style="stop-color:#3A74A3"/>
		<stop  offset="0.3587" style="stop-color:#2D5276"/>
		<stop  offset="0.6293" style="stop-color:#223B5A"/>
		<stop  offset="0.8523" style="stop-color:#1B2E4A"/>
		<stop  offset="1" style="stop-color:#182945"/>
	</linearGradient>
	<path fill="url(#SVGID_7_)" d="M166.21,27.84l-3.69-16.15c-0.35-1.54-1.38-2.83-2.81-3.52l-14.93-7.19c-1.42-0.68-3.08-0.68-4.5,0
		l-14.93,7.19c-1.42,0.68-2.46,1.98-2.81,3.52l-3.69,16.15c-0.35,1.54,0.02,3.15,1,4.39l10.33,12.95c0.98,1.23,2.48,1.95,4.06,1.95
		h16.57c1.58,0,3.07-0.72,4.06-1.95l10.33-12.95C166.2,31,166.56,29.38,166.21,27.84z M142.46,39.34c-8.08,0-14.63-6.55-14.63-14.63
		s6.55-14.63,14.63-14.63s14.63,6.55,14.63,14.63S150.53,39.34,142.46,39.34z"/>
	<g>
		<radialGradient id="SVGID_8_" cx="142.5521" cy="24.4506" r="8.388" fx="143.6768" fy="24.4453" gradientUnits="userSpaceOnUse">
			<stop  offset="0" style="stop-color:#F7F4CC"/>
			<stop  offset="0.1053" style="stop-color:#F3F2C6"/>
			<stop  offset="0.262" style="stop-color:#EBEBB6"/>
			<stop  offset="0.451" style="stop-color:#DDE29C"/>
			<stop  offset="0.665" style="stop-color:#CAD77B"/>
			<stop  offset="0.8972" style="stop-color:#B2CA4B"/>
			<stop  offset="1" style="stop-color:#A6C439"/>
		</radialGradient>
		<path fill="url(#SVGID_8_)" d="M150.05,19.87c-0.18-0.26-0.41-0.48-0.69-0.65l-5.69-3.28c-0.69-0.4-1.55-0.4-2.24,0l-5.69,3.28
			c-0.29,0.17-0.51,0.4-0.7,0.66l7.48,3.26L150.05,19.87z"/>
		<radialGradient id="SVGID_9_" cx="142.5579" cy="24.4506" r="8.3818" fx="143.6817" fy="24.4453" gradientUnits="userSpaceOnUse">
			<stop  offset="0" style="stop-color:#F7F4CC"/>
			<stop  offset="0.1053" style="stop-color:#F3F2C6"/>
			<stop  offset="0.262" style="stop-color:#EBEBB6"/>
			<stop  offset="0.451" style="stop-color:#DDE29C"/>
			<stop  offset="0.665" style="stop-color:#CAD77B"/>
			<stop  offset="0.8972" style="stop-color:#B2CA4B"/>
			<stop  offset="1" style="stop-color:#A6C439"/>
		</radialGradient>
		<path fill="url(#SVGID_9_)" d="M134.9,20.11c-0.17,0.32-0.28,0.68-0.28,1.06v6.57c0,0.8,0.43,1.54,1.12,1.94l5.69,3.28
			c0.32,0.18,0.67,0.27,1.03,0.29l-0.38-8.56L134.9,20.11z"/>
		
			<radialGradient id="SVGID_10_" cx="142.5579" cy="24.4506" r="8.3784" fx="143.6813" fy="24.4453" gradientUnits="userSpaceOnUse">
			<stop  offset="0" style="stop-color:#F7F4CC"/>
			<stop  offset="0.1053" style="stop-color:#F3F2C6"/>
			<stop  offset="0.262" style="stop-color:#EBEBB6"/>
			<stop  offset="0.451" style="stop-color:#DDE29C"/>
			<stop  offset="0.665" style="stop-color:#CAD77B"/>
			<stop  offset="0.8972" style="stop-color:#B2CA4B"/>
			<stop  offset="1" style="stop-color:#A6C439"/>
		</radialGradient>
		<path fill="url(#SVGID_10_)" d="M142.99,24.69l-0.38,8.57c0.37-0.01,0.74-0.1,1.07-0.29l5.69-3.28c0.69-0.4,1.12-1.14,1.12-1.94
			v-6.57c0-0.39-0.1-0.76-0.29-1.09L142.99,24.69z"/>
		<path fill="#FFFFFF" d="M150.2,20.08c-0.04-0.08-0.1-0.14-0.15-0.21l-4.19,1.81c-0.29,0.13-0.63,0.11-0.9-0.06l-1.83-1.08
			c-0.36-0.21-0.79-0.22-1.16-0.02l-2.01,1.09c-0.26,0.14-0.57,0.15-0.83,0.04l-4.08-1.78c-0.05,0.07-0.11,0.14-0.15,0.22l7.18,4.58
			l0.38,8.56c0.05,0,0.09,0.01,0.14,0.01l0.38-8.57L150.2,20.08z"/>
	</g>
</g>
</svg>
