<svg xmlns="http://www.w3.org/2000/svg" viewBox="0 0 284.05 87.23"><defs><style>.cls-1{fill:#006f51}</style></defs><g id="Layer_2" data-name="Layer 2"><g id="svg29"><g id="g37"><g id="g71"><g id="g39"><path id="path41" class="cls-1" d="M108.94 29.85v.83c0 .45.07.68.53.68 7.72.23 7.72 1.06 7.72 7.12v4.85c0 5.15-3.33 8.33-10.07 8.33C95.83 51.66 91 40.83 91 27.2 91 14.32 94.47 2 106.89 2c7 0 13 4.77 13.41 13.41 0 .53.3.53.68.53h.76c-.07-3.49-.15-11.82-.15-15.38h-.46c-.53 0-.75.07-.83.38l-.68 3.78h-.08C116 1.44 110.91 0 106.13 0 91.51 0 81.82 12.42 81.82 27.42a30.07 30.07 0 0 0 .75 7l-.15 2.12c-.83 11.52-7.57 15.07-14.69 15.07-11.29 0-16.67-10.37-16.67-24.46C51.06 14.39 54.24 2 66.67 2a12.66 12.66 0 0 1 12.87 10.6c.08.54.31.54.68.54H81c-.07-3.49-.15-9-.15-12.58h-.45c-.53 0-.76.07-.84.38l-.68 3.71h-.07A19.38 19.38 0 0 0 65.76 0C51.44 0 41.89 12.42 41.89 27.42a34.83 34.83 0 0 0 .31 4h-.15c-2.88-4.1-8.64-6.14-15.54-6.44v-.15c7.5-1.52 12.58-5.31 12.58-11.67 0-9.7-10.45-12.12-18.86-12.12-2.28 0-7.43.15-9 .15C7.5 1.21 3.48 1.14 0 1.06v.83c0 .46.07.68.53.68 6.13.23 6.13 1.07 6.13 10.54v27.42c0 9.46 0 10.3-6 10.53-.54 0-.61.23-.61.68v.83c3.56-.07 7-.14 10.6-.14 4.55 0 6.52.14 12.51.14 12.57 0 20.37-6 20.91-13.63h.15C48 48 56.44 53.63 67.57 53.63a22 22 0 0 0 14-4.85h.07l.69 3.95c.07.3.3.37.83.37h.45c0-2.5.08-9.31.16-14.39h.15c3.79 9.4 12.35 14.92 22.72 14.92 10.08 0 13.79-6.29 18.11-6.29.38 0 .53-.15.53-.75 0-.76-.15-3-.15-4.24v-3.49c0-6.44 0-7.27 4.39-7.5.53 0 .61-.23.61-.68v-.83c-3.56.07-5.91.15-9.55.15s-8.16-.08-11.64-.15zM22.73 50.6c-6.82 0-7.88-1.13-7.88-10.6V26.36h3c9.09 0 17.34 2.2 17.34 12 .03 7.7-4.51 12.24-12.46 12.24zm-7.88-26V3.94c0-.53.07-.69.83-.76 1.06-.07 3.64-.18 4.85-.18 6.36.08 10.38 3.79 10.38 10.83 0 7.88-4.85 10.69-12.88 10.69h-3.18"/></g><g id="g43"><path id="path45" class="cls-1" d="M280.24 78.2c-.44 0-1.16 0-1.16.16v3.91h.72c1.58 0 2.46-.62 2.46-2.18a1.78 1.78 0 0 0-2.02-1.89zm-.41 4.8h-.75v1.4c0 1.76 0 1.77 1.45 1.94.1 0 .12 0 .12.14V87h-4.54v-.48c0-.09 0-.12.11-.14 1.21-.17 1.21-.18 1.21-1.94V80c0-1.74 0-1.76-1.21-1.94-.1 0-.11 0-.11-.12v-.48h4.05c1.67 0 3.89.46 3.89 2.5 0 1.38-.68 3.04-4.22 3.04zm-9 4.15c-2.74 0-4-1.13-4-3.57V80c0-1.74 0-1.76-1.19-1.94-.1 0-.12 0-.12-.12v-.48h4.28v.48c0 .08 0 .12-.11.12-1.2.18-1.2.2-1.2 1.94v3.88c0 1.41.73 2.31 2.45 2.31a2.18 2.18 0 0 0 2.44-2.46v-2.35c0-2.94 0-3.15-1.7-3.35-.07 0-.07 0-.07-.12v-.48h3.89v.48c0 .08 0 .12-.13.12-1 .18-1 .4-1 3.35v2.08c0 2.54-1.22 3.72-3.57 3.72zM260.4 78c-1.73 0-2.63 1.41-2.63 4.25s1.17 4.15 2.87 4.15 2.63-1.41 2.63-4.24c0-3-1.15-4.16-2.87-4.16zm.14 9.19a4.51 4.51 0 0 1-4.6-4.82c0-3.53 2.13-5.16 4.58-5.16A4.5 4.5 0 0 1 265.1 82c0 3.53-2.1 5.18-4.56 5.18zm-9.73-9c-.46 0-1.3-.07-1.3.16v3.33h.89c1.44 0 2.27-.52 2.27-1.86 0-1.17-.81-1.62-1.86-1.62zm1 3.76c2.92.54 2 4.14 3.16 4.14a1 1 0 0 0 .67-.38l.28.34a.67.67 0 0 0 0 .07v.09a2.11 2.11 0 0 1-1.64.82c-1.35 0-1.66-1.2-2-2.61s-.58-2.1-1.82-2.1h-1v2c0 1.76 0 1.77 1.2 1.94.1 0 .11 0 .11.14v.6h-4.29v-.48c0-.09 0-.12.12-.14 1.19-.17 1.19-.18 1.19-1.94V80c0-1.74 0-1.76-1.19-1.94-.1 0-.12 0-.12-.12v-.48h4.26c2 0 3.66.56 3.66 2.23.05.97-.57 1.96-2.58 2.31zm-5.58-.5c0 .12 0 .18-.15.19-1.22.26-1.22.28-1.22 2v1.69c0 .21 0 .18-.14.18-1.22 0-1.73 1.7-4.69 1.7-3.59 0-6.28-2.48-6.28-7.3 0-3.93 2-7.12 6.25-7.12a6.08 6.08 0 0 1 3.17.75l.33-.46a.28.28 0 0 1 .29-.15h.29v3.93h-.53c-.1 0-.12 0-.15-.14-.48-2-1.6-3-3.49-3-3.34 0-4.05 3.27-4.05 6.2 0 3.12.91 6.43 4.28 6.43 1.71 0 2.81-.86 2.81-2.21v-.59c0-1.63 0-1.65-2-1.91-.13 0-.14-.07-.14-.19v-.63h5.33zm-16 1.79c0 .08 0 .1-.1.14-.88.18-.88.2-.88 1.37v1.23c0 .15 0 .13-.11.13-.87 0-1.37 1.06-3.44 1.06-2.61 0-4.55-1.73-4.55-5 0-2.71 1.51-5 4.53-5a3.94 3.94 0 0 1 2.18.52l.26-.33a.19.19 0 0 1 .19-.1h.29v2.87h-.44c-.07 0-.09 0-.12-.11-.33-1.35-1-2.06-2.34-2.06-2.27 0-2.73 2.17-2.73 4.16s.6 4.3 2.84 4.3c1.14 0 1.78-.57 1.78-1.5v-.29c0-1.09 0-1.1-1.51-1.27-.09 0-.1-.06-.1-.14v-.46h4.18zm-11.89 3.93c-.26-.46-.65-1-1-1.48l-4.52-6.45V83c0 2.89 0 3.2 1.68 3.35.09 0 .11 0 .11.14V87h-4.11v-.48c0-.09 0-.12.13-.14 1.18-.17 1.18-.46 1.18-3.35V80c0-1.74 0-1.76-1.18-1.94-.11 0-.13 0-.13-.12v-.48h3.14l4.86 6.95v-3c0-2.87 0-3.18-1.68-3.35-.11 0-.11 0-.11-.12v-.48h4.12v.48c0 .08 0 .12-.1.12-1.2.18-1.22.48-1.22 3.35v5.8zm-10.73-.26h-2.14v-.48c0-.09 0-.12.12-.14 1.2-.17 1.2-.18 1.2-1.94V80c0-1.74 0-1.76-1.2-1.94-.11 0-.12 0-.12-.12v-.48h4.29v.48c0 .08 0 .12-.13.12-1.19.18-1.19.2-1.19 1.94v4.4c0 1.76 0 1.77 1.19 1.94.11 0 .13 0 .13.14V87c-.66-.06-1.48-.08-2.15-.08zm-7 0h-2.12v-.48c0-.09 0-.12.11-.14 1.21-.17 1.21-.18 1.21-1.94v-6c0-.11 0-.17-.16-.17h-.79c-1.19 0-1.77.15-2 2 0 .08-.05.08-.14.08h-.43v-2.83h8.62v2.83h-.42c-.09 0-.12 0-.14-.08-.21-1.82-.81-2-2-2h-.79c-.16 0-.16.06-.16.17v6c0 1.76 0 1.77 1.21 1.94.1 0 .11 0 .11.14V87c-.6-.06-1.42-.08-2.11-.08zm-5.71 0h-5.24v-.48c0-.09 0-.12.12-.14 1.2-.17 1.2-.18 1.2-1.94V80c0-1.74 0-1.76-1.2-1.94-.1 0-.12 0-.12-.12v-.48h4.55v.48c0 .08 0 .12-.12.12-1.46.18-1.46.2-1.46 1.94v4.3c0 1.76 0 1.89 1.29 1.89h.67c1.18 0 1.73-.39 2-2.19 0-.09.05-.1.12-.1h.45v3.09c-.7.01-1.1-.07-2.26-.07zm-10.59.26c-2.75 0-4-1.13-4-3.57V80c0-1.74 0-1.76-1.18-1.94-.1 0-.12 0-.12-.12v-.48h4.28v.48c0 .08 0 .12-.11.12-1.2.18-1.2.2-1.2 1.94v3.88c0 1.41.72 2.31 2.45 2.31a2.18 2.18 0 0 0 2.44-2.46v-2.35c0-2.94 0-3.15-1.7-3.35-.07 0-.07 0-.07-.12v-.48h3.88v.48c0 .08 0 .12-.12.12-1 .18-1 .4-1 3.35v2.08c.02 2.54-1.2 3.72-3.55 3.72zm-11.19-.53l-.26.35c0 .06-.08.08-.19.08h-.25V84h.45s.1 0 .1.1c.3 1.51 1 2.28 2.35 2.28s2-.55 2-1.42c0-2.55-4.88-1.79-4.88-5a2.71 2.71 0 0 1 2.89-2.75 3.61 3.61 0 0 1 1.92.52l.22-.33a.2.2 0 0 1 .21-.1h.29v2.71h-.44c-.07 0-.11 0-.12-.1a2.19 2.19 0 0 0-2.14-1.91c-1.07 0-1.52.62-1.52 1.24 0 2.54 4.94 1.75 4.94 5 0 2-1.71 3-3.34 3a4 4 0 0 1-2.23-.53zm-4 .53c-.28-.46-.68-1-1-1.48l-4.52-6.45V83c0 2.89 0 3.2 1.68 3.35.09 0 .1 0 .1.14V87h-4.1v-.48c0-.09 0-.12.13-.14 1.17-.17 1.17-.46 1.17-3.35V80c0-1.74 0-1.76-1.17-1.94-.11 0-.13 0-.13-.12v-.48h3.15l4.82 6.95v-3c0-2.87 0-3.18-1.68-3.35-.11 0-.11 0-.11-.12v-.48h4.13v.48c0 .08 0 .12-.12.12-1.19.18-1.21.48-1.21 3.35v5.8zM156 78c-1.73 0-2.63 1.41-2.63 4.25s1.17 4.15 2.89 4.15 2.62-1.41 2.62-4.24c.03-3-1.14-4.16-2.88-4.16zm.13 9.19a4.51 4.51 0 0 1-4.59-4.82c0-3.53 2.12-5.16 4.57-5.16a4.52 4.52 0 0 1 4.64 4.79c0 3.53-2.15 5.18-4.59 5.18zm-23.11 0c-.26-.46-.66-1-1-1.48l-4.53-6.45V83c0 2.89 0 3.2 1.68 3.35.09 0 .1 0 .1.14V87h-4.1v-.48c0-.09 0-.12.12-.14 1.2-.17 1.2-.46 1.2-3.35V80c0-1.74 0-1.76-1.2-1.94-.1 0-.12 0-.12-.12v-.48h3.14l4.84 6.95v-3c0-2.87 0-3.18-1.7-3.35-.08 0-.08 0-.08-.12v-.48h4.12v.48c0 .08 0 .12-.12.12-1.2.18-1.22.48-1.22 3.35v5.8zM120 78c-1.75 0-2.62 1.41-2.62 4.25s1.14 4.15 2.86 4.15 2.63-1.41 2.63-4.24c0-3-1.17-4.16-2.87-4.16zm.12 9.19a4.5 4.5 0 0 1-4.58-4.82c0-3.53 2.12-5.16 4.56-5.16a4.52 4.52 0 0 1 4.6 4.83c0 3.5-2.13 5.15-4.58 5.15zm-9.12-.27h-2.13v-.48c0-.09 0-.12.12-.14 1.19-.17 1.19-.18 1.19-1.94v-6c0-.11 0-.17-.14-.17h-.79c-1.18 0-1.77.15-2 2 0 .08 0 .08-.12.08h-.43v-2.83h8.62v2.83h-.43c-.08 0-.12 0-.13-.08-.21-1.82-.83-2-2-2H112c-.16 0-.16.06-.16.17v6c0 1.76 0 1.77 1.2 1.94.1 0 .1 0 .1.14V87H111zm-10-.27l-.24.35a.23.23 0 0 1-.21.08h-.25v-3.07h.45c.07 0 .12 0 .12.1.28 1.51 1 2.28 2.34 2.28s2-.55 2-1.42c0-2.55-4.88-1.79-4.88-5a3 3 0 0 1 4.67-2.11l.24-.33c.06-.09.08-.1.19-.1h.29v2.83h-.44c-.06 0-.1 0-.11-.1-.3-1.22-.93-2.17-2.13-2.17s-1.51.62-1.51 1.24c0 2.54 4.94 1.75 4.94 5 0 2-1.7 3-3.35 3a4.1 4.1 0 0 1-2.23-.53zM94.78 78c-1.75 0-2.63 1.41-2.63 4.25s1.17 4.15 2.87 4.15 2.62-1.41 2.62-4.24c0-3-1.16-4.16-2.86-4.16zm.12 9.19a4.5 4.5 0 0 1-4.58-4.82c0-3.53 2.12-5.16 4.58-5.16A4.5 4.5 0 0 1 99.48 82c0 3.53-2.13 5.18-4.58 5.18zm-23.24-.26h-5.14v-.48c0-.09 0-.12.12-.14 1.2-.17 1.2-.18 1.2-1.94V80c0-1.74 0-1.76-1.2-1.94-.1 0-.12 0-.12-.12v-.48h6.95v2.56h-.43c-.08 0-.12 0-.14-.09-.22-1.49-.79-1.69-2-1.69h-1.28c-.14 0-.16.06-.16.17v3.26h.16c1.17 0 1.47-.18 1.61-1.24 0-.1.06-.1.14-.1h.44v3.34h-.44c-.08 0-.12 0-.14-.08-.14-1.17-.44-1.31-1.61-1.31h-.16v2c0 1.75 0 1.89 1.29 1.89h.91c1.17 0 1.75-.33 2-2 0-.08 0-.1.13-.1h.45v2.85h-2.52zm-8 0h-2.13v-.48c0-.09 0-.12.11-.14 1.2-.17 1.2-.18 1.2-1.94v-2h-4.3v2c0 1.76 0 1.77 1.19 1.94.1 0 .12 0 .12.14V87h-4.27v-.48c0-.09 0-.12.1-.14 1.2-.17 1.2-.18 1.2-1.94V80c0-1.74 0-1.76-1.2-1.94-.1 0-.1 0-.1-.12v-.48h4.27v.48c0 .08 0 .12-.12.12-1.19.18-1.19.2-1.19 1.94v1.6h4.3V80c0-1.74 0-1.76-1.2-1.94-.09 0-.11 0-.11-.12v-.48h4.28v.48c0 .08 0 .12-.13.12-1.18.18-1.18.2-1.18 1.94v4.4c0 1.76 0 1.77 1.18 1.94.11 0 .13 0 .13.14V87h-2.15zm86.91.17c0-1 0-3.55.05-4.47h-.53c-.11 0-.16 0-.18.13-.32 2.53-1.65 3.56-3.74 3.56-2.89 0-4.39-2.39-4.39-6.39 0-3 .68-6.2 3.93-6.2 1.88 0 3 1.13 3.43 3.22 0 .14.07.14.17.14h.54c0-.94-.06-3.17-.06-4.13h-.29a.3.3 0 0 0-.29.15l-.32.46a6.05 6.05 0 0 0-3.17-.75c-3.88 0-6.07 3.14-6.07 7.12 0 4.78 2.66 7.3 6.33 7.3a8.52 8.52 0 0 0 3.69-.77l.32.5a.27.27 0 0 0 .29.13zM86.13 76.55c0 2-1.22 2.73-3.47 2.73h-.86v-5c0-.14 0-.19.23-.2s1 0 1.3 0c1.72 0 2.8.72 2.8 2.54zm1.15 6.53c0 2-1.25 3-3.62 3-1.84 0-1.86-.19-1.86-2.76v-3.2h.85c2.93 0 4.63.79 4.63 3zm2.11 0c0-2.35-2.13-3.4-4.39-3.52v-.06c1.64-.36 3-1.37 3-3.12 0-2.61-2.81-3.26-5.07-3.26h-4.8v.55c0 .12 0 .15.15.17 1.55.27 1.55.29 1.55 2.83v6.73c0 2.55 0 2.56-1.55 2.84-.13 0-.15.05-.15.17V87h5.54c3.5 0 5.65-1.73 5.65-3.88zM54 87v-.55c0-.12 0-.15-.15-.17-1.56-.28-1.56-.28-1.56-2.88v-9.13c0-.14 0-.21.22-.21h1.31c1.71 0 2.59.24 2.91 2.49 0 .12.05.14.19.14h.52v-3.57H45.27v3.91h.52c.13 0 .17 0 .19-.14.32-2.64 1.2-2.83 2.92-2.83h1.3c.21 0 .22.07.22.21v9.13c0 2.55 0 2.56-1.54 2.84-.14 0-.16.05-.16.17V87h5.3"/></g></g></g></g></g></svg>