<svg width="242" height="29" viewBox="0 0 242 29" fill="none" xmlns="http://www.w3.org/2000/svg">
<path d="M68.71 14.6391C68.71 10.7628 71.3493 8.24731 75.5464 8.24731C79.1376 8.24731 81.3443 10.103 81.8635 13.0721H78.0992C77.7963 11.8349 76.8877 11.0514 75.5031 11.0514C73.5993 11.0514 72.431 12.536 72.431 14.6391C72.431 16.7834 73.6426 18.2267 75.5031 18.2267C76.8877 18.2267 77.8396 17.4432 78.0992 16.1648H81.8635C81.3443 19.1751 78.9646 21.0308 75.4166 21.0308C71.2195 21.0308 68.71 18.5978 68.71 14.6391Z" fill="black"/>
<path d="M83.4644 3.87622H87.0556V20.9071H83.4644V3.87622Z" fill="black"/>
<path d="M88.8296 14.6803C88.8296 10.804 91.5122 8.24731 95.5794 8.24731C99.5169 8.24731 102.156 10.5978 102.2 14.2679C102.2 14.6391 102.156 15.0514 102.113 15.4226H92.5939V15.5875C92.6805 17.3607 93.8487 18.4329 95.666 18.4329C97.1371 18.4329 98.1323 17.8143 98.4352 16.6597H101.983C101.594 19.0927 99.3005 21.0308 95.7958 21.0308C91.469 21.0308 88.8296 18.5154 88.8296 14.6803ZM98.565 13.1958C98.3054 11.67 97.2236 10.804 95.5794 10.804C94.0218 10.804 92.8535 11.7112 92.6372 13.1958H98.565Z" fill="black"/>
<path d="M116.824 17.9792V20.8658H115.007C113.147 20.8658 112.541 19.9998 112.584 18.804C111.675 20.206 110.334 20.9895 108.3 20.9895C105.488 20.9895 103.411 19.7112 103.411 17.3194C103.411 14.6803 105.488 13.1545 109.425 13.1545H112.022V12.5359C112.022 11.4225 111.199 10.6803 109.685 10.6803C108.3 10.6803 107.349 11.2988 107.175 12.206H103.714C103.974 9.77304 106.31 8.16479 109.772 8.16479C113.449 8.16479 115.57 9.73181 115.57 12.7009V17.1132C115.57 17.773 115.829 17.8968 116.392 17.8968H116.824V17.9792ZM112.022 15.505H109.382C107.868 15.505 107.002 16.0823 107.002 17.1545C107.002 18.0205 107.738 18.5978 108.949 18.5978C110.853 18.5978 111.978 17.4844 112.022 15.7937V15.505Z" fill="black"/>
<path d="M126.992 8.37109V11.5051H125.565C123.401 11.5051 122.622 12.8659 122.622 14.7628V20.9072H118.988V8.37109H122.276L122.622 10.2268C123.358 9.11336 124.353 8.37109 126.387 8.37109H126.992Z" fill="black"/>
<path d="M144.646 3.87622H146.723V20.9071H144.949L144.689 18.9278C143.824 20.0824 142.439 21.0721 140.232 21.0721C136.641 21.0721 133.958 18.7628 133.958 14.7216C133.958 10.9278 136.598 8.37107 140.232 8.37107C142.439 8.37107 143.91 9.23704 144.689 10.4329V3.87622H144.646ZM144.689 14.7216C144.689 11.9999 142.958 10.103 140.405 10.103C137.809 10.103 136.079 11.9587 136.079 14.6803C136.079 17.402 137.809 19.2577 140.405 19.2577C142.958 19.2577 144.689 17.402 144.689 14.7216Z" fill="black"/>
<path d="M148.583 8.49487H150.79L154.814 18.3918L158.708 8.49487H160.915L154.901 22.9691C154.079 24.9485 153.603 25.732 151.742 25.732H149.276V23.9176H151.136C152.348 23.9176 152.521 23.6289 153.04 22.4743L153.689 20.9485L148.583 8.49487Z" fill="black"/>
<path d="M174.371 13.9792V20.907H172.294V14.1029C172.294 11.5049 171.04 10.1441 168.79 10.1441C166.323 10.1441 164.852 11.8761 164.852 14.6802V20.8658H162.775V8.49464H164.593L164.852 10.1854C165.631 9.23691 166.929 8.37093 169.136 8.37093C172.035 8.32969 174.371 9.85546 174.371 13.9792Z" fill="black"/>
<path d="M189.472 19.0514V20.8659H188.304C186.573 20.8659 185.967 20.1648 185.967 18.9277C185.145 20.0411 183.847 20.9896 181.597 20.9896C178.742 20.9896 176.794 19.6288 176.794 17.3607C176.794 14.8865 178.612 13.4844 182.03 13.4844H185.838V12.6184C185.838 11.0102 184.626 10.0205 182.592 10.0205C180.775 10.0205 179.52 10.8453 179.261 12.1236H177.184C177.487 9.69061 179.564 8.24731 182.679 8.24731C186.011 8.24731 187.914 9.81432 187.914 12.7422V18.1855C187.914 18.8453 188.174 19.0102 188.737 19.0102H189.472V19.0514ZM185.881 15.2164H181.857C179.996 15.2164 178.958 15.8762 178.958 17.2782C178.958 18.4741 180.04 19.3401 181.77 19.3401C184.366 19.3401 185.881 17.8968 185.881 15.8349V15.2164Z" fill="black"/>
<path d="M210.76 13.7319V20.8659H208.683V13.8556C208.683 11.4226 207.558 10.1443 205.611 10.1443C203.448 10.1443 202.106 11.7113 202.106 14.2267V20.8659H200.029V13.8556C200.029 11.4226 198.861 10.1443 196.871 10.1443C194.707 10.1443 193.409 11.835 193.409 14.3092V20.8659H191.333V8.49478H193.15L193.409 10.1855C194.102 9.27829 195.183 8.32983 197.217 8.32983C199.034 8.32983 200.592 9.11334 201.327 10.6803C202.106 9.36076 203.534 8.32983 205.827 8.32983C208.553 8.32983 210.76 9.81437 210.76 13.7319Z" fill="black"/>
<path d="M212.923 5.11331C212.923 4.37104 213.529 3.83496 214.265 3.83496C215 3.83496 215.606 4.37104 215.606 5.11331C215.606 5.85558 215 6.39166 214.265 6.39166C213.529 6.39166 212.923 5.85558 212.923 5.11331ZM213.183 8.49476H215.26V20.9071H213.183V8.49476Z" fill="black"/>
<path d="M217.423 14.7216C217.423 10.9278 220.019 8.32983 223.784 8.32983C226.986 8.32983 228.976 10.0206 229.539 12.7422H227.332C226.942 11.0927 225.688 10.103 223.741 10.103C221.231 10.103 219.543 11.9999 219.543 14.6804C219.543 17.3608 221.231 19.2164 223.741 19.2164C225.601 19.2164 226.899 18.1855 227.289 16.6185H229.495C228.976 19.2989 226.856 20.9896 223.697 20.9896C219.933 21.0309 217.423 18.5979 217.423 14.7216Z" fill="black"/>
<path d="M233.173 16.8246C233.259 18.2679 234.601 19.34 236.764 19.34C238.581 19.34 239.923 18.5978 239.923 17.4431C239.923 15.8761 238.495 15.7524 236.548 15.5462C233.649 15.2163 231.312 14.639 231.312 12.0823C231.312 9.81425 233.476 8.32972 236.418 8.37095C239.36 8.41219 241.524 9.69054 241.74 12.2885H239.577C239.404 11.0101 238.192 10.0617 236.418 10.0617C234.601 10.0617 233.389 10.8039 233.389 11.9173C233.389 13.2782 234.774 13.4431 236.678 13.6493C239.62 13.9792 242 14.5153 242 17.2782C242 19.5874 239.663 21.0307 236.807 21.0307C233.432 21.0307 231.096 19.505 231.053 16.7833H233.173V16.8246Z" fill="black"/>
<path d="M14.7545 0.577148C6.27391 0.577148 0 6.02045 0 13.4844H10.7738C19.6438 13.4844 25.6581 8.24725 26.1774 0.577148H14.7545Z" fill="black"/>
<path d="M14.7545 28.5771C6.27391 28.5771 0 23.1338 0 15.6287H10.7738C19.6438 15.6287 25.6581 20.8658 26.1774 28.5359L14.7545 28.5771Z" fill="black"/>
<path d="M54.6479 13.4844C54.0854 5.81426 48.1144 0.577148 39.2876 0.577148H33.7493C30.807 0.577148 28.4272 2.84519 28.4272 5.64931V13.5256H41.5376C42.1433 13.5256 42.6625 14.0204 42.6625 14.5978C42.6625 15.1751 42.1433 15.6699 41.5376 15.6699H28.4272V23.5462C28.4272 26.3503 30.807 28.6184 33.7493 28.6184H39.2876C48.1144 28.6184 54.0854 23.3813 54.6912 15.6699C54.6912 15.6699 54.7344 14.9689 54.7344 14.5978C54.6912 14.2266 54.6479 13.4844 54.6479 13.4844Z" fill="black"/>
</svg>
