<svg xmlns="http://www.w3.org/2000/svg" viewBox="0 0 1024 177"><path d="M621 109.5h-18v-23c0-4-1.8-5.6-4.7-5.6s-4.8 2.6-4.8 6v22.7h-18.9V50.8h17.5v21.3a18 18 0 0 1 13-6.3c6.2 0 16 3.4 16 14.1v29.7m-60.2 1.4c-12 0-15.2-5.8-15.2-16.9V79.4h-5.5V68h5.5V51h18.1v17h7.1v11.5h-7v11.4c0 4 1.2 6.6 5.3 6.6a11.8 11.8 0 0 0 2.3-.3l.4-.1v11.7a26.5 26.5 0 0 1-11 2.2m-41.2-1.4h18V50.8h-18zm-21.3 0l-.5-3.7c-3 3.2-9.4 5.6-14.2 5.6-3 0-10-.5-13.7-5.4a13.9 13.9 0 0 1-.6-14.5c3.5-5.5 11.5-7.5 19.4-8.5 3-.3 7-1.2 7-3.8a3.4 3.4 0 0 0-3.8-3.7 5 5 0 0 0-5 5h-17V80c1.8-10 9-15 21.5-15 20.9 0 23.4 7.2 23.4 19.7l.2 11.7c0 8 .5 9.8 1.3 13.1zM496 91.1l-4.7 1.4c-1.4.4-5 1-5 3.9a3.2 3.2 0 0 0 3.7 3c4.7-.2 6-2.9 6-7V91m-60.6.5c.1 4.2 2 7.8 6.8 7.8 2.3 0 5.2-1.1 6-3.7h17.4a16.3 16.3 0 0 1-2.2 5.4c-4.7 6.9-13.5 10.3-22 10.3-15.4 0-24.6-9-25-22.2-.4-11.6 6.4-23.7 23.8-23.7 16 0 25.7 9.7 25.7 26.1zm6.6-15.5c-3.6 0-6 2.8-6.3 6.3H448c-.3-3.4-2.7-6.3-6-6.3m-35.7 33.4h-19s-2.4-7.3-3.4-12a43.8 43.8 0 0 1-1.8-8 39.2 39.2 0 0 1-1.7 8c-.9 4.3-3.4 12-3.4 12H358L345.4 68h19.7s2.2 7.2 3 11.2a48.6 48.6 0 0 1 1.5 7.3 46.5 46.5 0 0 1 1.6-7.3c1-4.3 3.1-11.2 3.1-11.2H391s2.2 7 3.1 11.2a41.4 41.4 0 0 1 1.6 7.3 41.9 41.9 0 0 1 1.5-7.3c.9-4 3.1-11.2 3.1-11.2H419l-12.6 41.6m-79.3 0v-23c0-4-1.7-5.7-4.6-5.7s-4.9 2.6-4.9 6v22.8h-18V67.9h16.6l.2 4.2a16.8 16.8 0 0 1 13.1-6.3c6 0 16 3.4 16 14.1v29.7H327m-54.8 2c-14.7 0-24.4-8.8-24.4-23.2 0-14.6 10.3-23 24.4-23S297 74 297 88.8s-10.7 22.8-24.8 22.8zm.2-33.4c-5.1 0-5.6 7-5.6 10.7s.6 10.7 5.6 10.7 5.6-7 5.6-10.7-.5-10.7-5.6-10.7m-45.2 31.5V86.3c0-4-1.4-5.6-4.2-5.6s-4.8 2.6-4.8 6v23h-18.5V86.3c0-4-1.3-5.6-4.2-5.6s-4.8 2.6-4.8 6v22.8h-18.1V86.4c0-4-1.3-5.6-4.2-5.6s-5 2.6-5 6v22.8h-18V86.4c0-4-1.3-5.6-4.2-5.6s-4.9 2.6-4.9 6v22.8h-18V68h16.4l.4 3.7a16.6 16.6 0 0 1 13.1-5.8c5.8 0 11.7 2.8 13.6 6.4 2.3-3.5 7.9-6.3 13.8-6.3a16.1 16.1 0 0 1 13.6 6.5c2-3 7.4-6.5 13.2-6.5a16 16 0 0 1 13.9 6.5 16 16 0 0 1 13-6.5c13 0 16 8.3 16 17.6v26.1h-18.1m-136.2 2c-14.7 0-24.4-8.9-24.4-23.3 0-14.5 10.2-22.8 24.4-22.8s24.8 8.5 24.8 23.1-10.7 23-24.8 23zm.2-33.5c-5.1 0-5.6 7.1-5.6 10.8s.6 10.7 5.6 10.7 5.6-7 5.6-10.7-.5-10.8-5.6-10.8M61.8 97.7c-4 7.9-12.3 13.8-24.7 13.8-19.4 0-31.3-12.8-31.3-30.9 0-16.9 9.9-31.3 30-31.3 19.6 0 28.5 11.8 28.9 23.5H44.5c-1.7-6.2-5.5-7.4-8.3-7.4-3.5 0-9.6 2.4-9.6 14.9s6 14.9 9.6 14.9a8.3 8.3 0 0 0 7.2-4.4 11.2 11.2 0 0 0 1.6-4.1h19.6a25.3 25.3 0 0 1-2.8 11m710.7-14.2l16.6-15.8h-6.5l-21.2 20.1v-37h-4.8v58.9h4.8V93.8L769 87l15.6 22.7h5.9l-17.9-26.2m-36.4-17a14.7 14.7 0 0 0-13.1 7.8v-6.6h-4.8v42h4.8V86.3c0-9.2 5.2-15.4 13-15.4 6.9 0 10.2 4 10.2 12.4v26.4h4.8V83.3c0-4.1 0-16.7-14.9-16.7M715 105.3h-.6l-1.8.1c-1 0-2.4-.4-2.4-3.8V78.8c0-8-5.1-12.2-14.8-12.2-9.4 0-15.1 4.7-16 13.1v.5h5v-.4a10.4 10.4 0 0 1 2-5.2c1.7-2.4 4.8-3.7 8.8-3.7 9.5 0 10.2 6 10.2 7.7V80c0 2.6-1.7 3.3-4.2 3.6a55 55 0 0 0-18 4.8 11 11 0 0 0-4.3 4 14 14 0 0 0-.2 11.9c2 4.2 6.4 6.5 12.6 6.5 6.5 0 11.3-2.7 14.3-7.8v.6c.1 4.3 2.1 6.3 6.2 6.3l3.3-.5v-4zm-9.7-18v6.1c0 3.4-2.5 13-13.8 13-5.4 0-9.2-3.3-9.2-8 0-6.3 4.8-7.6 9.8-9a92.2 92.2 0 0 1 13.3-2.1m-73.7-36.4h-.5v58.8h23.4c12.6 0 20.1-6.3 20.1-16.8a14.4 14.4 0 0 0-11.3-14.4c5.2-1.6 8.7-6.3 8.7-12.5 0-9.5-6.8-15.1-18.2-15.1zm22.2 4.6c4.9 0 13 1.4 13 10.6 0 6.9-4.3 10.6-12.3 10.6h-18.2V55.5zm.7 26c5.6 0 15 1.4 15 11.3 0 10.6-9.4 12.2-15 12.2h-18.2V81.5h18.2"/><path d="M997.4 67.7L934.4 5l-83.8 83.5 83.8 83.5 36.8-78.2 26.2-26" fill="#fecb26"/><path d="M997.4 67.7l-26.2 26.1-36.8 78.2 83.8-83.5-20.8-20.8"/></svg>