<svg xmlns="http://www.w3.org/2000/svg" viewBox="0 0 1033.7 220.7"><path d="M1033.7 99.8V81.7h-22.5V53.4l-.8.2-21.2 6.5-.4.1v21.5h-33.5v-12c0-5.5 1.3-9.8 3.7-12.6a13 13 0 0 1 10.4-4.2c3.1 0 6.4.7 9.8 2.2l.8.4V36.3l-.4-.1a38.2 38.2 0 0 0-12.5-1.7c-6.6 0-12.6 1.4-17.8 4.3a30.4 30.4 0 0 0-12.2 12 36 36 0 0 0-4.3 17.7v13.2H917v18.1h15.8v76.6h22.5V99.8h33.5v48.7c0 20 9.4 30.2 28 30.2a46.1 46.1 0 0 0 16.7-3.3l.2-.1v-18.4l-.9.6c-1.2.8-2.7 1.5-4.5 2-1.8.5-3.3.8-4.5.8-4.3 0-7.6-1.2-9.6-3.5-2-2.4-3-6.5-3-12.2V99.8h22.5zm-167 60.5a24 24 0 0 1-19.3-8.1c-4.5-5.4-6.9-13-6.9-22.8 0-10 2.4-17.9 7-23.4 4.5-5.4 10.9-8.2 19-8.2 7.8 0 14 2.7 18.5 7.9s6.7 13 6.7 23.2c0 10.3-2.1 18.2-6.3 23.4-4.2 5.3-10.5 8-18.8 8m1-81c-15.6 0-28 4.7-36.9 13.7a51 51 0 0 0-13.3 37.1c0 14.9 4.4 26.8 13 35.5a47.2 47.2 0 0 0 35 13.1c15.1 0 27.3-4.6 36.1-13.8a50.9 50.9 0 0 0 13.3-36.8c0-15-4.2-27-12.5-35.7a46 46 0 0 0-34.7-13m-86.6 0a40.8 40.8 0 0 0-26.1 8 25.8 25.8 0 0 0-10.2 21c0 4.5.7 8.5 2.2 11.8 1.5 3.4 3.7 6.4 6.8 8.8 3 2.5 7.6 5 13.7 7.7 5.1 2.1 9 4 11.4 5.3 2.4 1.4 4 2.8 5 4.2 1 1.3 1.4 3 1.4 5.3 0 6.4-4.8 9.5-14.6 9.5a40 40 0 0 1-12.3-2.3 46.3 46.3 0 0 1-12.7-6.4l-.9-.6v21.7l.4.1a64.2 64.2 0 0 0 24.7 5.2c11.5 0 20.8-2.7 27.6-8.1a26.3 26.3 0 0 0 10.3-21.5c0-6.4-1.9-11.9-5.6-16.3-3.6-4.4-10-8.4-18.7-12-7-2.8-11.6-5.1-13.4-7a9.7 9.7 0 0 1-2.7-7.2c0-2.8 1.1-5 3.4-6.8 2.3-1.8 5.6-2.7 9.6-2.7a39.3 39.3 0 0 1 21.4 6.4l1 .6V83.5l-.4-.1a61.9 61.9 0 0 0-21.3-4M686 160.3a24 24 0 0 1-19.2-8.1c-4.6-5.4-7-13-7-22.8 0-10 2.4-17.9 7-23.4 4.5-5.4 11-8.2 19-8.2 7.8 0 14 2.7 18.5 7.9s6.8 13 6.8 23.2c0 10.3-2.2 18.2-6.4 23.4-4.2 5.3-10.5 8-18.7 8m1-81c-15.6 0-28 4.7-36.9 13.7a51 51 0 0 0-13.3 37.1c0 14.9 4.3 26.8 13 35.5a47.2 47.2 0 0 0 34.9 13.1c15.1 0 27.3-4.6 36.2-13.8a50.9 50.9 0 0 0 13.3-36.8c0-15-4.2-27-12.5-35.7a46 46 0 0 0-34.7-13M602.4 98V81.7h-22.3v94.7h22.3V128c0-8.2 1.9-15 5.6-20a17 17 0 0 1 14.4-7.7 26.2 26.2 0 0 1 11.9 3l1 .8V81.5l-.4-.2c-2.1-.8-5-1.3-8.8-1.3-5.6 0-10.6 1.8-14.9 5.4a30.2 30.2 0 0 0-8.6 12.7h-.2zm-62.2-18.7a55 55 0 0 0-27.1 6.5 44 44 0 0 0-17.9 18.4 58.6 58.6 0 0 0-.2 51.6 42 42 0 0 0 16.7 16.9c7.1 4 15.3 6 24.4 6 10.6 0 19.6-2.2 26.9-6.4l.3-.1v-20.5l-1 .7a41.9 41.9 0 0 1-21.6 7.8c-8.7 0-15.7-2.8-20.8-8.2-5.1-5.4-7.7-13-7.7-22.5 0-9.6 2.7-17.4 8-23.1a27.3 27.3 0 0 1 21-8.7c7.2 0 14.4 2.5 21.1 7.4l1 .7V84.4l-.3-.2c-2.6-1.4-6-2.6-10.3-3.5-4.3-.9-8.5-1.3-12.5-1.3m-66.5 2.3h-22.3v94.7h22.3V81.7zm-10.9-40.4c-3.7 0-6.9 1.2-9.5 3.7-2.6 2.5-4 5.6-4 9.3a12 12 0 0 0 4 9.1c2.6 2.4 5.8 3.7 9.5 3.7s7-1.3 9.6-3.7a12.5 12.5 0 0 0 .1-18.3 13.3 13.3 0 0 0-9.7-3.8m-55.6 33.4v101.7h22.7V44.2h-31.5l-40 98.2-38.8-98.2h-32.8v132.2h21.4V74.7h.7l41 101.7h16.2l40.3-101.7h.8z" fill="#706d6e"/><path d="M104.9 104.9H0V0h104.9v104.9z" fill="#f1511b"/><path d="M220.7 104.9h-105V0h105v104.9z" fill="#80cc28"/><path d="M104.9 220.7H0V115.8h104.9v104.9z" fill="#00adef"/><path d="M220.7 220.7h-105V115.8h105v104.9z" fill="#fbbc09"/></svg>