<svg viewBox="0 0 100 25" width="auto" height="auto" xmlns="http://www.w3.org/2000/svg"><path d="M24.4 3h6.2c2.3 0 3.8.1 5.1 1.5a5.2 5.2 0 0 1-.1 7.2c-1 1-2.3 1.6-5.6 1.6h-3v8.3h-2.6V3zm2.6 8.2h3c1.7 0 4.3-.1 4.3-3.2 0-2.9-2.4-2.9-3.8-2.9H27v6.1zm18.4 10.4c-.2-.6-.2-1.3-.2-1.9a4.2 4.2 0 0 1-4 2.3c-3 0-4.6-1.7-4.6-3.8 0-1 .4-2.7 2.3-3.8 1.4-.8 3.4-.8 4.5-.8l1.7.1c0-1.6 0-2.3-.5-2.9-.5-.6-1.5-.8-2.2-.8-2.4 0-2.6 1.7-2.6 2.2h-2.4c.1-.7.2-1.6.9-2.4 1-1.1 2.8-1.4 4.2-1.4 1.9 0 3.9.6 4.6 1.9.4.8.4 1.4.4 2l-.1 6.2c0 .2 0 1.9.2 3.2h-2.2zm-1.7-6.4c-1 0-4.7 0-4.7 2.6 0 .8.5 2.2 2.7 2.2 1.2 0 2.2-.5 2.8-1.4.5-.9.6-1.6.6-3.4h-1.4zM49.6 3H52v18.6h-2.4V3zm12.8 18.6c-.2-.6-.2-1.3-.2-1.9a4.2 4.2 0 0 1-4 2.3c-3 0-4.6-1.7-4.6-3.8 0-1 .4-2.7 2.3-3.8 1.4-.8 3.4-.8 4.5-.8l1.7.1c0-1.6 0-2.3-.5-2.9-.5-.6-1.5-.8-2.2-.8-2.4 0-2.6 1.7-2.6 2.2h-2.4c.1-.7.2-1.6.9-2.4 1-1.1 2.8-1.4 4.2-1.4 1.9 0 3.9.6 4.6 1.9.4.8.4 1.4.4 2l-.1 6.2c0 .2 0 1.9.2 3.2h-2.2zm-1.6-6.4c-1 0-4.7 0-4.7 2.6 0 .8.5 2.2 2.7 2.2 1.2 0 2.2-.5 2.8-1.4.5-.9.6-1.6.6-3.4h-1.4zm5.9-5V8.7h2.4v2.1c.3-.5 1.2-2.3 4.1-2.3 1.2 0 4.7.4 4.7 4.4v8.8h-2.5v-8.2c0-.8-.1-1.6-.7-2.2-.6-.6-1.5-.9-2.3-.9-1.8 0-3.4 1.3-3.4 3.9v7.4h-2.4V10.2zm12-1.5H81V5.9l2.4-.8v3.5h2.9v1.8h-2.9v7.7c0 .6 0 1.7 1.7 1.7l1.2-.1v1.9l-2 .2c-2.3 0-3.3-.7-3.3-2.8v-8.6h-2.3V8.7zM88 3h2.9v2.7H88V3zm.2 5.7h2.4v12.9h-2.4V8.7zm4.7 2.6l-.1-2.6h2.4l.1 2.5c.5-1.8 2-2.4 3.1-2.5l1.7-.1V11l-.5-.1h-.7c-2.9 0-3.5 1.7-3.5 3.9v6.9H93V11.3zM9.5.5C4.5.5.4 4.6.4 9.6s4.1 9.1 9.1 9.1 9.1-4.1 9.1-9.1S14.5.5 9.5.5zm0 15.4c-3.5 0-6.3-2.8-6.3-6.3S6 3.3 9.5 3.3s6.3 2.8 6.3 6.3a6.4 6.4 0 0 1-6.3 6.3zm8.1 2l-8.1 3.5-8.1-3.5L0 20.4l9.5 4 9.5-4-1.4-2.5z"/></svg>