<svg xmlns="http://www.w3.org/2000/svg" xmlns:xlink="http://www.w3.org/1999/xlink" viewBox="-1.33 -1.33 92.45 47.09"><defs><linearGradient x2=".96" id="a" gradientUnits="userSpaceOnUse" gradientTransform="rotate(-90 70.2 .3) scale(37.1015)"><stop offset="0" stop-color="#00b8f1"/><stop offset=".22" stop-color="#06a5e5"/><stop offset=".22" stop-color="#06a5e5"/><stop offset=".79" stop-color="#1870c5"/><stop offset="1" stop-color="#1d61bc"/></linearGradient><linearGradient x2=".96" id="b" xlink:href="#a" gradientUnits="userSpaceOnUse" gradientTransform="matrix(0 46.3769 46.3769 0 44.86 .02)"/></defs><path d="M0 0v44.41h45.37L89.78.02H0z" fill="url(#b)"/><path d="M57.47 39.88v3.3h.5v-1.43h.56l.9 1.44H60l-.97-1.44c.48-.06.88-.34.88-.94 0-.65-.4-.94-1.2-.94h-1.24zm.5.43h.69c.33 0 .72.06.72.47 0 .52-.4.56-.82.56h-.6v-1.03zm.62-1.65a2.89 2.89 0 1 0 0 5.78 2.87 2.87 0 0 0 2.88-2.9 2.85 2.85 0 0 0-2.88-2.88zm0 .47c1.3 0 2.32 1.04 2.32 2.4 0 1.39-1.02 2.4-2.32 2.4a2.35 2.35 0 0 1-2.37-2.4c0-1.36 1.06-2.4 2.37-2.4z" fill="#1870c5"/><path d="M53.8 21.25h-1.95v-7.12h1.95c2.6 0 4.66.86 4.66 3.52 0 2.74-2.07 3.6-4.66 3.6m-20.95 5.09a8.08 8.08 0 0 1-2.83-.5l2.8-8.84h.06l2.75 8.86a8.25 8.25 0 0 1-2.78.48M53.28 8.35h-8.84v21.02L36.72 8.35h-7.65l-6.6 17.57c-.7-4.43-5.28-5.96-8.88-7.1-2.38-.77-4.91-1.9-4.89-3.14.02-1.01 1.36-1.96 4-1.82 1.78.1 3.35.24 6.47 1.74l3.07-5.34a23.88 23.88 0 0 0-10.01-2.38h-.02c-3.76 0-6.9 1.23-8.84 3.24a7.48 7.48 0 0 0-2.11 5.15 6.92 6.92 0 0 0 3.03 6.17c1.77 1.3 4.02 2.13 6 2.75 2.46.76 4.47 1.42 4.45 2.83-.03.51-.22 1-.59 1.37-.6.64-1.55.87-2.85.9-2.5.05-4.36-.34-7.32-2.09l-2.72 5.43a20.39 20.39 0 0 0 10 2.66h.46c3.1-.06 5.6-.95 7.6-2.56l.33-.28-.88 2.38h8.02l1.35-4.1c1.4.47 3.01.74 4.71.74 1.66 0 3.23-.25 4.61-.7l1.3 4.06h13.1v-8.5h2.85c6.9 0 10.99-3.5 10.99-9.4 0-6.56-3.97-9.57-12.42-9.57" fill="#fff" fill-rule="evenodd"/></svg>