<svg xmlns="http://www.w3.org/2000/svg" viewBox="0 0 54.35 11.76"><path d="M52.92 7.25l1.08-.9V4.39l-2.02 1.65-1.22-1.57c.78-.5 1.5-1.07 1.5-2.21 0-1.2-.85-2.12-2.13-2.12-1.27 0-2.28.88-2.28 2.22 0 .82.33 1.34.68 1.8-.87.53-1.62 1.19-1.62 2.4 0 1.42 1.02 2.5 2.73 2.5.99 0 1.58-.4 2.02-.76l.5.63h2.06zM8.62 3.06V1.35h-1.1l-.76 1.4-1.04.66v.55h.87v3.6c0 .98.53 1.46 1.61 1.46.64 0 1.17-.13 2.07-.53v-.7s-.27.06-.55.06c-.83 0-1.1-.23-1.1-1.05V3.96h1.65v-.9zm17.1 0V1.35h-1.1l-.77 1.4-1.03.66v.55h.86v3.6c0 .98.53 1.46 1.62 1.46a5.2 5.2 0 0 0 2.13-.53v-.7s-.37.06-.62.06c-.83 0-1.1-.23-1.1-1.05V3.96h1.72v-.9zM50.1 1.65c.4 0 .58.31.58.66 0 .5-.31.77-.8 1.05-.24-.32-.43-.59-.43-1 0-.43.27-.71.65-.71M3.09 5.05c-.63-.26-.86-.46-.86-.8 0-.42.35-.69.91-.69a2 2 0 0 1 .9.23l.17.17.15.95h.88V3.06a9.85 9.85 0 0 0-2.33-.32C1.28 2.74.2 3.5.2 4.64c0 .85.56 1.32 2.5 2.13.6.24.78.42.78.77 0 .45-.35.71-.97.71-.38 0-.7-.06-1.23-.3l-.13-.15L1 6.7H.13v2.03c1.25.27 1.78.35 2.6.35 1.61 0 2.8-.85 2.8-2.01 0-.9-.47-1.29-2.44-2.02m12-2.24c-.65.38-1.04.71-1.63 1.34l.12-1.4h-.72l-2.2.74v.58h.89v4l-.13.16-.65.05v.65h3.88v-.65l-.92-.05-.15-.17V4.56l.3-.02c.58 0 .9.22 1.15.82h.86L16.24 3c-.28-.2-.45-.23-.95-.23l-.2.02m7.38 5.42l-.14-.17V5.32c0-1.2-.1-1.54-.53-1.96-.45-.41-1.16-.61-2.1-.61-1.73 0-3.1.66-3.1 1.51 0 .33.2.48.72.48h1.45V3.46c1.08 0 1.53.35 1.53 1.2V5c-2.03.45-2.9.7-3.3.98-.44.33-.7.83-.7 1.41 0 .99.72 1.67 1.76 1.67.65 0 1.23-.22 2.23-.83l.16.68h2.7v-.65zm8.3-5.47c-2.06 0-3.28 1.24-3.28 3.17 0 1.9 1.18 3.1 3.28 3.1 1.03 0 1.75-.2 2.81-.7V7.2a4.3 4.3 0 0 1-2.23.65c-1.14 0-1.71-.63-1.8-1.94h4.07v-.17c0-1.88-1-3-2.85-3m16.63.94v-.62h-2.58v.62l.65.1.11.15-1.24 3-1.3-3 .1-.15.7-.1v-.62h-5.15a4.47 4.47 0 0 0-1.7-.28c-1.77 0-2.87.81-2.87 2.13 0 .93.46 1.48 1.58 1.86-.57.4-.78.72-.78 1.13 0 .22.06.4.21.72-.81.02-1.3.47-1.3 1.22 0 1.1 1.05 1.72 2.9 1.72 2.16 0 3.73-.94 3.73-2.24 0-1.02-.9-1.47-3.48-1.72l-.53-.05a1.61 1.61 0 0 1-.05-.36c0-.13.01-.2.05-.37.23.04.38.04.58.04 1.83 0 2.93-.75 2.93-2.02 0-.36-.1-.72-.3-1.03h1.11l2.58 5.44c-.23.53-.51.9-.78 1.08l-.83-.91c-.43.13-.83.68-.83 1.2 0 .61.41 1.01 1 1.01.96 0 1.74-.96 2.4-2.46l2.42-5.38zM37.08 6.26c-.52 0-.83-.55-.83-1.44 0-.81.33-1.34.85-1.34.53 0 .84.48.84 1.26 0 .95-.33 1.52-.86 1.52m-5.53-1.12h-1.94c.03-1.15.33-1.63 1.01-1.63.65 0 .9.43.93 1.63m19.18 1.9c-.25.21-.62.45-1.07.45-.53 0-1-.37-1-.98 0-.59.27-.87.75-1.19zM20.3 5.83v1.82a2.4 2.4 0 0 1-.95.23c-.53 0-.88-.35-.88-.86 0-.44.22-.74.7-.94.28-.11.4-.13 1.13-.25m15.61 3l1.7.27c.55.08.85.31.85.73 0 .6-.48 1-1.2 1-.83 0-1.46-.57-1.46-1.34 0-.2.03-.41.11-.66" stroke-width=".35"/></svg>