<svg xmlns="http://www.w3.org/2000/svg" viewBox="0 0 283.47 283.46"><defs><style>.cls-2{fill:#fff}</style></defs><g id="Layer_2" data-name="Layer 2"><g id="Layer_1-2" data-name="Layer 1"><path fill="#d71638" d="M0 0h283.47v283.46H0z"/><path class="cls-2" d="M75.04 214.77h-5.55l-7.1 31.87-9.28-31.61-.08-.26h-5.55l-8.94 31.77-7.06-31.49-.07-.28h-5.82l9.42 41.28.07.28h6.23l8.9-32.12 9.09 31.86.07.26h6.08l9.53-41.32.06-.24zm146.07 26.02a14.58 14.58 0 0 1-1.88 7.9 6.61 6.61 0 0 1-2.55 2.38 8.67 8.67 0 0 1-4.09.91 5.64 5.64 0 0 1-3.35-1 6 6 0 0 1-1.66-1.79 11.57 11.57 0 0 1-1.47-3.91 21.17 21.17 0 0 1-.42-4.34 13.43 13.43 0 0 1 1.68-7 6.51 6.51 0 0 1 2.24-2.22 6.8 6.8 0 0 1 3.48-.85 8.19 8.19 0 0 1 3.7.8 7.21 7.21 0 0 1 3.27 3.59 13.66 13.66 0 0 1 1.05 5.48m5.58 8.23v-34.39h-5.46v14.5a12 12 0 0 0-2.73-1.86 13.43 13.43 0 0 0-6-1.4 12.13 12.13 0 0 0-5.83 1.39 11.92 11.92 0 0 0-5.22 6 20.73 20.73 0 0 0-1.54 8.12 19.44 19.44 0 0 0 2.81 10.5 11.42 11.42 0 0 0 3.94 3.77 11.59 11.59 0 0 0 5.84 1.47 12.37 12.37 0 0 0 8.79-3.54l.11 2.72h5.6l-.1-2.25c-.1-1.55-.21-3.3-.21-5M91.1 251a8.12 8.12 0 0 1-7.62 0 8.57 8.57 0 0 1-3.48-4.12 14 14 0 0 1-1.12-5.48 12.91 12.91 0 0 1 2-7.12 7.73 7.73 0 0 1 2.58-2.46 8.12 8.12 0 0 1 7.62 0 8.55 8.55 0 0 1 3.48 4.09 13.88 13.88 0 0 1 1.12 5.49 13 13 0 0 1-2 7.12A7.7 7.7 0 0 1 91.1 251m2.48-23.83a15.12 15.12 0 0 0-12.58 0 13.17 13.17 0 0 0-6 6 18.26 18.26 0 0 0-1.9 8.27A17.23 17.23 0 0 0 76.54 252a12.7 12.7 0 0 0 4.46 3.65 15.15 15.15 0 0 0 12.59 0 13.19 13.19 0 0 0 6-6 18.26 18.26 0 0 0 1.9-8.27A17.22 17.22 0 0 0 98 230.75a12.6 12.6 0 0 0-4.45-3.61m32.93 14.43a13.23 13.23 0 0 1-2 7.11 7.76 7.76 0 0 1-2.59 2.46 8.12 8.12 0 0 1-7.62 0 8.59 8.59 0 0 1-3.48-4.08 14.1 14.1 0 0 1-1.12-5.49 13.15 13.15 0 0 1 2-7.12 7.83 7.83 0 0 1 10.2-2.46 8.54 8.54 0 0 1 3.48 4.1 13.87 13.87 0 0 1 1.12 5.48m-2.12-14.26a15.12 15.12 0 0 0-12.58 0 13.17 13.17 0 0 0-6 6 18.26 18.26 0 0 0-1.9 8.27 17.23 17.23 0 0 0 3.41 10.64 12.74 12.74 0 0 0 4.46 3.61 15.12 15.12 0 0 0 12.58 0 13.21 13.21 0 0 0 6-6 18.22 18.22 0 0 0 1.9-8.26 17.36 17.36 0 0 0-3.41-10.65 12.61 12.61 0 0 0-4.46-3.61m31.51 13.6a14.66 14.66 0 0 1-1.86 7.89 6.88 6.88 0 0 1-2.56 2.39 8.64 8.64 0 0 1-4.09.9 5.67 5.67 0 0 1-3.34-1 6.14 6.14 0 0 1-1.67-1.79 12 12 0 0 1-1.47-3.92 22 22 0 0 1-.42-4.34 13.42 13.42 0 0 1 1.68-7 6.42 6.42 0 0 1 2.24-2.22 6.81 6.81 0 0 1 3.49-.85 8.12 8.12 0 0 1 3.69.8 7.19 7.19 0 0 1 3.27 3.58 13.54 13.54 0 0 1 1.05 5.49m5.58 8.23V214.7H156v14.5a11.71 11.71 0 0 0-2.72-1.87 13.52 13.52 0 0 0-6-1.39 11.43 11.43 0 0 0-11.05 7.39 20.78 20.78 0 0 0-1.54 8.13A19.53 19.53 0 0 0 137.5 252a11.48 11.48 0 0 0 3.93 3.77 11.79 11.79 0 0 0 5.85 1.47 12.44 12.44 0 0 0 5.92-1.45 11.94 11.94 0 0 0 2.87-2.1l.11 2.72h5.61l-.12-1.93a80.89 80.89 0 0 1-.23-5.3m21.79-9.42c-2.32-.81-4.41-1.32-6.28-1.79a54.2 54.2 0 0 1-3.12-.84 6.39 6.39 0 0 1-2.31-1.13 1.69 1.69 0 0 1-.46-.64 2.29 2.29 0 0 1-.17-.92 2.78 2.78 0 0 1 .4-1.52 3.59 3.59 0 0 1 1.88-1.4 8.92 8.92 0 0 1 3-.48 8.3 8.3 0 0 1 4.08.87 3.3 3.3 0 0 1 1.21 1.09 3.57 3.57 0 0 1 .56 1.7l.09.94h5.74l-.08-1.11a9.66 9.66 0 0 0-1.17-4.08 8.23 8.23 0 0 0-4.27-3.56 16.25 16.25 0 0 0-5.86-.95 14.63 14.63 0 0 0-7.47 1.86 7.71 7.71 0 0 0-3.81 6.86 7.34 7.34 0 0 0 .91 3.67 6.84 6.84 0 0 0 1.68 1.93 11.73 11.73 0 0 0 3.36 1.77 38.87 38.87 0 0 0 3.79 1.05l.81.18a24.48 24.48 0 0 1 5.09 1.43 4.28 4.28 0 0 1 1.62 1.18 2.82 2.82 0 0 1 .55 1.78 3.62 3.62 0 0 1-.51 1.95 4.55 4.55 0 0 1-2.29 1.85 9.42 9.42 0 0 1-3.51.64 9.7 9.7 0 0 1-4.66-1 4 4 0 0 1-1.4-1.3 4.29 4.29 0 0 1-.64-2.08l-.06-1h-5.7v1.07a9 9 0 0 0 1.15 4.36 9.27 9.27 0 0 0 4.61 3.87 15.1 15.1 0 0 0 5.88 1.13 16 16 0 0 0 8.72-2.36 9.2 9.2 0 0 0 3-3.15 8.93 8.93 0 0 0 1.16-4.53 7.61 7.61 0 0 0-1.5-4.57 8.14 8.14 0 0 0-4-2.83m7.99-24.92h6.02v6.2h-6.02zm.28 12.06h5.47v29.61h-5.47zm47.04 6.51a7 7 0 0 1 2.32-1.81 7.43 7.43 0 0 1 3.17-.67 8.73 8.73 0 0 1 3.42.63 6.84 6.84 0 0 1 3.28 2.89 10.52 10.52 0 0 1 1.24 3.72h-15.57a10.18 10.18 0 0 1 2.14-4.76m13.34 12.9a7.41 7.41 0 0 1-2.5 4 7.1 7.1 0 0 1-4.56 1.63 9.6 9.6 0 0 1-4-.76 7.17 7.17 0 0 1-3.51-3.47 11.74 11.74 0 0 1-1.14-4.48h21.66v-1.05c0-4.85-1-8.72-3.09-11.51a11.23 11.23 0 0 0-4.37-3.59 15 15 0 0 0-6.42-1.29 13.21 13.21 0 0 0-6 1.34 13.06 13.06 0 0 0-5.76 5.94 18.7 18.7 0 0 0-1.88 8.35 18 18 0 0 0 3.22 10.73 11.86 11.86 0 0 0 4.21 3.56 13 13 0 0 0 5.94 1.33 14.52 14.52 0 0 0 8.88-2.54 13.74 13.74 0 0 0 4.86-7.83l.1-.4zM225.44 60.8c-9.16-7.68-40 19.72-52.56 31.89 3.31 23.38-1.06 42.11-12.75 60.05a50.18 50.18 0 0 1-3.93 5.26c12.51 1.58 31.27-9.83 54-41.9 12.72-17.9 26.19-46.1 15.24-55.3M124.15 172.1c-19.11-3.76-22.72-24.89-21.61-44.94 0-.67 0-1.35.07-2-16-12.46-37.94-27-45-20.36-10.89 10.27 4.93 39 19.3 56.9 32.45 40.46 56.26 47.09 67.67 36.16 3.75-3.6 6.83-13.16-1.74-29.21l-.46.23c-7.3 3.54-14.18 4.06-18.23 3.26"/><path class="cls-2" d="M172.88 92.69c-4.4-26.89-22.23-57.43-36.3-56.72-14.72.74-32.44 53.49-34 89.15 9 7 16.21 13.43 17.71 14.92 11.22 11.14 18.29 20.65 22.52 28.57A42.81 42.81 0 0 0 156.2 158a15.8 15.8 0 0 1-8.39-3.68c-5.65-4.81-10.6-22.36 19.88-56.4.65-.73 2.51-2.63 5.19-5.22"/></g></g></svg>