<svg xmlns="http://www.w3.org/2000/svg" width="440" height="142.8" version="1"><g fill="#e72024"><path d="M114.8 96.5a48.2 48.2 0 1 1 0-23.6H95.3a29 29 0 0 0-26.8-17.5 29.2 29.2 0 1 0 0 58.6c12 0 22.3-7.2 26.8-17.5m71-60a48.2 48.2 0 1 0 .1 96.4 48.2 48.2 0 0 0 0-96.4m0 77.2a29 29 0 1 1 0-58 29 29 0 0 1 0 58" fill-rule="evenodd"/><path d="M220.7 10v122.8h21.1V10h-21.1z"/><path d="M297.4 114.3c-14.8 0-27.1-10.9-27.2-24l.1-1.4h69.3c0-38.2-19.7-52.5-44-52.5-18.7 0-45.8 12-45.7 47.7 0 29.6 21.4 48.7 45.7 48.7 21 0 38.7-12.6 43-33.5h-19.4c-3 9.5-11.4 15-21.8 15m-2-61c12.1 0 22.2 8.6 23.7 19.3l-47.1-.1-.5.2c1.3-10.9 11.5-19.3 23.8-19.3M399 66.8h18.3s.9-16.4-12.8-24.6c0 0-6.5-5.9-24.5-5.8 0 0-18.2-.3-26.5 8 0 0-8.5 6.4-8.6 19 0 0-1.5 12.3 10.5 20 0 0 9.7 4.6 19.1 7.3 0 0 15.3 4.2 17.8 5.7 0 0 13.1 6 5.3 13.7 0 0-3.5 4.9-15.4 5 0 0-20.8.7-20.8-15.2h-18.6s-1.7 16.9 12.6 26.2c0 0 9.1 6.3 26.9 6.1 0 0 17-.2 26.1-6.7 0 0 11.7-8.4 11.7-22.6 0 0 1.4-14.7-17-22.9 0 0-18.6-6.3-23.4-7.5 0 0-18.3-4-14.6-13.3 0 0 .8-6.2 15.5-6.2 0 0 10.4-.2 14.9 5.6 0 0 3 3.6 3.5 8.2" fill-rule="evenodd"/></g></svg>