<svg xmlns="http://www.w3.org/2000/svg" viewBox="0 0 1000 205.1"><path d="M533.7 99.7c-8.6 0-14.7 2.8-21 5.6V170a136.8 136.8 0 0 0 15.1.6c20.6 0 23.4-9.4 23.4-22.6v-30.9c0-9.7-3.2-17.4-17.5-17.4zM397.2 96c-14.2 0-17.5 7.9-17.5 17.5v5.5h35v-5.5c0-9.6-3.2-17.5-17.5-17.5zM133 163.5c0 7.6 3.6 11.6 11.6 11.6 8.6 0 13.7-2.8 20-5.6V154h-18.8c-8.9 0-12.8 1.7-12.8 9.4zm533.5-63.9c-14.3 0-19.2 7.8-19.2 17.5v35.4c0 9.8 5 17.6 19.2 17.6s19.2-7.8 19.2-17.6v-35.4c0-9.7-5-17.5-19.2-17.5zM63 203.3H21V101.6H0v-35h21v-21C21 17 32.8 0 66.5 0h28v35H77c-13.1 0-14 4.9-14 14v17.5h31.7l-3.8 35H63v101.6zm143.4.2h-35l-1.5-8.8a80.2 80.2 0 0 1-39.6 10.3c-25.7 0-39.3-17.2-39.3-40.9 0-28 16-38 44.4-38h29v-6c0-14.2-1.6-18.4-23.6-18.4H105l3.5-35h39.3c48.1 0 58.7 15.2 58.7 53.8v83zm119-99.3c-21.7-3.7-28-4.5-38.4-4.5-18.9 0-24.6 4.1-24.6 20.1V150c0 16 5.7 20.2 24.6 20.2 10.4 0 16.7-.9 38.4-4.6v34.1c-19 4.3-31.4 5.4-42 5.4-45 0-63-23.7-63-57.9v-24.5c0-34.3 18-58 63-58 10.5 0 23 1.1 42 5.4zm131.4 43h-77v2.9c0 16 5.7 20.1 24.5 20.1 16.9 0 27.2-.8 49-4.6v34.2c-21 4.2-31.9 5.4-52.5 5.4-45 0-63-23.7-63-58v-28c0-30 13.3-54.5 59.5-54.5s59.5 24.3 59.5 54.5v28zm136.4.7c0 33-9.4 57.2-66.7 57.2-20.7 0-32.8-1.8-55.7-5.3V10.5l42-7v66.2c9.1-3.4 20.8-5.1 31.5-5.1 42 0 49 18.8 49 49v34.2zm134.5.7c0 28.5-11.7 56.2-61 56.2s-61.5-27.7-61.5-56.2v-27.6c0-28.5 12-56.2 61.4-56.2s61 27.7 61 56.2zm134.4 0c0 28.5-11.8 56.2-61 56.2s-61.5-27.7-61.5-56.2v-27.6c0-28.5 12-56.2 61.4-56.2s61 27.7 61 56.2zm137.9 54.7h-45.5L916 139v64.2h-42V10.5l42-7v124l38.5-61h45.5l-42 66.6zM800.8 99.7c-14.2 0-19.2 7.7-19.2 17.4v35.4c0 9.8 5 17.6 19.2 17.6s19.3-7.8 19.3-17.6v-35.4c0-9.7-5-17.5-19.3-17.5z" fill="#3b5998" data-name="Layer 2"/></svg>