<svg xmlns="http://www.w3.org/2000/svg" width="892.91" height="244.13"><defs><clipPath id="a"><path d="M456.05 41.99h103.22v27.62H456.05V41.99z"/></clipPath></defs><path d="M340.47 65.92h12.48V40.98h-12.48v24.94zm0 137.22h12.48V78.39h-12.48v124.75zm93.56-13.86l-49.9-110.89h-12.47l56.13 124.75h12.49L496.4 78.4h-12.47l-49.9 110.89z"/><path d="M738.09 178.19L783.4 74.66l45.17 103.53h-90.5zM802.03 3.57h-12.47l-12.47 28.51-74.86 171.06h187.14L802.03 3.58z" fill="#e95f40"/><g clip-path="url(#a)" transform="matrix(8.58147 0 0 -8.58147 -3910.04 600.9)"><path d="M528.02 56.53a4.36 4.36 0 0 0 4.36 4.36h4.36v-1.46h-4.36a2.9 2.9 0 0 1-2.9-2.9V46.35h-1.46v10.18zm-61.05-5.83c0-1.61-1.3-2.91-2.91-2.91h-3.65a2.9 2.9 0 0 0-2.9 2.9v5.84c0 1.6 1.3 2.9 2.92 2.9h3.63c1.6 0 2.9-1.3 2.9-2.9V50.7zm1.45 5.83a4.36 4.36 0 0 1-4.36 4.36h-3.63a4.36 4.36 0 0 1-4.37-4.36l-.01-5.83a4.36 4.36 0 0 1 4.36-4.36h3.65a4.36 4.36 0 0 1 4.36 4.36v5.83zm12.36-5.82a2.9 2.9 0 0 0-2.9-2.9h-5.82v11.63h5.81a2.9 2.9 0 0 0 2.9-2.91V50.7zm1.45 5.82a4.36 4.36 0 0 1-4.36 4.36h-7.27v-18.9h1.46v4.36h5.81a4.36 4.36 0 0 1 4.36 4.36v5.82zm4.36-5.82c0-1.6 1.3-2.9 2.9-2.9h3.64v-1.46h-3.63a4.36 4.36 0 0 0-4.36 4.36v8.72h-1.46v1.46h1.46v2.9h1.45v-2.9h5.4l-.65-1.46h-4.75v-8.72zm29.07 5.82a2.9 2.9 0 0 0 2.91 2.9h3.02-.11c1.6 0 2.9-1.3 2.9-2.9v-1.46h-8.72v1.46zm8.73-5.82c0-1.6-1.3-2.9-2.91-2.9h-2.9a2.9 2.9 0 0 0-2.92 2.9v2.9h10.18v2.92a4.36 4.36 0 0 1-4.36 4.36h-2.9a4.36 4.36 0 0 1-4.37-4.36V50.7a4.36 4.36 0 0 1 4.36-4.36h2.9a4.36 4.36 0 0 1 4.37 4.36h-1.45z"/></g></svg>