<?xml version="1.0" encoding="utf-8"?>
<!-- Generator: Adobe Illustrator 22.0.1, SVG Export Plug-In . SVG Version: 6.00 Build 0)  -->
<svg version="1.1" id="Logo" xmlns="http://www.w3.org/2000/svg" xmlns:xlink="http://www.w3.org/1999/xlink" x="0px" y="0px"
	 viewBox="0 0 116.2 116.2" style="enable-background:new 0 0 116.2 116.2;" xml:space="preserve">
<style type="text/css">
	.st0{fill:#094183;}
	.st1{fill:#FFFFFF;}
</style>
<g>
	<rect x="0" y="0" class="st0" width="116.2" height="116.2"/>
	<g>
		<g>
			<g>
				<g>
					<g>
						<path class="st1" d="M13,77.3c0,0-0.2,0.8-0.2,0.9c0,0.1,0.1,0.1,0.1,0.1c0.1,0,0.1-0.1,0.1-0.1c0,0,0.1-0.2,0.1-0.2
							c0.1-0.2,0.3-0.2,0.8-0.2c0,0,0.9,0,1.2,0c0,0.1,0,3.5,0,3.5c0,0.8,0,1.5,0,1.8c0,0.2-0.1,0.4-0.2,0.4c0,0-0.2,0-0.2,0
							c-0.1,0-0.1,0.1-0.1,0.1c0,0.1,0.1,0.1,0.2,0.1l0.7,0l0.1,0l0.1,0l0.9,0c0.2,0,0.2-0.1,0.2-0.1c0-0.1,0-0.1-0.1-0.1l-0.4,0
							c-0.2,0-0.2-0.2-0.3-0.4c0-0.3,0-1,0-1.8c0,0,0-3.3,0-3.5c0.1,0,1,0,1,0c0.8,0,0.9,0.2,1,0.4l0,0.1c0,0.1,0,0.2,0.1,0.2
							c0,0,0.1,0,0.1-0.2l0-0.3l0-0.7c0,0,0-0.2-0.1-0.2l-0.1,0c-0.1,0-0.3,0.1-0.7,0.1h-3.1l-0.7,0c0,0-0.3-0.1-0.3-0.1l-0.1,0
							C13,77.1,13,77.2,13,77.3z"/>
					</g>
					<g>
						<path class="st1" d="M24.2,77.2l-0.1,0l-0.1,0l-0.8,0c0,0-0.2,0-0.2,0.1c0,0.1,0.1,0.1,0.1,0.1l0.3,0c0.2,0.1,0.3,0.1,0.3,0.4
							l0,1.8v0.2l-3.5,0l0-0.2l0-1.8c0-0.3,0.1-0.4,0.3-0.4l0,0l0.2,0c0.1,0,0.1,0,0.1-0.1c0-0.1-0.1-0.1-0.2-0.1l-0.7,0l-0.1,0
							l-0.1,0l-0.8,0c-0.1,0-0.2,0-0.2,0.1c0,0.1,0.1,0.1,0.1,0.1l0.3,0c0.2,0.1,0.3,0.1,0.3,0.4c0,0,0,1.8,0,1.8v1.5
							c0,0.8,0,1.5,0,1.8c0,0.2-0.1,0.4-0.2,0.4c0,0-0.2,0-0.2,0c-0.1,0-0.1,0.1-0.1,0.1c0,0.1,0.1,0.1,0.2,0.1l0.7,0l0.1,0l0.1,0
							l0.9,0c0.2,0,0.2-0.1,0.2-0.1c0-0.1,0-0.1-0.1-0.1l-0.4,0c-0.2,0-0.2-0.2-0.3-0.4c0-0.3,0-1,0-1.8v-0.9l3.5,0l0,0.9
							c0,0.8,0,1.5,0,1.8c0,0.2-0.1,0.4-0.2,0.4c0,0-0.2,0-0.2,0c-0.1,0-0.1,0.1-0.1,0.1c0,0.1,0.1,0.1,0.2,0.1l0.7,0l0.1,0l0.1,0
							l0.9,0c0.2,0,0.2-0.1,0.2-0.1c0-0.1,0-0.1-0.1-0.1l-0.4,0c-0.2,0-0.2-0.2-0.3-0.4c0-0.3,0-1,0-1.8v-1.5l0-1.8
							c0-0.3,0.1-0.4,0.3-0.4l0,0l0.2,0c0.1,0,0.1,0,0.1-0.1c0-0.1-0.1-0.1-0.2-0.1L24.2,77.2z"/>
					</g>
					<g>
						<path class="st1" d="M29.6,77.1L29.6,77.1l-0.4,0.1c0,0-1.9,0-1.9,0l-0.1,0l-0.8,0c0,0-0.2,0-0.2,0.1c0,0.1,0.1,0.1,0.1,0.1
							l0.3,0c0.2,0.1,0.3,0.1,0.3,0.4l0,1.8v1.5c0,0.8,0,1.5,0,1.8c0,0.2-0.1,0.4-0.2,0.4c0,0-0.2,0-0.2,0c-0.1,0-0.1,0.1-0.1,0.1
							c0,0.1,0.1,0.1,0.2,0.1l0.7,0l0.1,0l0.3,0l1.7,0c0.3,0,0.4,0,0.5-0.3c0-0.2,0.1-0.8,0.1-0.8c0-0.1,0-0.2-0.1-0.2
							c-0.1,0-0.1,0.1-0.1,0.2c-0.1,0.3-0.1,0.5-0.3,0.6c-0.2,0.1-0.6,0.1-0.8,0.1c-0.8,0-0.9-0.1-0.9-0.6l0-1.1l0-0.4v-0.7
							c0,0,1.2,0,1.2,0c0.3,0,0.4,0.1,0.4,0.2c0,0,0,0.3,0,0.3c0,0.1,0.1,0.1,0.1,0.1c0.1,0,0.1-0.1,0.1-0.2l0-0.5l0.1-0.5
							c0-0.1-0.1-0.1-0.1-0.1l-0.2,0.1C29.3,79.9,29.2,80,29,80l-1.3,0l0-2.3c0.1,0,1,0,1.1,0c0.5,0.1,0.5,0.1,0.5,0.2
							c0,0,0,0.3,0,0.3c0,0.2,0.1,0.2,0.1,0.2c0,0,0.1,0,0.1-0.1c0,0,0-0.4,0-0.4l0-0.1c0,0,0.1-0.3,0.1-0.3l0-0.1
							C29.7,77.1,29.7,77.1,29.6,77.1L29.6,77.1z"/>
					</g>
					<g>
						<path class="st1" d="M39.1,77.2l-0.1,0l-0.1,0l-0.8,0c0,0-0.2,0-0.2,0.1c0,0.1,0.1,0.1,0.1,0.1l0.3,0c0.2,0.1,0.3,0.2,0.3,0.4
							c0,0,0,1.8,0,1.8v1c0,1-0.1,1.6-0.5,2c-0.3,0.4-0.8,0.6-1.3,0.6c-0.5,0-0.8-0.1-1.2-0.4c-0.3-0.3-0.6-0.8-0.6-2v-1.2l0-1.8
							c0-0.3,0.1-0.4,0.3-0.4c0,0,0.2,0,0.2,0c0.1,0,0.1,0,0.1-0.1c0-0.1-0.1-0.1-0.2-0.1l-0.6,0l-0.2,0l-0.2,0l-0.8,0
							c0,0-0.2,0-0.2,0.1c0,0.1,0.1,0.1,0.1,0.1l0.3,0c0.2,0,0.3,0.1,0.3,0.4l0,1.8v1.2c0,1.4,0.4,1.9,0.7,2.2
							c0.6,0.5,1.3,0.6,1.8,0.6c0.5,0,1.1-0.1,1.8-0.6c0.7-0.6,0.8-1.7,0.8-2.5v-0.9l0-1.8c0-0.3,0.1-0.4,0.3-0.4c0,0,0.2,0,0.2,0
							c0.1,0,0.1,0,0.1-0.1c0-0.1-0.1-0.1-0.2-0.1L39.1,77.2z"/>
					</g>
					<g>
						<path class="st1" d="M41.3,77.6l0,4.8c0,0.7,0,1-0.2,1c0,0-0.3,0-0.3,0c-0.1,0-0.1,0.1-0.1,0.1c0,0.1,0.1,0.1,0.2,0.1l0.7,0
							l0.1,0l0.1,0l0.8,0c0.1,0,0.2,0,0.2-0.1c0-0.1,0-0.1-0.1-0.1l-0.4,0c-0.2-0.1-0.3-0.2-0.3-0.9c0,0-0.1-3.5-0.1-3.8
							c0.2,0.2,2.1,2.3,2.1,2.3c0.9,1,2.1,2.2,2.2,2.3c0.5,0.5,0.6,0.6,0.7,0.6c0.1,0,0.1-0.1,0.1-0.7c0,0,0-4.9,0-4.9
							c0-0.5,0-0.6,0.3-0.7c0,0,0.2,0,0.2,0c0.1,0,0.2-0.1,0.2-0.1c0-0.1-0.1-0.1-0.2-0.1l-0.6,0l-0.2,0l-0.2,0l-0.7,0
							c-0.1,0-0.2,0-0.2,0.1c0,0.1,0,0.1,0.1,0.1l0.4,0c0.2,0.1,0.3,0.2,0.3,0.7c0,0,0.1,3.3,0.1,4.1c-0.2-0.2-0.6-0.7-0.6-0.7
							l-1.3-1.4l-2.7-2.9c-0.1-0.1-0.2-0.2-0.3-0.2C41.3,77.1,41.3,77.3,41.3,77.6z"/>
					</g>
					<g>
						<path class="st1" d="M49.9,77.2l-0.1,0l-0.1,0l-0.7,0c0,0-0.2,0-0.2,0.1c0,0.1,0.1,0.1,0.1,0.1l0.2,0c0.1,0,0.2,0.1,0.2,0.4
							c0,0,0,1.8,0,1.8v1.5c0,0.8,0,1.5,0,1.8c0,0.3-0.1,0.4-0.2,0.4c0,0-0.2,0-0.2,0c-0.1,0-0.1,0.1-0.1,0.1c0,0.1,0.1,0.1,0.2,0.1
							l0.7,0l0.1,0l0.1,0l0.9,0c0.2,0,0.2-0.1,0.2-0.1c0-0.1,0-0.1-0.1-0.1l-0.4,0c-0.2,0-0.2-0.2-0.3-0.4c0-0.3,0-1,0-1.8v-1.5
							l0-1.8c0-0.3,0.1-0.4,0.3-0.4c0,0,0.2,0,0.2,0c0.1,0,0.1,0,0.1-0.1c0-0.1-0.2-0.1-0.2-0.1L49.9,77.2z"/>
					</g>
					<g>
						<path class="st1" d="M57.4,77.2l-0.1,0l-0.2,0l-0.6,0c-0.1,0-0.2,0-0.2,0.1c0,0,0,0.1,0.2,0.1l0.3,0c0.1,0,0.1,0.1,0.1,0.1
							l-0.1,0.3c-0.2,0.6-1.2,3.3-1.7,4.5c-0.1-0.3-1.6-4.1-1.6-4.1c-0.1-0.3-0.2-0.6-0.2-0.7l0,0c0,0,0-0.1,0.1-0.1l0.3,0
							c0.1,0,0.1-0.1,0.1-0.1c0-0.1-0.2-0.1-0.3-0.1l-0.6,0l-0.2,0l-0.2,0l-0.8,0c-0.1,0-0.3,0-0.3,0.1c0,0.1,0,0.1,0.1,0.1l0.3,0
							c0.3,0.1,0.4,0.1,0.6,0.6l2.1,5.2c0.2,0.4,0.2,0.5,0.3,0.5c0.1,0,0.1-0.1,0.3-0.4l0.1-0.3l1-2.4l0.5-1.2l0.5-1.2
							c0.2-0.6,0.3-0.7,0.4-0.8c0.1-0.1,0.3-0.1,0.4-0.1c0.1,0,0.2-0.1,0.2-0.1c0-0.1-0.1-0.1-0.2-0.1L57.4,77.2z"/>
					</g>
					<g>
						<path class="st1" d="M62,77.1L62,77.1l-0.4,0.1c0,0-1.9,0-1.9,0l-0.1,0l-0.8,0c0,0-0.2,0-0.2,0.1c0,0.1,0.1,0.1,0.1,0.1l0.3,0
							c0.2,0,0.3,0.1,0.3,0.4c0,0,0,1.8,0,1.8v1.5c0,0.8,0,1.5,0,1.8c0,0.2-0.1,0.4-0.2,0.4c0,0-0.2,0-0.2,0c-0.1,0-0.1,0.1-0.1,0.1
							c0,0.1,0.1,0.1,0.2,0.1l0.7,0l0.1,0l0.3,0l1.7,0c0.3,0,0.4,0,0.5-0.3c0-0.2,0.1-0.8,0.1-0.8c0-0.1,0-0.2-0.1-0.2
							c-0.1,0-0.1,0.1-0.1,0.2c-0.1,0.3-0.1,0.5-0.3,0.6c-0.2,0.1-0.6,0.1-0.8,0.1c-0.8,0-0.9-0.1-0.9-0.6l0-1.1l0-0.4v-0.7
							c0,0,1.2,0,1.2,0c0.3,0,0.4,0.2,0.4,0.2l0,0.3c0,0.1,0,0.1,0.1,0.1c0.1,0,0.1-0.1,0.1-0.2l0-0.5c0,0,0.1-0.5,0.1-0.5
							c0-0.1-0.1-0.1-0.1-0.1l-0.2,0.1c-0.1,0.1-0.2,0.1-0.4,0.1l-1.3,0l0-2.3c0,0,1.1,0,1.1,0c0.5,0,0.5,0.2,0.5,0.2
							c0,0,0,0.3,0,0.3c0,0.2,0.1,0.2,0.1,0.2c0,0,0.1,0,0.1-0.1c0,0,0-0.4,0-0.4l0-0.2l0.1-0.4C62.1,77.1,62.1,77.1,62,77.1
							L62,77.1z"/>
					</g>
					<path class="st1" d="M65,80.5C65,80.4,65,80.4,65,80.5l0-2.8c0,0,0,0,0,0c0.1,0,0.3,0,0.5,0c0.9,0,1.4,0.6,1.4,1.6
						c0,0.6-0.2,1-0.5,1.2c-0.2,0.1-0.4,0.1-0.6,0.1C65.4,80.6,65.1,80.5,65,80.5z M64.9,77.2l-0.3,0l-0.1,0l-0.8,0
						c0,0-0.2,0-0.2,0.1c0,0.1,0.1,0.1,0.1,0.1l0.3,0c0.2,0,0.3,0.1,0.3,0.4l0,1.8v1.5c0,0.8,0,1.5,0,1.8c0,0.2-0.1,0.4-0.2,0.4
						c0,0-0.2,0-0.2,0c-0.1,0-0.1,0.1-0.1,0.1c0,0.1,0.1,0.1,0.2,0.1l0.8,0c0,0,0.1,0,0.1,0l0.9,0c0.2,0,0.2-0.1,0.2-0.1
						c0-0.1,0-0.1-0.1-0.1l-0.4,0c-0.2,0-0.2-0.2-0.3-0.4c0-0.3,0-1,0-1.8v-0.2c0,0,1,0,1,0c0,0,0.1,0,0.1,0c0,0,0.3,0.4,0.3,0.4
						l0.6,0.8l0.1,0.1c0.4,0.6,0.7,0.9,1,1.1c0.2,0.1,0.5,0.2,0.9,0.2h0.6c0.1,0,0.3,0,0.3-0.1c0-0.1-0.1-0.1-0.1-0.1l-0.3,0
						c-0.2,0-0.6-0.1-1-0.6c-0.4-0.5-0.9-1.1-1.5-1.9c0,0-0.1-0.1-0.2-0.2c0.7-0.6,1-1.3,1-1.9c0-0.6-0.4-1-0.6-1.2
						c-0.5-0.3-1.1-0.4-1.6-0.4L64.9,77.2z"/>
					<g>
						<path class="st1" d="M70.3,78.6c0,0.6,0.2,1.1,1.1,1.9l0.4,0.3c0.7,0.6,0.9,0.9,0.9,1.5c0,0.5-0.4,1-1.1,1
							c-0.3,0-1-0.1-1.2-0.8l0-0.3c0,0,0-0.2-0.1-0.2c-0.1,0-0.1,0.1-0.1,0.2c0,0,0,0.1,0,0.1l0,0.8c0,0.2,0,0.3,0.2,0.4h0
							c0.3,0.2,0.7,0.2,1.1,0.2c0.5,0,1-0.1,1.3-0.4c0.5-0.4,0.7-1,0.7-1.4c0-0.7-0.2-1.2-1.2-2l-0.2-0.2c-0.8-0.7-1-0.9-1-1.4
							c0-0.5,0.4-0.9,1-0.9c0.7,0,0.9,0.3,1,0.4c0,0.1,0.1,0.3,0.1,0.4c0,0.1,0,0.2,0.1,0.2c0.1,0,0.1-0.2,0.1-0.3l0-0.8l0-0.1
							c0-0.1-0.1-0.1-0.1-0.1l-0.3,0c-0.2-0.1-0.5-0.1-0.8-0.1C71,77.1,70.3,77.7,70.3,78.6z"/>
					</g>
					<g>
						<path class="st1" d="M75.9,77.2l-0.1,0l-0.1,0l-0.7,0c-0.1,0-0.2,0-0.2,0.1c0,0.1,0.1,0.1,0.1,0.1l0.2,0
							c0.1,0,0.2,0.1,0.2,0.4l0,1.8v1.5c0,0.8,0,1.5,0,1.8c0,0.2-0.1,0.4-0.2,0.4c0,0-0.2,0-0.2,0c-0.1,0-0.1,0.1-0.1,0.1
							c0,0.1,0.1,0.1,0.2,0.1l0.7,0l0.1,0l0.1,0l0.9,0c0.2,0,0.2-0.1,0.2-0.1c0-0.1,0-0.1-0.1-0.1l-0.4,0c-0.2,0-0.2-0.2-0.3-0.4
							c0-0.3,0-1,0-1.8v-1.5l0-1.8c0-0.3,0.1-0.4,0.3-0.4l0,0c0,0,0.2,0,0.2,0c0.1,0,0.1,0,0.1-0.1c0-0.1-0.1-0.1-0.2-0.1L75.9,77.2
							z"/>
					</g>
					<g>
						<path class="st1" d="M77.8,77.3c0,0-0.2,0.8-0.2,0.9c0,0.1,0.1,0.1,0.1,0.1c0.1,0,0.1-0.1,0.1-0.1l0.1-0.2
							c0.1-0.2,0.3-0.2,0.8-0.2c0,0,0.9,0,1.2,0c0,0.1,0,3.5,0,3.5c0,0.8,0,1.5,0,1.8c0,0.2-0.1,0.4-0.2,0.4c0,0-0.2,0-0.2,0
							c-0.1,0-0.1,0.1-0.1,0.1c0,0.1,0.1,0.1,0.2,0.1l0.7,0l0.1,0l0.1,0l0.9,0c0.2,0,0.2-0.1,0.2-0.1c0-0.1,0-0.1-0.1-0.1l-0.4,0
							c-0.2,0-0.2-0.2-0.3-0.4c0-0.3,0-1,0-1.8c0,0,0-3.3,0-3.5c0.1,0,1,0,1,0c0.8,0,0.9,0.2,1,0.4c0,0,0,0.1,0,0.1
							c0,0.1,0,0.2,0.1,0.2c0,0,0.1,0,0.1-0.2l0-0.3l0-0.7c0,0,0-0.2-0.1-0.2l-0.1,0c-0.1,0-0.3,0.1-0.7,0.1h-3.1l-0.7,0
							c0,0-0.3-0.1-0.3-0.1l-0.1,0C77.8,77.1,77.8,77.2,77.8,77.3z"/>
					</g>
					<g>
						<path class="st1" d="M88.6,77.2l-0.2,0l-0.1,0l-0.4,0c-0.2,0-0.2,0.1-0.2,0.1c0,0.1,0.1,0.1,0.2,0.1c0,0,0.1,0,0.1,0.2
							c0,0.1,0,0.3-0.1,0.4c-0.1,0.2-1.1,1.9-1.3,2.4c-0.3-0.5-1.4-2.3-1.5-2.5c-0.1-0.1-0.1-0.2-0.1-0.3c0,0,0-0.1,0.1-0.1
							c0,0,0,0,0,0c0.1,0,0.1,0,0.1-0.1c0-0.1-0.1-0.1-0.2-0.1l-0.6,0l-0.1,0l-0.2,0l-0.6,0c-0.2,0-0.2,0.1-0.2,0.1
							c0,0.1,0.1,0.1,0.1,0.1c0.1,0,0.2,0,0.3,0.1c0.2,0.1,0.4,0.3,0.6,0.6c0.3,0.4,1.4,2.3,1.5,2.4c0.1,0.2,0.2,0.4,0.2,0.9v0.7
							l0,0.8c0,0.2-0.1,0.4-0.2,0.4c0,0-0.2,0-0.2,0c-0.1,0-0.1,0.1-0.1,0.1c0,0.1,0.1,0.1,0.2,0.1l0.7,0l0.1,0l0.1,0l0.9,0
							c0.2,0,0.2-0.1,0.2-0.1c0-0.1,0-0.1-0.1-0.1l-0.4,0c-0.2,0-0.3-0.1-0.3-0.4l0-0.8v-0.7c0-0.3,0-0.5,0.1-0.8
							c0.1-0.3,1.3-2.3,1.6-2.6c0.2-0.2,0.3-0.3,0.4-0.4c0.1-0.1,0.3-0.1,0.3-0.1c0.1,0,0.2-0.1,0.2-0.1c0-0.1,0-0.1-0.2-0.1
							L88.6,77.2z"/>
					</g>
					<path class="st1" d="M93.1,80.2c0-1.7,0.9-2.7,2.4-2.7c1.2,0,2.5,0.9,2.5,3c0,2.7-1.9,2.8-2.2,2.8C94.2,83.3,93.1,82,93.1,80.2
						z M92.2,80.4c0,1.6,1,3.4,3.3,3.4c2,0,3.4-1.5,3.4-3.5c0-1.9-1.3-3.2-3.4-3.2C93.1,77.1,92.2,79.1,92.2,80.4z"/>
					<g>
						<path class="st1" d="M103.3,77.2L103.3,77.2c0,0-0.3,0-0.3,0l-0.1,0c0,0-2.1,0-2.1,0l-0.1,0l-0.8,0c0,0-0.2,0-0.2,0.1
							c0,0.1,0.1,0.1,0.1,0.1l0.3,0c0.2,0,0.3,0.1,0.3,0.4c0,0,0,1.8,0,1.8v1.5c0,0.8,0,1.5,0,1.8c0,0.2-0.1,0.4-0.2,0.4
							c0,0-0.2,0-0.2,0c-0.1,0-0.1,0.1-0.1,0.1c0,0.1,0.1,0.1,0.2,0.1l0.7,0l0.1,0l0.1,0l0.9,0c0.2,0,0.2-0.1,0.2-0.1
							c0-0.1,0-0.1-0.1-0.1l-0.4,0c-0.2,0-0.2-0.2-0.3-0.4c0-0.3,0-1,0-1.8v-0.7c0.3,0,1.1,0,1.3,0c0.2,0,0.3,0.2,0.4,0.3l0,0.2l0,0
							c0,0.1,0,0.1,0.1,0.1c0.1,0,0.1-0.1,0.1-0.2l0-0.6c0,0,0.1-0.5,0.1-0.5c0-0.1-0.1-0.1-0.1-0.1c-0.1,0-0.1,0-0.1,0.1
							c-0.1,0.1-0.1,0.1-0.4,0.1l-0.4,0l-1.1,0l0-2.3c0,0,1.3,0,1.3,0c0.3,0,0.5,0.1,0.5,0.2c0,0,0.1,0.3,0.1,0.3
							c0,0.2,0.1,0.2,0.1,0.2c0,0,0.1,0,0.1-0.1c0,0,0-0.4,0-0.4l0-0.1c0,0,0-0.3,0-0.3l0-0.1C103.5,77.2,103.4,77.1,103.3,77.2
							L103.3,77.2z"/>
					</g>
				</g>
				<g>
					<rect x="13.8" y="88.5" class="st1" width="89.2" height="0.5"/>
				</g>
				<g>
					<g>
						<path class="st1" d="M22.8,93.8c0,0-3.2,6.7-3.5,7.3c-0.1-0.1-3.5-7.2-3.5-7.2c-0.2-0.3-0.2-0.4-0.4-0.4
							c-0.1,0-0.2,0.1-0.3,0.4l-1.3,8.4c-0.1,0.5-0.2,0.9-0.5,1c0,0-0.4,0-0.4,0c-0.1,0-0.2,0-0.2,0.1c0,0.2,0.2,0.2,0.3,0.2l0.8,0
							l0.5,0l0.4,0l0.9,0c0.2,0,0.3,0,0.3-0.2c0-0.1-0.1-0.1-0.2-0.1l-0.5-0.1c-0.2-0.1-0.4-0.2-0.4-0.4l0-0.6c0,0,0.6-4.5,0.7-5.1
							c0.1,0.2,0.6,1.3,0.6,1.3l0.7,1.5c0.2,0.4,1.2,2.3,1.5,2.9l0,0.1c0.2,0.4,0.3,0.6,0.4,0.6c0.1,0,0.2-0.1,0.5-0.7
							c0,0,2.8-5.9,2.8-5.9l0,0c0,0.1,0.8,5.7,0.8,5.7c0,0.1,0,0.2,0,0.3c0,0.2,0,0.2-0.1,0.2c-0.1,0-0.2,0.1-0.2,0.2l0,0
							c0,0.1,0.1,0.2,0.4,0.2c0.5,0,2.3,0.1,2.6,0.1c0.2,0,0.4-0.1,0.4-0.2c0-0.1-0.2-0.1-0.2-0.1c-0.2,0-0.4,0-0.8-0.1
							c-0.4-0.1-0.5-0.5-0.6-1.3l-1.2-8c0-0.3-0.1-0.4-0.3-0.4C23,93.5,22.9,93.6,22.8,93.8z"/>
					</g>
					<g>
						<path class="st1" d="M32.9,93.7L32.9,93.7l-0.6,0.1c-0.2,0-2.3,0-3.2,0l-0.7,0l-0.2,0c0,0-1,0-1,0c-0.2,0-0.3,0-0.3,0.1
							c0,0.1,0.2,0.1,0.3,0.1l0.5,0c0.4,0.1,0.5,0.3,0.5,0.7c0,0.4,0,0.8,0,2.7v2.3c0,1.2,0,2.2-0.1,2.7c-0.1,0.4-0.1,0.6-0.3,0.7
							l-0.5,0.1c-0.1,0-0.2,0-0.2,0.1c0,0.1,0.1,0.2,0.3,0.2l0.9,0c0,0,0.7,0,0.7,0l1.3,0l0.4,0l1.9,0c0.5,0,0.6,0,0.7-0.4
							c0.1-0.3,0.2-1.1,0.2-1.4c0-0.1,0-0.3-0.1-0.3c-0.1,0-0.2,0.1-0.2,0.2c-0.1,0.5-0.2,0.8-0.6,0.9c-0.3,0.2-0.9,0.2-1.2,0.2
							c-1.3,0-1.5-0.2-1.5-1.1l0-1.5l0-0.5v-1c0-0.1,0-0.1,0-0.1c0.3,0,1.6,0,1.8,0c0.4,0,0.6,0.2,0.7,0.5l0,0.3l0,0.1
							c0,0.1,0.1,0.1,0.1,0.1c0.1,0,0.1-0.2,0.1-0.3l0-0.4l0-0.5l0.1-0.8l0-0.1c0-0.1,0-0.1-0.1-0.1c-0.1,0-0.1,0.1-0.2,0.2
							C32.5,97.9,32.3,98,32,98c-0.2,0-0.9,0-2.1,0c0,0-0.1,0-0.1-0.1v-3.3c0-0.1,0-0.1,0.1-0.1c0.2,0,1.6,0,1.8,0.1
							c0.6,0.1,0.8,0.2,0.8,0.4c0.1,0.2,0.1,0.4,0.1,0.5c0,0.1,0,0.2,0.1,0.2c0.1,0,0.2-0.1,0.2-0.2c0,0,0-0.6,0-0.6l0-0.3
							c0,0,0.1-0.7,0.1-0.7l0-0.1c0,0,0-0.1-0.1-0.1L32.9,93.7z"/>
					</g>
					<g>
						<path class="st1" d="M37.9,93.8l-0.7,0l-0.7,0l-1.1,0c-0.2,0-0.3,0-0.3,0.1c0,0.1,0.2,0.1,0.3,0.1l0.4,0
							c0.4,0.1,0.5,0.3,0.5,0.7c0,0.4,0,0.8,0,2.7v2.3c0,1.2,0,2.2-0.1,2.7c-0.1,0.4-0.1,0.6-0.3,0.7c0,0-0.5,0.1-0.5,0.1
							c-0.1,0-0.2,0-0.2,0.1c0,0.2,0.2,0.2,0.3,0.2l0.9,0c0,0,0.7,0,0.7,0l2,0l1.7,0c0.7,0,0.8-0.1,0.8-0.4c0.1-0.4,0.2-1.3,0.2-1.5
							c0-0.1,0-0.3-0.1-0.3c-0.1,0-0.2,0.1-0.2,0.2c0,0.2-0.2,0.6-0.3,0.8c-0.3,0.3-0.8,0.4-1.5,0.4c-1,0-1.3-0.1-1.5-0.3
							c-0.3-0.2-0.3-1.1-0.3-2.8v-2.3c0-2,0-2.3,0-2.7c0-0.5,0.1-0.6,0.5-0.7c0,0,0.5,0,0.5,0c0.1,0,0.3,0,0.3-0.1
							c0-0.1-0.1-0.1-0.3-0.1L37.9,93.8z"/>
					</g>
					<path class="st1" d="M45.8,93.8l-0.9,0l-0.5,0l-1.3,0c-0.2,0-0.3,0-0.3,0.1c0,0.1,0.2,0.1,0.3,0.1l0.5,0
						c0.4,0.1,0.5,0.3,0.5,0.7c0,0.4,0,0.8,0,2.7v2.3c0,1.2,0,2.2-0.1,2.7c0,0.3-0.1,0.6-0.3,0.7c0,0-0.5,0.1-0.5,0.1
						c-0.1,0-0.2,0-0.2,0.1c0,0.2,0.2,0.2,0.3,0.2l0.9,0c0,0,0.7,0,0.7,0l1,0c0,0,0.5,0,0.5,0l0.4,0c2.4,0,3.5-1.4,3.5-2.8
						c0-1.5-1.2-2.4-2.3-2.8c0.8-0.6,1.3-1.3,1.3-2.2c0-0.5-0.2-2-2.8-2L45.8,93.8z M46.3,94.4c1.2,0,1.6,1.2,1.6,2
						c0,0.6-0.2,1.1-0.5,1.3c-0.2,0.2-0.5,0.2-0.9,0.2l-0.6,0c0,0-0.1,0-0.1-0.1v-3.2c0-0.1,0-0.2,0.1-0.2
						C45.8,94.4,46.3,94.4,46.3,94.4z M46.2,102.9c-0.4-0.2-0.4-0.4-0.4-1.2v-3.1c0-0.1,0-0.1,0-0.1l0.6,0c0.5,0,0.8,0.1,1.1,0.3
						l0,0c1.1,0.8,1.2,2,1.2,2.5c0,1.5-1.3,1.6-1.5,1.6C46.8,103,46.5,103,46.2,102.9z"/>
					<path class="st1" d="M51.6,98.7c0,2.5,1.6,5.1,5.2,5.1c3.2,0,5.4-2.2,5.4-5.3c0-3-2-4.9-5.2-4.9C53.3,93.6,51.6,96.3,51.6,98.7
						z M53.4,98.3c0-3.5,2-4,3.1-4c2.2,0,3.8,1.9,3.8,4.7c0,3.7-2.1,4.1-3,4.1C55.1,103.1,53.4,101.1,53.4,98.3z"/>
					<g>
						<path class="st1" d="M72.1,93.8l-0.4,0c0,0-1.5,0-1.5,0c-0.1,0-0.3,0-0.3,0.1c0,0.1,0.2,0.1,0.3,0.1l0.5,0
							c0.4,0.1,0.5,0.3,0.5,0.7c0,0.4,0,0.8,0,2.7v1.6c0,1.4-0.1,2.5-0.7,3.2c-0.6,0.6-1.4,0.7-1.8,0.7c-0.4,0-1-0.1-1.6-0.5
							c-0.5-0.4-1-1.1-1-3.2v-1.8c0-2,0-2.3,0-2.7c0-0.5,0.1-0.6,0.5-0.7l0.4,0c0.1,0,0.2,0,0.2-0.1c0-0.1-0.2-0.1-0.3-0.1l-0.9,0
							l-0.6,0l-0.7,0l-1.2,0c-0.2,0-0.3,0-0.3,0.1c0,0.1,0.2,0.1,0.3,0.1l0.5,0c0.4,0.1,0.5,0.3,0.5,0.7c0,0.4,0,0.8,0,2.7v1.9
							c0,1.6,0.4,2.7,1.2,3.4c1,0.9,2.3,0.9,2.9,0.9c0.8,0,1.7-0.1,2.7-0.9c1.1-0.9,1.2-2.4,1.2-3.9v-1.4c0-2,0-2.3,0-2.7
							c0-0.5,0.1-0.6,0.5-0.7c0,0,0.4,0,0.4,0c0.1,0,0.3,0,0.3-0.1c0-0.1-0.2-0.1-0.3-0.1L72.1,93.8z"/>
					</g>
					<path class="st1" d="M77.7,93.8l-0.9,0l-0.5,0l-1.3,0c-0.2,0-0.3,0-0.3,0.1c0,0.1,0.2,0.1,0.3,0.1l0.5,0
						c0.4,0.1,0.5,0.3,0.5,0.7c0,0.4,0,0.8,0,2.7v2.3c0,1.2,0,2.2-0.1,2.7c0,0.3-0.1,0.6-0.3,0.7l-0.5,0.1c-0.1,0-0.2,0-0.2,0.1
						c0,0.2,0.2,0.2,0.3,0.2l1.1,0l0.5,0l0.4,0l1.5,0c0.1,0,0.3,0,0.3-0.2c0,0,0-0.1-0.2-0.1l-0.6-0.1c-0.3,0-0.4-0.3-0.5-0.7
						c-0.1-0.5-0.1-1.6-0.1-2.8v-0.2c0-0.1,0-0.1,0.1-0.1l1.1,0c0.1,0,0.2,0,0.2,0.1c0,0,0.6,0.9,0.6,0.9l0.7,0.9
						c0.8,1,1.2,1.6,1.8,1.9c0.4,0.2,0.7,0.2,1.4,0.2h1.2c0.1,0,0.3,0,0.3-0.2c0,0,0-0.1-0.2-0.1l-0.4,0c-0.2,0-0.7-0.1-1.4-0.9
						c-0.7-0.7-1.4-1.6-2.3-2.8c0,0-0.4-0.5-0.4-0.5c1.2-1,1.7-1.8,1.7-2.9c0-0.9-0.6-1.6-0.9-1.8c-0.7-0.5-1.6-0.6-2.4-0.6
						L77.7,93.8z M77.7,98.8c-0.1,0-0.1-0.1-0.1-0.2v-3.9c0-0.1,0-0.1,0.1-0.2c0.1,0,0.3-0.1,0.7-0.1c0.7,0,1.9,0.5,1.9,2.3
						c0,1.2-0.5,1.7-0.7,1.9c-0.2,0.2-0.4,0.2-0.9,0.2C78.3,98.9,77.9,98.9,77.7,98.8z"/>
					<g>
						<path class="st1" d="M86.5,94.1l-0.1,7.6c0,1.1-0.1,1.5-0.4,1.6c-0.2,0.1-0.4,0.1-0.6,0.1c-0.1,0-0.2,0-0.2,0.1
							c0,0.2,0.2,0.2,0.3,0.2l1.2,0l0.2,0l0.4,0l1.2,0c0.1,0,0.3,0,0.3-0.2c0-0.1-0.2-0.1-0.3-0.1c-0.2,0-0.4,0-0.7-0.1
							c-0.3-0.1-0.4-0.5-0.4-1.4c0,0-0.1-5.2-0.1-5.4c0.1,0.1,0.3,0.3,0.3,0.3c0.5,0.6,1.7,1.8,2.8,2.9l1.7,1.7l2.1,2.1
							c0.1,0.1,0.3,0.3,0.5,0.3c0.2,0,0.2-0.2,0.2-0.4l0.1-8.1c0-0.7,0.1-1,0.5-1.1c0,0,0.4,0,0.4,0c0.2,0,0.3-0.1,0.3-0.1
							c0-0.1-0.2-0.1-0.3-0.1l-1,0l-0.2,0l-0.5,0l-1.1,0c-0.2,0-0.4,0-0.4,0.1c0,0.1,0.1,0.1,0.2,0.1c0.2,0,0.5,0,0.7,0.1
							c0.3,0.1,0.4,0.3,0.4,1.1c0,0,0.1,5.4,0.1,5.8c0,0,0,0,0,0h0c0,0-0.9-1-0.9-1l-1.9-2c-2-2-4-4.1-4-4.1l-0.1-0.1
							c-0.2-0.2-0.3-0.3-0.4-0.3C86.5,93.6,86.5,93.8,86.5,94.1z"/>
					</g>
					<g>
						<path class="st1" d="M102.7,93.7L102.7,93.7c-0.1,0-0.6,0.1-0.6,0.1c-0.2,0-2.3,0-3.2,0l-0.7,0l-0.2,0c0,0-1,0-1,0
							c-0.2,0-0.3,0-0.3,0.1c0,0.1,0.2,0.1,0.3,0.1l0.5,0c0.4,0.1,0.5,0.3,0.5,0.7c0,0.4,0,0.8,0,2.7v2.3c0,1.2,0,2.2-0.1,2.7
							c0,0.3-0.1,0.6-0.3,0.7c0,0-0.5,0.1-0.5,0.1c-0.1,0-0.2,0-0.2,0.1c0,0.2,0.2,0.2,0.3,0.2l0.9,0c0,0,0.7,0,0.7,0l1.3,0l0.4,0
							l1.9,0c0.5,0,0.6,0,0.7-0.4c0.1-0.3,0.2-1.1,0.2-1.4c0-0.1,0-0.3-0.1-0.3c-0.1,0-0.2,0.1-0.2,0.2c-0.1,0.5-0.2,0.8-0.6,0.9
							c-0.3,0.2-0.9,0.2-1.2,0.2c-1.3,0-1.5-0.2-1.5-1.1l0-1.5l0-0.5v-1c0-0.1,0-0.1,0-0.1c0.3,0,1.6,0,1.8,0c0.4,0,0.6,0.2,0.7,0.5
							l0,0.3l0,0.1c0,0.1,0.1,0.1,0.1,0.1c0.1,0,0.1-0.2,0.1-0.3l0-0.4l0-0.4l0.1-0.8l0-0.1c0-0.1,0-0.1-0.1-0.1
							c-0.1,0-0.1,0.1-0.2,0.2c-0.1,0.1-0.3,0.2-0.6,0.2c-0.2,0-0.9,0-2.1,0c0,0-0.1,0-0.1-0.1v-3.3c0-0.1,0-0.1,0.1-0.1
							c0.2,0,1.6,0,1.8,0.1c0.6,0.1,0.8,0.2,0.8,0.4c0.1,0.2,0.1,0.4,0.1,0.5c0,0.1,0,0.2,0.1,0.2c0.1,0,0.2-0.1,0.2-0.2
							c0,0,0-0.6,0-0.6l0-0.3c0,0,0.1-0.7,0.1-0.7l0-0.1c0-0.1,0-0.1-0.1-0.1L102.7,93.7z"/>
					</g>
				</g>
			</g>
		</g>
		<path class="st1" d="M58,70c-2.2-2.2-4.8-3.3-7.4-4.4l-0.2-0.1c0,0-1.4-0.5-1.4-0.5c-0.2-0.1-0.3-0.1-0.3-0.1l-0.2-0.1l0,0
			c-8.4-3-13.6-9.9-13.8-18.7c0-0.4,0-0.7,0-1.1c0-1.3,0.1-2.7,0.2-4.1c0.1-0.8,0.4-2.8,0.4-2.8l0.7-4.4c0.1-0.5,0.1-0.7,0.1-0.8
			l0.1-0.3l0,0c0-0.6,0.1-1.4,0.1-2.1c0-3.1-0.8-5-2.5-6.3l0,0L33.5,24l3.8-4.9l-0.1-0.1c-0.3-0.4-0.5-0.8-0.5-1.2l-0.1-0.6l0.5,0.2
			c0.3,0.1,0.7,0.2,1,0.3l0.2,0l3.7-4.9l0.2,0.3c0.7,1.2,2,1.8,3.8,1.8c0.8,0,1.6-0.1,2.8-0.3c0,0,3.7-0.6,3.7-0.6
			c2.6-0.3,3-0.4,3.1-0.4l0.2,0c0.7-0.1,1.5-0.1,2.3-0.1c1.6,0,3.4,0.1,5.2,0.4c0,0,2.6,0.4,2.6,0.4l3.3,0.5c0.5,0,1,0.1,1.6,0.1
			c1.5,0,2.5-0.3,3.2-1c0.2-0.1,0.3-0.3,0.4-0.5l0.4-0.5l3.4,4.5l0.2-0.1c0.6-0.2,1.3-0.5,2.3-0.8c0,0,0.5-0.2,0.7-0.2
			c1.3-0.5,2.3-0.8,3.1-0.9l0.7-0.1l-0.3,0.6c-0.2,0.5-0.4,0.9-0.7,1.3l-0.4,0.6l0.7-0.3c0,0,0.5-0.2,0.9-0.4L85,18
			c-0.2,0.5-1.1,1.9-2,2.5l-0.2,0.1l0.1,0.2c0,0,0,0,0,0c0.1,0.1,0.1,0.4,0.1,0.6c0,0.2,0,0.5-0.1,0.6c-0.1,0.2-0.2,0.5-0.5,0.7
			l-0.1,0.1l0.9,1.2l-0.2,0.1c-1.8,1.3-2.6,3.4-2.6,6.3l0,0.1c0,0.1,0,0.3,0,0.5c0,0.7,0,1.4,0.1,2.2l0.5,2.8
			c0.3,1.9,0.5,2.9,0.5,2.9c0.1,0.8,0.3,3,0.3,3.2c0.1,2.7,0.1,2.9,0.1,2.9c0,0.1,0,0.2,0,0.3c0,4.7-1.6,9.5-4.1,12.4L77.8,58
			c-1.6,2-3.9,4.8-10.1,6.9c-3.5,1.3-6.5,2.5-9.2,4.8l0,0l-0.1,0.1L58.4,70l-0.2,0.2L58,70z"/>
		<path class="st0" d="M82.3,23.7c0-0.1-0.1-0.1-0.1-0.1C82.2,23.6,82.3,23.7,82.3,23.7z M82.3,23.7C82.3,23.7,82.3,23.7,82.3,23.7
			C82.3,23.7,82.3,23.7,82.3,23.7z M62.4,43.7 M84.5,17.3c0.2-0.4,0.5-0.8,0.7-1.3l0.5-1l-1.1,0.2c-0.9,0.2-1.9,0.5-3.2,1
			c-0.2,0.1-0.4,0.1-0.7,0.2c-0.9,0.3-1.7,0.6-2.3,0.8l-3.5-4.6l-0.6,0.7c-0.1,0.2-0.2,0.3-0.4,0.4c-0.7,0.6-1.6,1-3,1
			c-0.5,0-1.1,0-1.5-0.1l-3.3-0.5c0,0-2.6-0.4-2.6-0.4c-1.8-0.3-3.6-0.4-5.2-0.4c-0.9,0-1.8,0-2.6,0.1l0,0c-0.1,0-0.5,0.1-3.1,0.4
			c0,0-3.7,0.6-3.7,0.6c-1.1,0.2-2,0.3-2.7,0.3c-1.8,0-3-0.5-3.6-1.6L42,12.4l-3.9,5c-0.3-0.1-0.7-0.2-1-0.3l-0.9-0.3l0.1,0.9
			c0.1,0.5,0.2,0.9,0.6,1.3L33.2,24l0.4,0.4l0,0c1.7,1.2,2.4,3.1,2.4,6.1c0,0.8-0.1,1.7-0.1,2.3l0,0c0,0.1-0.1,0.3-0.1,0.8L35,38.1
			c0,0-0.2,1.9-0.4,2.8c-0.2,1.4-0.2,2.8-0.2,4.1c0,0.4,0,0.8,0,1.1c0.2,8.9,5.5,16,14.2,18.9l0,0c0.1,0,0.2,0.1,0.3,0.1
			c0,0,1.4,0.5,1.4,0.5l0.2,0.1c2.6,1.1,5.2,2.2,7.3,4.4l0.3,0.3l0.4-0.4l0.1-0.1c0,0,0.1-0.1,0.1-0.1c2.6-2.3,5.7-3.5,9.1-4.8
			c6.2-2.2,8.5-5,10.2-7l0-0.1c2.6-3,4.2-7.8,4.2-12.6c0-0.1,0-0.2,0-0.3c0,0,0,0-0.1-3c0,0-0.2-2.1-0.3-3.2c0,0,0,0-0.5-2.9
			l-0.5-2.8c-0.1-0.8-0.1-1.5-0.1-2.1c0-0.2,0-0.3,0-0.5l0-0.1c0-2.8,0.8-4.8,2.5-6.1l0.4-0.3l-0.9-1.2c0.3-0.3,0.4-0.6,0.6-0.8
			c0.2-0.4,0.2-1,0-1.4c0,0,0,0,0,0c0.9-0.6,1.8-2.1,2-2.6l0.7-1.4C86,16.7,84.5,17.3,84.5,17.3z M39,17.7l3-3.9
			c1.1,1.5,2.8,1.6,4.5,1.7l1.1-0.1l4.9-0.8l3.3-0.4c3.2-0.4,6.4,0.1,9.4,0.6l4.3,0.7c1.8,0.1,3.8,0.1,5.1-1.3l0.2-0.3l2.8,3.6
			c0,0,0,0,0,0c-0.1,0-0.1,0.1-0.3,0.1c-0.4,0.1-0.8,0.3-1.1,0.4c0,0-0.1,0-0.1,0.1l0,0l-1.4-1.9c-1.5,0.8-3.3,0.9-5.1,0.8L67,16.7
			l-3.1-0.5l-3.3-0.4c-2-0.2-4.1-0.1-6,0.1l-2.8,0.4L47.1,17c-1.8,0.1-3.5-0.1-4.9-0.9L40.8,18c-0.2,0-0.4-0.1-0.6-0.1
			C39.8,17.8,39.4,17.7,39,17.7z M74.1,26.3c0,0.5-0.6,0.6-0.7,0.9l-0.2,0.2c0.2,0,0.5-0.1,0.6-0.3c0.4-0.1,1.5-0.4,1.6-0.1
			c0.1,0.2-0.1,0.4-0.4,0.7s-1.6,0.8-2.4,0.6c-0.5,0-1,0.1-1.4,0.2l-2.4,0.7c-0.8,0.2-1.8,0.3-2.7,0.1c-1.3-0.2-2.6-0.6-4.1-0.5
			c-0.2,0-0.4,0.1-0.5,0.3c0.1,0,0.4-0.1,0.5,0c0,0.2,0,1.2-0.4,1.6c-0.1-0.1-0.2-0.3-0.2-0.5s-0.6-2.7,0.5-3.5
			c0.7-0.2,1.5,0.2,1.8,0.3c0.9,0.5,2.3,0.7,3.5,1.2c0.5-0.1,1-0.2,1.5-0.3l3.4-0.5c0.6,0.1,0.7-0.7,1.2-0.7c0.4,0,0.6-0.3,0.8-0.4
			C74,26.2,74.1,26.2,74.1,26.3z M45.7,27.9c0.1-0.1,0.6-0.2,1-0.2c0.4,0.1,1.2,0.2,1.8,0.7c1.2,0.4,2.1,1.2,3.3,1.6
			c0-0.1-0.1-0.2-0.2-0.3c0.7-0.6,1.5-1.1,2.4-1.4c0.5-0.6,1.3-1.3,2.1-1.1l0.2,0c0,0,0,0.2,0,0.3c0,0.5-0.3,0.9-0.5,1.5
			c0,0-0.7,0.3-1.1,0.5c-0.3,0.2-2.8,1.7-2.8,1.7c-0.7,0.6-1.1-0.1-1.8-0.6c-0.9-0.5-1.8-0.9-2.5-1.6c0-0.1,0.2,0,0.1-0.2
			c-0.4,0-0.7,0.2-1.1,0.3c-0.2,0.1-0.6,0.2-0.7,0l0.2,0c0.2-0.2,0.3-0.5,0.7-0.6C46.5,28.1,46,28,45.6,28L45.7,27.9z M77.5,28.1
			c0,0.2-0.4,0.7-0.9,0.8c-0.7,0.1-1.2,0-1.6-0.2c0,0.5,0.8,0.7,1.4,0.5c-0.3,0.4-1.3,0.7-2,0.7c-0.8,0-1.3-0.3-1.9-0.7
			c-0.1,0.5,0.8,0.8,1.4,0.9c-1.2,0.7-2.6,0.2-2.8,0.1c-0.3-0.1-0.8-0.3-1.1-0.6c0,0.4,0.5,0.6,0.9,0.7c-0.8,0.4-1.8,0-2.2-0.7
			c1.3-0.4,2.3-0.7,3.7-1.1c1.3,0.2,2.5-0.3,3-0.9c0.2-0.2,0.3-0.5,0.3-0.6c0.1,0,0.3,0,0.4,0C76.1,27.3,77.4,27.6,77.5,28.1z
			 M66.5,30c0.6,0.1,1.5-0.1,1.8-0.1c0.1,0.2-0.1,0.7-0.4,0.6c0.1,0.4,0.4,0.8,0.4,1.2c-0.3-0.1-1.2-0.5-1.2-0.5
			c0.2,0.4,0.5,1,0.4,1.5c-0.4-0.3-1.1-0.3-1.4-0.5c0.1,0.6,0.5,1.4,0,1.9c-0.5-0.3-0.7-0.8-1.1-1.2c0.1,0.5,0.2,1.3-0.2,1.8
			c-0.2-0.3-1.2-0.7-1.2-1c-0.1,0-0.4,1.1-0.7,1.3c-0.3-0.5-0.6-1.1-1.1-1.5c0.1-0.1,0.3-0.1,0.2-0.3c-0.1-0.3-0.6-0.5-1.1-0.7
			c0.1-0.2,0.1-0.2,0.3-0.5c0.4-0.6,0.7-1.2,0.8-1.5c0.2-0.5,0.2-0.6,0.3-1c0.5,0.1,0.9,0.2,1.6,0.2C64.6,29.7,65.6,29.9,66.5,30z
			 M55.2,29.8c-0.2,0.2-0.3,0.3-0.4,0.5c-0.2,0.5,0,1.2,0.5,1.6c0.3,0.2,0.5,0.3,0.7,0.4c-0.7,0.2-1.4,1.1-1.4,1.7
			c-0.3-0.2-0.3-0.7-0.3-1.2c-0.2,0.3-0.6,0.4-0.8,0.5c-0.1-0.2,0-0.8,0.2-1.1c-0.1-0.2-0.7-0.1-1,0.1c-0.1-0.4,0.1-0.6,0.4-0.8
			c-0.1-0.2-0.3-0.1-0.8,0c0.3-0.1,0.8-0.4,1.3-0.7C54.5,30.2,55.2,29.8,55.2,29.8z M55.5,43.8c0.7,1.2,0.8,1.2,1.2,1.9
			s2,3.2,2.3,3.7c0.3,0.5,2,3.4,3.1,3.9c-0.8,0.9-0.4,2-1.8,2.3c-0.8,0.1-3,0.8-3.8-0.5s-1.1-3.4-0.9-5c1,1.5,1.7,2.2,2.2,2.5
			c-1.8-2-1.6-2.4-2.4-3.5C55,48.7,55,48,54.9,47.5c-0.1-0.9-0.1-1.8-0.1-2.7c0-0.5,0-1-0.2-1.5c-0.1-0.2-0.2-0.7-0.2-0.9
			c0-0.2,0-0.4,0-0.4S54.8,42.6,55.5,43.8z M61,26.4c-0.8,0.5-0.9,1-2.2,1.7c-0.7,0.4-1.4,0.6-1.8,0.4c-0.5-0.2-0.3-1.1-0.3-1.2
			c0-0.1,0-0.2,0-0.3c0.3-0.2,0.8-0.1,1-0.5c0.1-0.4,0.1-0.7,0.2-1.1c0.1-0.3,0.6-0.5,0.7-0.8c-0.6,0.4-1,0.9-1.7,0.9
			c-0.2-0.1-0.1-0.3-0.2-0.5c-0.1-0.1-0.1-0.2-0.2-0.3c0.1,0,0.1,0,0.1,0c0,0,0.1,0,0.1-0.1c0,0,0-0.1-0.1-0.1s-0.1,0-0.2,0
			c0,0,0,0,0,0c0-0.1,0-0.3,0-0.4l-0.4-0.1c0-0.4,0.3-0.7,0.3-1.1c0.1,0.1,0.3,0.1,0.2,0.2c-0.1,0.1,0,0.2,0,0.2
			c0-0.2,0.6-0.4,0.3-0.5c-0.1,0-0.6,0.1-0.6-0.2c0-0.3,0.1-0.6,0.3-0.9c0.4,0.3,0.9,0.6,1,1.1c0.1,0.1,0.3,0.3,0.5,0.3
			c0.4-0.2,0.6,0.2,1,0.2c0-0.1,0-0.2,0.1-0.2c0.1,0,0.2,0,0.2,0.1c0,0.2-0.1,0.3-0.2,0.4c-0.1,0.1-0.3,0.1-0.5,0.2
			c0.3,0.2,0.6-0.1,0.9-0.2c0.1,0,0.3,0,0.4,0.2c0.1,0.7-0.2,1.8,0.7,2.2C60.7,26.3,60.8,26.3,61,26.4z M75.5,53.5
			c-0.6-0.1-1.1,0-1.3,0.5c-0.3,0.7-0.5,1.2-0.7,1.6c-0.3,0.5-0.8,0.9-1.5,1.1c-0.8,0.2-1.9,0.3-2-0.2c0.2-1,1.5-1.1,2.1-1.4
			c1-0.5,1.1-1.4,1.2-2.3c-1.5-0.9-4.4-3.3-4.4-3.3s2.6,2.5,3.9,3.4c0,0.8-0.2,1.3-0.8,1.6c-0.4,0.2-0.9,0.4-1.5,0.7
			c-1,0.6-0.7,1.4-2,1.9c-0.6,0.2-1.9,0.4-1.6-0.3c0.5-0.8,0-0.8,0-0.8c-0.3,0.1-1.1,0.3-1.6,0.3c-0.3,0-0.5-0.2-0.3-0.4
			c0.1-0.1,0.2-0.1,0.4-0.2c0.2-0.2,0.3-0.3,0.4-0.4c0.1-0.3,0.3-0.6,0.1-0.7c-0.2-0.1-0.5,0-0.6,0.1c-0.6,0.6-0.6,1.7-2.2,1.4
			c0,0-1.9-0.4-0.4-2.6c0.4-0.6-0.8-1.2-1.5-2.1c-1.3-1.6-5.1-7.8-5.1-7.8c-0.4-0.6-0.8-1.3-1.2-1.8c-0.4-0.6-0.5-1.7,0.4-1.6
			c0.4,0.1,0.5,0.3,1,0.1c0.3-0.1,0.3,0.3,0,0.6c-0.2,0.2-0.2,0.5,0.1,0.7c0.3,0.2,0.4-0.2,0.8-0.1c0.4,0.1,0.6,1,1.3,1.2
			c0.2,0,0.3,0,0.3-0.1c0.1-0.3-0.2-0.6-0.1-1c0.1,0.2,0.4,0.4,0.8,0.6c0.5,0.3,0.7,0.3,0.6-0.1c-0.1-0.4-0.2-0.7-0.2-0.7
			c0-0.3,0.2-0.6,0.5-0.6c0.1,0,0.3,0.1,0.4,0.3c0.3,0.5,0.2,0.8,0.8,1c1,2.1,3.5,4.8,4.6,5.6c0.2,0.2,0.6,0.4,0.9,0.5
			c-0.2-0.2-0.6-0.5-0.7-0.7c-2.7-2.6-4.4-4.9-4.3-5.5c0.8-0.3,0.9-1.1,1.1-1c0.1,0.1-0.2,0.7-0.2,1c0,0.2,0.2,0.4,0.7,0.4
			c-0.9,0.9,1.3,1.6,3,1.6c0.6,0.4,1.6,1,2.9,1.3c0,0,0.1,0.6,0.5,0.6c0,0,0.9,1.4,2.1,2.7C73,50.2,74.4,52.4,75.5,53.5z M66,52.1
			c-2.6-2.8-5.3-7.1-5.6-7.2c0,0,3.3,4.9,3.8,5.8c0.6,0.8,1.4,1.6,1.8,2.3C66.1,52.7,66.3,52.4,66,52.1z M61.2,26.9
			c-1.1,1.1,0.2,3.8-0.6,4.9c-0.1,0.1-0.2,0.3-0.2,0.4c-0.6-0.2-1-0.2-1.5-0.2c-0.3,0-0.7,0.1-0.9,0.1c-0.6,0.1-1.1,0-1.6,0.1
			c0-0.1,0.1-0.2,0.2-0.4c-0.5,0-0.9-0.1-1.2-0.5c-0.2-0.3-0.2-0.6-0.1-0.8c0.1-0.4,0.6-0.8,0.8-1.2c0,0,0.3-0.5,0.4-1
			c0.1,0.2,0.1,0.5,0.6,0.6c0.5,0.1,1-0.1,1.8-0.5c-0.4,0.6-0.9,1-2,1.2c0.4,0.1,1-0.1,1.7-0.4c0.8-0.4,1.9-1.9,1.9-1.9
			C60.8,27,61.3,26.8,61.2,26.9z M59.9,30.7c-0.2,0.3-0.4,0.6-1.2,0.6c-0.9,0-1.2-0.5-1.2-0.5c0.1,0.3,0.3,0.9,1.2,0.9
			C59.9,31.6,59.9,30.7,59.9,30.7z M82.5,24.1c-1.7,1.4-2.3,3.5-2.4,4.1c-0.3,1.8-0.3,3.9,0,5.7l0.9,5.7l0.3,2.5l0.1,2.9
			c0.2,6.8-3.1,15.8-14.2,19.4l-2.7,1c-2.3,1-4.5,2.1-6.4,3.8c-2.7-2.4-5.9-3.7-9.1-4.9C39,61.2,35.4,52.6,35.2,46.7
			c-0.1-2,0-4.1,0.2-6.1l0.4-3l0.7-4.1c0.3-2.3,0.3-4.9-0.4-7c-0.4-1-1.1-1.8-1.9-2.6c0.9-1.2,2-2.7,3-3.9c0,0,0,0.1,0,0.1
			c0,0,0,0,0,0.1c0.2,0.4,0.3,0.8,0.5,1c0.1,0.1,0.1,0.3,0.2,0.4l-1.6,2.2c2,2.2,2.1,5.4,2,8.4L38.1,34l-0.9,5.3l-0.3,3l-0.1,2.8
			c-0.3,6.8,4.8,15.5,14.3,18.3c2.5,1,4.9,2.1,7.1,3.8c2.2-1.6,4.6-2.7,7.1-3.7c11-3.1,14.3-11.6,14.4-17.2c0.1-2.1-0.1-4.1-0.3-6.1
			l-0.4-2.8l-0.6-3.5c-0.3-1.9-0.3-4.3,0.1-6.2c0.6-0.3,1.2-0.8,1.6-2.1l0.1-0.2c0.6-0.4,1.4-1.2,2-1.9
			C82.3,23.7,82.4,23.8,82.5,24.1z M84.6,15.8c-0.8,1.7-1.2,2.3-2.4,2.7c0,0-3.8,1.2-4.7,1.5c-1.1,0.4-2,0.9-2.6,1.2
			c-2-1.2-5.7-0.3-6.6,0c-1.4,0.5-2.9,1.4-4.2,2.3c-0.2-0.2-0.4-0.5-0.6-0.5c0,0,0.6,0.4,0.5,1c0.2,0,0.8-0.5,1.2-0.1
			c0.4,0.4,0,0.8-0.2,1.2c0.5-0.4,0.9-0.6,1.4-0.3c0.6,0.4-0.1,1-0.3,1.3c0.4-0.1,0.8-0.4,1.1,0c0.3,0.4-0.1,0.6-0.6,0.9
			c0.4,0,0.4,0.3,1.6,0.3c-0.5,0-1.1,0.1-1.4,0.1c-0.3-0.1-0.6-0.2-1.1-0.3c-1.3-0.4-2.1-0.8-2.6-0.9c-0.5-0.2-1.1-0.2-1.5-0.1
			c-0.2,0-0.2,0.1-0.4,0.1c1.7-0.6,1.2-2.7,2-4c0.8-1.6,2.6-1.9,4.1-2.2c2-0.3,5.2-0.6,6.1-0.8c1.7-0.3,3.8-1,4.2-1.2
			c0.5-0.2,2.8-1,3.7-1.4S83.6,16,84.6,15.8z M84.7,17.9c-0.3,0.7-1.1,2.2-2.1,2.6c-1.3,0.7-3.1,1-4.6,1.2c-1.1,0.2-2-0.1-2.4-0.2
			c0,0-0.4-0.1-0.6-0.2c2.1-1.1,4.7-1.9,7.4-2.6C84,18.1,84.2,18.1,84.7,17.9z M58.2,20.1c-0.6,0.1-1.3,0.2-1.7,1
			c-0.2-0.2-0.1-0.5,0.1-0.8C56.8,20.1,57.3,19.9,58.2,20.1z M82.7,21.9c-0.1,0.3-0.3,0.6-0.7,0.9c-0.8,0.7-4.9,1.3-6.4,0.8
			c1.6-0.7,1.8-1.2,1.9-1.6c1.2,0,3.1-0.2,5.1-1.1C82.8,20.8,82.9,21.6,82.7,21.9z M73.9,21c0.5,0.2,1.2,0.5,0.9,0.6
			c-2.6,0.4-4.3,1.2-8.7,2.9c-0.2,0-0.3,0-0.5,0.1c0-0.2,0-0.5-0.2-0.8c-0.2-0.2-0.6-0.3-1.1-0.1c1.3-0.8,2.6-1.7,4.1-2.2
			c1.2-0.4,2.4-0.6,3.8-0.7C73,20.7,73.5,20.9,73.9,21z M60.7,21.2c0,0.1,0,0.5-0.3,0.7c-0.5,0.2-0.8-0.3-1.2-0.4
			c-0.8-0.1-1.7,0-2.4-0.2c0.2-0.3,0.5-0.6,0.9-0.7c0.5-0.1,1.4-0.3,2-0.1C60.3,20.6,60.6,20.9,60.7,21.2z M61.3,21.4
			c0,0.1,0,0.2-0.1,0.2c-0.1,0.1-0.2,0.2-0.4,0.2c0-0.2,0.1-0.4,0.3-0.5C61.2,21.2,61.3,21.3,61.3,21.4z M77.2,22
			c-0.1,0.4-0.6,0.8-1,1c-0.5,0.3-1.1,0.4-1.3,0.8c-0.3,0.3-2.8,1-4,1.3s-2.2,0.6-3.3,0.8c-0.2-0.2-0.5-0.2-0.8-0.1
			c0.3-0.6,0.2-1-0.4-1.2l5.8-2.1c1.1-0.3,2.4-0.7,3.3-0.7C76.1,21.9,76.5,22,77.2,22z M59.4,21.8c0.4,0.1,1.1,0.8,1.2,1.2
			c0.1,0.3-0.1,0.5-0.2,0.7c-0.2,0.1-0.3,0.2-0.4,0.4c0-0.2,0-0.3-0.1-0.5c-0.2-0.1-0.3-0.3-0.4-0.5c-0.6,0-1.5,0-1.8-0.3
			c0-0.1-0.1-0.2-0.2-0.4c0.2,0,0.9,0,1.3,0.1c0.4,0,0.9,0,1,0.2c0,0.1-0.1,0.1-0.1,0.1c0,0-0.1,0-0.1,0c0.1,0.2,0.4,0.2,0.6,0.2
			c0.1-0.1,0.2-0.2,0.1-0.3c-0.1-0.2-0.4-0.3-0.7-0.3c-0.3,0-2.1-0.1-2.1-0.1c-0.2-0.2-0.6-0.5-0.9-0.6c0-0.1,0.1-0.2,0.2-0.2
			C57.4,21.7,58.6,21.7,59.4,21.8z M61.7,21.9c0,0.1,0,0.1,0.1,0.2c0,0.2-0.1,0.4-0.3,0.5c-0.2,0.1-0.4,0.1-0.6,0
			c-0.1-0.1-0.3-0.1-0.3-0.1c0-0.4,0.5-0.6,0.7-0.7C61.6,21.7,61.7,21.7,61.7,21.9z M44.2,22.2c1.7,0.3,1.6,1.8,2,2.5
			c-1.4,0.1-2.1,0.1-3.1-0.1c-3.9-0.9-4.6-2.7-5.6-5.2C39.3,21,43.4,22,44.2,22.2z M81.8,23.2c-0.9,1.2-2.4,2.2-3,2.4
			c-0.4,0.2-1,0.3-2,0.1c-0.5-0.1-1-0.3-1.3-0.6c-0.6-0.5-0.6-0.9-0.6-1c0-0.1,0.2-0.4,0.4-0.3C77.8,24.4,81.1,23.7,81.8,23.2z
			 M61.4,22.9c0.1,0,0.1-0.1,0.2,0c0.1,0.3-0.3,0.4-0.5,0.5c-0.2,0-0.2-0.1-0.3-0.2c0-0.1,0-0.2-0.1-0.3c0,0,0-0.1,0.1-0.1
			C61,22.9,61.2,23,61.4,22.9z M46.4,24.9c0.1,0.2,0.3,0.7,1.1,1.3c-0.5,0.1-0.9,0.2-1.6,0.2c-1,0-1.8-0.1-1.8-0.1
			c-1.4-0.1-3.2-1.8-3.7-2.5c0.9,0.5,2.2,0.9,3.2,1C44.6,25,45.5,25,46.4,24.9z M50.9,26.1c0,0.2,0,0.4,0.3,0.6
			c-0.2,0-0.6,0-0.9,0.1c-1.5-0.1-3-0.5-3.8-1.9c0.4,0,0.7,0,1.3,0.1C48.7,25.2,49.9,25.5,50.9,26.1z M76.9,26
			c-0.1,0.3-0.7,0.7-1.3,0.8c0,0-0.1-0.5-0.7-0.4c-0.4,0-0.4,0.1-0.6,0.1c0.1-0.2,0.1-0.4,0-0.6c0,0-0.1-0.1-0.2-0.1
			c-0.2,0-0.4,0.1-0.6,0.2c-0.2,0.1-0.4,0.1-0.6,0.2c-0.3,0.1-0.5,0.3-0.8,0.7c-0.1,0.1-0.2,0-0.3,0c-0.1-0.1-2.6,0.3-2.6,0.3
			c-0.5,0-1.1,0-1.9-0.2c0,0,0.7-0.3,0.3-0.9c0,0,3.4-0.7,4.7-1.1s2-0.6,2.5-0.8c-0.1,0.3,0.2,0.9,0.7,1.3
			C75.9,25.7,76.6,26,76.9,26z M79.7,25.4c-0.8,2.4-2.9,2.1-3.6,1.6c0.8-0.2,1.1-0.9,1.1-0.9C78.3,26.2,79,26,79.7,25.4z M50.2,27
			c-0.3,0.2-0.2,0.4-0.2,0.6c0.1,0.2,0.4,0.4,0.4,0.4c-0.1,0.1-0.3,0.3-0.5,0.5c-0.3-0.2-0.8-0.4-1.2-0.6c-0.8-0.5-1.5-0.7-2.3-0.7
			c-0.2,0-0.8,0.2-0.9,0.3c-0.6-0.1-1.4-0.6-1.6-0.8c1,0.1,1.7,0.1,2.3,0.1c1-0.1,1.7-0.2,1.7-0.2C48.5,26.7,49.1,27,50.2,27z
			 M61.5,33.1c-0.3,0-0.1,0.1-0.7,0.6c-0.1,0.1-0.5,0.1-0.9,0.1c0.1-0.2,0.2-0.3,0-0.7c-0.2-0.4-0.5-0.5-0.7-0.5
			c0.2,0.2,0.4,0.4,0.5,0.6c0.1,0.2,0,0.4-0.2,0.6c-0.2,0-0.4,0.2-0.6,0.3c0.1-0.5-0.3-1.3-0.7-1.4c0.3,0.5,0.6,0.8,0.5,1.6
			c-0.1,0.3-1.2,1-1.5,0.7c-0.5-0.5-0.1-0.8-0.3-1.3c0-0.1-0.1-0.2-0.1-0.2c0.1,0.5-0.1,0.7,0,1.2c-0.4,0.1-0.5,0.2-0.8,0.1
			c-0.1-0.1-0.2-0.4-0.1-0.8c0.1-0.4,0.4-0.9,0.7-1.3c0,0-0.2,0.1-0.3,0.2c-0.5,0.4-0.7,1-0.7,1.4c0,0.2,0,0.3,0.2,0.5
			c-0.1,0-0.6,0-0.7-0.3c-0.3-0.6,0.1-1.1,0.4-1.5c0.3-0.3,0.7-0.5,0.7-0.5c0.6-0.3,1.6-0.2,2.2-0.3c0.6-0.1,1.2,0,1.7,0.2
			S61.1,32.8,61.5,33.1z M71.4,44.5c0.1,0.4-0.5,0.7-0.9,0.8l-0.1,0c0-0.4-0.1-1.2,0.3-1.2C71.2,43.9,71.4,44.1,71.4,44.5z
			 M64.8,39.8c1.2,1.5,2.3,2.2,2.5,2.4c0,0-1.6-1.5-2-2.1c2.8,2.1,4.9,3,5.9,3.7c-0.4-0.1-0.9-0.1-1.1,0.2c-0.2,0.3-0.1,0.8-0.2,1.2
			c-0.1,0.3-0.3,0.4-0.4,0.4c-0.2-1.3-1.2-1.5-1.2-1.5c0.3,0.3,0.6,0.6,0.7,1.1c-1-0.2-2.8-1.3-2.8-1.3c-1,0.1-2.1-0.1-2.7-0.5
			c-0.7-0.5,0.7-0.5,0.2-1c-0.3-0.2-0.6,0-0.8-0.3c-0.1-0.2,0.4-0.7,0.2-1.2c-0.2-0.3-0.4-0.3-0.7,0c-0.3,0.2-0.4,1.2-1.1,1
			c-0.4-0.1-0.3-0.8-0.8-1.2c-0.3-0.2-0.7-0.2-1,0c-0.3,0.3-0.2,0.8-0.2,0.8c-0.9-1.7,0-5.4,0-5.4c-0.9,2.4-0.9,4.5-0.2,5.7
			c-0.2-0.1-0.6-0.5-0.7-0.7c-0.2-0.4-0.5-1.1-0.4-1.7c-0.6,1,0.5,2.7,0.1,2.7c-0.3,0-0.3-0.7-0.8-0.9c-0.4-0.2-0.6,0.2-0.8,0
			c-0.2-0.2,0.8-0.8-0.1-1.3c-0.5-0.3-0.7,0.2-1,0c-0.4-0.2-0.8-0.1-0.8-0.1c-0.2-0.8,0.9-4.7,0.9-4.7C56.1,35.5,57,35,57,35
			c0.5,0.9,1.4,0.2,1.9-0.2c0.3-0.3,0.4-0.5,0.8-0.7c0.4-0.2,0.9,0.1,1.3-0.1c0.4-0.2,0.5-0.5,0.5-0.5c0.6,0.5,1.2,2.3,1.5,2.9
			C63.9,38.6,64.8,39.8,64.8,39.8z M56.2,26.5c-0.9-0.1-1.7,0.3-2.5,1.2c-0.9,0.3-1.5,0.6-2.2,1.4c-0.5-0.2-1.1-0.5-1.3-0.6
			c0.1-0.3,0.3-0.5,0.6-0.6c-0.2-0.1-0.7-0.4-0.6-0.6c0.1-0.5,0.8-0.2,1.5-0.5c-0.3-0.1-0.6-0.4-0.5-0.8c0.1-0.4,0.8-0.3,1.3-0.2
			c-0.3-0.3-0.3-0.7,0-0.9c0.3-0.2,1-0.1,1-0.1c0-0.4,0.3-0.6,0.5-0.9c-0.3,0.1-0.5,0.5-0.6,0.7c-0.9-0.1-1.4,0.4-1.2,1
			c-0.5-0.1-0.9,0-1.1,0.4c-1.2-0.7-2.9-1.2-4.1-1.3c-0.2,0-0.3,0-0.4,0c-0.1-0.1-0.3-0.5-0.3-0.7c-0.1-0.5-0.4-1.3-0.9-1.5
			c1.1,0.2,4.2,0.7,6.1,1.5c-1.4-1-5.2-1.5-7.5-2.1c-1.7-0.4-4.1-1.1-5.5-2.2c-0.8-0.6-1.3-1.3-1.4-2c1,0.4,1.9,0.6,3.1,0.8
			c0.8,0.2,1.5,0.3,2.6,0.5c1.1,0.2,2.6,0.7,2.6,0.7c2.4,0.7,5.2,0.2,7.6,1.1c1.1,0.4,1,1.7,1.2,2.7l0.3,0.3
			C54.4,25.1,55,25.7,56.2,26.5z M64,39.7c1.2,1.5,1.2,1.5,2.3,2.5c-0.6-0.3-1.7-1.4-2.4-2.2c-1-1.2-1.5-2.3-1.6-3.5
			C62.2,36.6,62.8,38.3,64,39.7z M51.4,22c-1.4-0.7-3.4-0.7-4.5-1c-1.2-0.3-1.3-0.4-1.3-0.4c0.4,0.1,0.9,0.2,1.3,0.3
			c1.5,0.2,3.2,0.3,4.5,0.8c0.7,0.3,1.1,1,1.3,1.8C52.4,22.9,52,22.3,51.4,22z"/>
		<path class="st0" d="M24.4,53.8l-0.3,0l0.1,0.3c0.6,2.5,0,5-1.8,6.6l-0.6,0.5l0.7-0.1c0.6-0.1,1.3-0.2,2.1-0.1
			c1.9,0.1,3.2,0.5,4.3,1.2c-0.1,0.3-1.1,5.6-1.1,5.6c0,0.1,0,0.2,0,0.2c0,0.4,0.2,0.7,0.4,0.9l0,0l0,0c0.8,0.9,1.9,1.2,2.9,1.4
			l0.1,0c4.4,1,9.1,0.1,13.2-2.6l2.2-1.4l1-0.6l1.2-0.7c2.2-1.3,4.1-2,6.1-2.4c4.3-0.8,8.9,0.2,12.3,2.4c0,0,0.4,0.3,0.4,0.3
			c0,0,2.9,1.9,2.9,1.9c0,0,1.8,1.1,1.8,1.1c4,2.5,9.1,3.2,13.4,1.9c0.7-0.2,2.2-0.7,2.4-2.1l0,0c0,0-1.1-5.6-1.1-5.9
			c0,0,0.2-0.1,0.2-0.1l0,0c1.8-1,4.2-1.4,6.3-0.9l0.8,0.2L93.5,61c-1.8-1.6-2.5-4.1-1.8-6.6l0.1-0.3l-0.3,0c-2.7,0-5.3,0.3-7.6,1.1
			c-1.1,0.4-2.9,1.1-3.4,2.6l0,0l-0.1,4.5c0,0,0,1.3,0,1.8c-2.7-0.1-4.9-1.4-6.7-2.7c0,0-0.7-0.5-0.7-0.5c0,0-2.7-1.7-2.7-1.7
			c-3.2-2-6.3-3.1-9.6-3.6c-5.6-0.7-11.2,0.6-16.2,4c0,0-2.5,1.7-2.5,1.7c-2,1.3-4.1,2.6-6.7,2.6c0-0.3,0-5.9,0-5.9
			c0-0.9-0.7-1.7-2-2.5C30.8,54.4,27.9,53.8,24.4,53.8z"/>
		<g>
			<path class="st1" d="M32.7,60.3c0.7-0.2,1.4-0.4,2-1c0,0.3,0,4.5,0,4.7c-1.6,0-3.3-0.3-4.6-1.4c0,0-0.1-0.1-0.1-0.1
				c-0.1-0.2-0.3-0.3-0.3-0.5c0-0.1,0-0.1,0.1-0.2c0.4-0.7,1.1-0.9,1.9-1.1l0.6-0.2C32.3,60.4,32.7,60.3,32.7,60.3z"/>
			<path class="st1" d="M81.1,59.5c0.7,0.6,1.6,0.9,2.5,1.1c0.8,0.2,1.5,0.4,2.2,0.9c0.2,0.2,0.3,0.3,0.3,0.5c0,0.1,0,0.1-0.1,0.2
				c-0.4,0.8-1.4,1.2-2.1,1.4c-0.9,0.3-1.8,0.4-2.8,0.4C81.1,63.9,81.1,59.8,81.1,59.5z"/>
			<path class="st1" d="M25.1,55.9c0-0.5-0.1-1-0.2-1.5c2.7,0.1,5.7,0.4,8.4,1.9c0.7,0.4,1.4,1,1.4,1.8c0,0,0,0,0,0.1
				c-0.1,1-1.1,1.3-2,1.6L31.6,60c-0.9,0.3-1.9,0.5-2.3,1.5c-1.5-0.9-3.4-1.3-5.7-1.2C24.5,59.1,25.1,57.6,25.1,55.9z"/>
			<path class="st1" d="M84.9,60.4L84.9,60.4l-1.2-0.4c-0.9-0.2-1.8-0.5-2.4-1.2c-0.1-0.2-0.2-0.4-0.2-0.6c0-0.2,0-0.4,0.1-0.5
				c0.8-1.3,2.3-1.7,3.7-2.2l0.4-0.1c1.7-0.5,3.6-0.7,5.8-0.8c-0.1,0.5-0.2,1.1-0.2,1.6c0,1.7,0.5,3.2,1.5,4.3
				c-2.2-0.1-4.1,0.3-5.7,1.2C86.3,61,85.5,60.7,84.9,60.4z"/>
			<path class="st1" d="M41.7,62.4l3.9-2.5c4.7-3,9.8-4.2,15-3.5c3,0.4,5.9,1.4,8.9,3.2l2.5,1.6l2.6,1.7c2.5,1.7,5.4,2.3,8.4,1.9
				c1.2-0.3,2.5-0.6,3.4-1.7c0.1,0.3,1,5.3,1,5.3c-0.1,0.7-0.9,1-1.5,1.3l-0.2,0.1c-4.5,1.5-9.9,0.6-14.1-2.3c0,0-3.8-2.5-3.8-2.5
				c-4-2.6-8.8-3.5-13.5-2.6c-2.3,0.4-4.6,1.4-7.1,3l-3.6,2.3c-3.5,2.2-7.5,3.1-11.5,2.4c-1.2-0.2-2.4-0.5-3.4-1.3
				c-0.2-0.2-0.3-0.4-0.3-0.6c0,0,0.9-4.6,1.1-5.3c1.3,1.4,3.2,1.7,5,1.8C36.9,64.7,39.1,64,41.7,62.4z"/>
		</g>
		<path class="st0" d="M31.7,65.5l-1.4-0.2c0,0,0,0.1,0,0.1c0.1,0.1,0.1,0.1,0.1,0.2L30,68.2c0,0.1,0,0.1-0.1,0.1c0,0,0,0.1,0,0.1
			c0,0,0.9,0.2,0.9,0.2l0,0l0-0.1c-0.1-0.1-0.1-0.1-0.1-0.1c0,0,0,0,0,0c0,0,0.2-1,0.2-1c0,0,0.6,0.1,0.6,0.1
			c0.8,0.1,1.1-0.3,1.2-0.8C32.7,66.1,32.5,65.6,31.7,65.5z M31.4,66.8c0,0-0.5-0.1-0.5-0.1c0,0,0.1-0.7,0.1-0.7
			c0.1,0,0.5,0.1,0.5,0.1c0.2,0,0.4,0.1,0.4,0.2l0,0.3C32,66.8,31.8,66.8,31.4,66.8z M34.3,65.8c-0.4,0-0.7,0.1-1,0.4
			c-0.3,0.3-0.5,0.7-0.5,1.2c0,1,0.5,1.6,1.4,1.6c0.4,0,0.7-0.1,1-0.4c0.3-0.3,0.5-0.7,0.5-1.2c0-0.5-0.1-0.9-0.4-1.2
			C35.1,66,34.7,65.8,34.3,65.8z M34.8,68.3c-0.1,0.1-0.3,0.2-0.5,0.2c-0.5,0-0.8-0.4-0.7-1.1c0-0.4,0.1-0.7,0.3-0.8
			c0.1-0.1,0.3-0.2,0.5-0.2c0.2,0,0.4,0.1,0.5,0.2c0.2,0.2,0.3,0.5,0.2,0.9C35.1,67.8,35,68.1,34.8,68.3z M37.5,66.7
			c-0.4,0-0.7,0-0.7-0.2c0-0.2,0.1-0.4,0.4-0.4c0.5-0.1,0.7,0.1,0.8,0.2l0,0.1c0,0.1,0.1,0.1,0.1,0.1c0,0,0.3-0.8,0.3-0.8l0-0.1
			l-0.1,0.1l-0.1,0.1l-0.1,0l-0.2,0c-0.2,0-0.5,0-0.7,0c-0.8,0.2-1,0.7-0.9,1.1c0.1,0.6,0.8,0.6,1.3,0.6c0.4,0,0.7,0,0.8,0.3
			c0,0,0,0.3,0,0.3c-0.1,0.1-0.3,0.2-0.5,0.3c-0.2,0.1-0.6,0-0.8-0.1L36.8,68l0-0.1l-0.1,0c0,0-0.2,0.8-0.2,0.8s0,0,0,0v0l0.1,0
			c0,0,0,0,0,0c0,0,0,0,0,0c0,0,0-0.1,0-0.1c0,0,0.2,0,0.2,0l0.2,0c0,0,0.7,0,0.7,0c0.9-0.2,1.2-0.8,1.1-1.3
			C38.7,66.7,38,66.7,37.5,66.7z M41.2,67.2c0,0-1-2.1-1-2.1c0,0,0.6-0.3,0.6-0.3c0.1-0.1,0.1-0.1,0.2,0c0,0,0.1,0,0.1,0
			c0,0-0.3-0.7-0.3-0.7c0,0-0.1,0-0.1,0c0,0.1,0,0.1-0.1,0.2l-1.8,0.8c-0.1,0.1-0.2,0-0.2,0c0,0-0.1,0-0.1,0c0,0,0.3,0.7,0.3,0.7
			c0,0,0.1,0,0.1,0c0,0,0,0,0,0c0-0.1,0-0.1,0.1-0.2c0,0,0.6-0.3,0.6-0.3c0,0,0,0,0,0c0,0.1,0.9,2.1,0.9,2.1c0,0,0,0.1,0,0.1
			c0,0,0,0-0.1,0.1c0,0,0,0,0,0c0,0,0,0.1,0,0.1c0,0,0.8-0.3,0.8-0.3l0,0l0-0.1C41.2,67.3,41.2,67.3,41.2,67.2z M44.4,64.8
			C44.4,64.9,44.4,64.9,44.4,64.8c0,0.1,0,0.1-0.1,0.2c0,0-1.1,0.7-1.1,0.7c0,0,0,0,0,0c0,0-0.3-0.6-0.4-0.7c0,0,0.6-0.4,0.6-0.4
			c0.1-0.1,0.1-0.1,0.2,0c0,0,0.1,0,0.1,0c0,0-0.4-0.6-0.4-0.6c0,0-0.1,0-0.1,0c0,0,0,0,0,0.1c0,0.1,0,0.1-0.1,0.1
			c0,0-0.6,0.4-0.6,0.4c0,0,0,0,0,0c0-0.1-0.4-0.6-0.4-0.6c0,0,1-0.6,1-0.6c0.1-0.1,0.1-0.1,0.2,0c0,0,0.1,0,0.1,0
			c0,0-0.4-0.6-0.4-0.6c0,0-0.1,0-0.1,0c0,0.1,0,0.1-0.1,0.2L41.1,64c0,0,0,0.1,0,0.1c0.2-0.1,0.2,0,0.3,0l1.4,2.2
			c0,0.1,0.1,0.1-0.1,0.2c0,0,0,0.1,0,0.1c0,0,1.8-1.1,1.8-1.1c0.1-0.1,0.1-0.1,0.2,0c0,0,0.1,0,0.1,0c0,0-0.4-0.6-0.4-0.6
			C44.4,64.8,44.4,64.8,44.4,64.8z M47,63.4L47,63.4l-1-0.6c0,0,0,0,0,0c0.3-0.3,0.3-0.7,0.1-1c-0.3-0.5-0.8-0.5-1.4-0.2l-1.2,0.8
			c0,0,0,0.1,0,0.1c0.1,0,0.2,0,0.2,0.1l1.4,2.2c0,0.1,0,0.1,0,0.2c0,0,0,0.1,0,0.1c0,0,0.8-0.5,0.8-0.5l0,0l-0.1-0.1
			c-0.1,0-0.2,0-0.2-0.1c0,0-0.6-0.9-0.6-0.9c0,0,0.4-0.2,0.4-0.2c0,0,0.9,0.5,0.9,0.5l0.1,0.1c0,0,0,0,0,0c0,0,0,0-0.1,0.1v0
			c0,0,0,0.1,0,0.1c0,0,0.8-0.5,0.8-0.5c0,0,0-0.1,0-0.1C47.2,63.6,47.2,63.6,47,63.4z M45.4,62.8c0,0-0.6,0.4-0.6,0.4c0,0,0,0,0,0
			c0,0-0.3-0.6-0.4-0.6c0,0,0.5-0.3,0.5-0.3c0.3-0.2,0.5-0.2,0.6,0.1c0,0,0.1,0.3,0.1,0.3C45.7,62.6,45.6,62.7,45.4,62.8z
			 M52.8,60.2C52.8,60.2,52.7,60.2,52.8,60.2c-0.1,0.1-0.1,0.2-0.1,0.2c0,0,0,0.2,0,0.2c-0.1,0.1-0.2,0.3-0.4,0.3
			c-0.2,0.1-0.4,0-0.6-0.1c-0.2-0.1-0.4-0.4-0.5-0.7c-0.1-0.4-0.1-0.7,0-0.9c0.1-0.2,0.3-0.3,0.5-0.4c0.3-0.1,0.6,0,0.6,0.2l0,0
			l0,0.1l0.1,0c0,0,0.2-0.8,0.2-0.8l0-0.1l-0.1,0l-0.1,0.1c0,0-0.1,0-0.1,0l-0.2,0c-0.2,0-0.4,0-0.6,0c-0.7,0.2-1.3,0.9-1,2
			c0.3,0.9,1,1.3,1.8,1.1c0.5-0.2,0.7-0.4,0.8-0.6l0.1-0.1c0,0,0.1,0,0.1,0c0,0,0.1-0.1,0.1-0.1C53.5,60.7,52.8,60.2,52.8,60.2z
			 M56,60.3L56,60.3c-0.1-0.1-0.6-0.9-0.6-0.9c0,0,0,0,0,0c0.4-0.1,0.6-0.5,0.5-0.9c-0.1-0.5-0.5-0.8-1.2-0.7l-1.4,0.2
			c0,0,0,0.1,0,0.1c0.1,0,0.1,0,0.2,0.1l0.4,2.6c0,0.1,0,0.1-0.1,0.1c0,0,0,0.1,0,0.1c0,0,0.9-0.1,0.9-0.1l0,0l0-0.1
			c-0.1,0-0.2-0.1-0.2-0.1c0,0-0.1-1-0.1-1c0,0,0.5,0,0.5,0l0,0c0,0,0.6,0.8,0.6,0.8l0.1,0.2v0c0,0,0,0-0.1,0.1c0,0,0,0,0,0.1
			c0,0,0,0,0,0c0,0,0.9-0.1,0.9-0.1c0,0,0-0.1,0-0.1C56.1,60.5,56.1,60.5,56,60.3z M55.2,58.9C55.1,59,55,59,54.8,59
			c0,0-0.7,0.1-0.7,0.1c0,0,0,0,0,0c0-0.1-0.1-0.6-0.1-0.7c0.1,0,0.6-0.1,0.6-0.1c0.3,0,0.5,0.1,0.5,0.3L55.2,58.9z M58.6,60.1
			l-1.3,0c0,0,0-0.7,0-0.8c0.1,0,0.7,0,0.7,0c0.1,0,0.2,0,0.2,0.1l0.1,0l0-0.7l-0.1,0c0,0.1-0.1,0.1-0.2,0.1h-0.7l0-0.7l1.2,0
			c0.1,0,0.2,0,0.2,0.1l0.1,0l0-0.7l-0.1,0c0,0.1-0.1,0.1-0.2,0.1l-2,0l0,0.1c0.2,0,0.2,0.1,0.2,0.2l0,2.6c0,0.1,0,0.1-0.2,0.1
			l0,0.1l2.1,0c0.1,0,0.2,0,0.2,0.1l0.1,0l0-0.7l-0.1,0C58.8,60.1,58.8,60.1,58.6,60.1z M61.3,58.8c0,0,0.6-0.7,0.6-0.7l0,0v0l0,0
			L61.8,58c0,0-0.1,0.1-0.1,0L61.5,58l-0.2-0.1c-0.2-0.1-0.4-0.2-0.7-0.2c-0.8-0.1-1.2,0.3-1.2,0.8c-0.1,0.6,0.5,0.9,1,1
			c0.4,0.1,0.7,0.3,0.7,0.5L61,60.2c-0.1,0.1-0.3,0.1-0.6,0.1c-0.2,0-0.6-0.2-0.7-0.3l0-0.1l0-0.1l-0.1,0c0,0-0.5,0.7-0.5,0.7l0,0
			l0.1,0.1c0,0,0.1-0.1,0.1-0.1c0,0,0.2,0.1,0.2,0.1l0.2,0.1c0,0,0.7,0.2,0.7,0.2c0.6,0.1,0.9-0.1,1.1-0.2c0.2-0.1,0.3-0.4,0.3-0.6
			c0.1-0.7-0.5-0.9-1-1.1c-0.3-0.1-0.6-0.2-0.6-0.5l0.1-0.2c0.1-0.1,0.2-0.1,0.4-0.1c0.4,0.1,0.6,0.2,0.6,0.3l0,0.1
			C61.2,58.7,61.2,58.7,61.3,58.8C61.2,58.7,61.3,58.8,61.3,58.8z M64.2,61.4c0,0,0.1,0,0.1,0c0,0-0.3-0.8-0.3-0.8c0,0-0.1,0-0.1,0
			c0,0,0,0.1,0,0.1c0,0-0.1,0.2-0.1,0.2c-0.1,0.1-0.3,0.1-0.5,0.1c-0.5-0.1-0.7-0.6-0.5-1.2c0.1-0.4,0.3-0.6,0.5-0.8
			c0.2-0.1,0.4-0.1,0.6,0c0.2,0,0.3,0.2,0.4,0.3l0,0.2l0,0.1l0,0c0,0,0.6-0.6,0.6-0.6l0.1-0.1l-0.1,0l-0.1,0l-0.1-0.1l-0.1-0.1
			c-0.2-0.1-0.3-0.2-0.6-0.3c-0.4-0.1-0.8-0.1-1.1,0.1c-0.4,0.2-0.6,0.6-0.7,1.1c-0.2,0.9,0.2,1.7,1,1.9c0.5,0.1,0.8,0,1-0.1
			L64.2,61.4C64.2,61.3,64.2,61.4,64.2,61.4z M66.7,62.5l0.2-2.6l0-0.2c0,0,0-0.1,0.1,0c0,0,0.1-0.1,0.1-0.1c0,0-0.9-0.4-0.9-0.4
			c0,0-0.1,0.1-0.1,0.1c0.1,0.1,0.1,0.1,0.1,0.1c0,0,0,0,0,0L66,59.5c0,0-1.8,2-1.8,2c0,0-0.1,0.1-0.1,0.1c0,0-0.1,0.1-0.1,0.1
			c0,0,0.7,0.3,0.7,0.3l0,0l0-0.1c-0.1-0.1-0.1-0.1-0.1-0.1c0,0,0,0,0,0l0.1-0.1c0,0,0.3-0.4,0.3-0.4c0,0,0.9,0.4,0.9,0.4
			c0,0-0.1,0.5-0.1,0.5c0,0,0,0.1,0,0.1c0,0,0,0-0.1,0c0,0-0.1,0.1-0.1,0.1c0,0,0.7,0.4,0.7,0.4c0,0,0.1-0.1,0.1-0.1
			C66.7,62.6,66.7,62.6,66.7,62.5z M66.3,60c-0.1,0.2-0.1,1.2-0.1,1.2l0,0c-0.1-0.1-0.5-0.3-0.6-0.3C65.6,60.9,66.2,60.1,66.3,60
			L66.3,60z M69.5,64.3l1.4-2.3c0,0,0.1-0.1,0.1,0c0,0,0.1-0.1,0.1-0.1c0,0-0.9-0.6-0.9-0.6c0,0-0.1,0.1-0.1,0.1c0,0.1,0,0.1,0,0.1
			c0,0,0,0,0,0c0,0-0.3,0.3-0.7,0.5c0,0-0.7,0.5-0.8,0.6c0,0,0,0,0,0c0.1-0.2,0.2-0.7,0.2-0.7c0.1-0.4,0.2-1,0.2-1c0,0,0,0,0.1,0
			c0,0,0.1-0.1,0.1-0.1c0,0-0.9-0.6-0.9-0.6c0,0-0.1,0.1-0.1,0.1c0.1,0.1,0.1,0.1,0,0.2l-1.4,2.3c0,0-0.1,0.1-0.1,0
			c0,0-0.1,0.1-0.1,0.1c0,0,0.7,0.5,0.7,0.5l0,0l0.1-0.1c-0.1-0.1-0.1-0.1-0.1-0.1c0,0,0,0,0,0c0,0,1-1.6,1.1-1.8c0,0,0,0,0,0.1
			c-0.1,0.3-0.3,1.5-0.3,1.5L68,63.6c0,0,0.1,0.1,0.1,0.1c0,0,0.8-0.6,0.8-0.6s1.1-0.8,1.2-0.9l0,0.1c-0.3,0.4-1.1,1.7-1.1,1.7
			c0,0,0,0.1-0.1,0c0,0-0.1,0.1-0.1,0.1c0,0,0.7,0.5,0.7,0.5c0,0,0.1-0.1,0.1-0.1C69.5,64.3,69.5,64.3,69.5,64.3z M73.2,66.1
			c-0.1,0.1-0.1,0.1-0.2,0c0,0-1.1-0.7-1.1-0.7c0,0,1.3-1.9,1.3-1.9c0-0.1,0.1-0.1,0.2,0c0,0,0.1-0.1,0.1-0.1c0,0-0.8-0.6-0.8-0.6
			c0,0-0.1,0.1-0.1,0.1c0.1,0.1,0.1,0.2,0.1,0.2l-1.4,2.2c0,0.1-0.1,0.1-0.2,0c0,0-0.1,0.1-0.1,0.1c0,0,1.7,1.2,1.7,1.2
			c0.1,0.1,0.1,0.1,0.1,0.2c0,0,0.1,0.1,0.1,0.1C72.8,66.8,73.2,66.2,73.2,66.1C73.2,66.2,73.2,66.1,73.2,66.1z M75.3,64.7
			c0.1,0.1,0.1,0.1,0.1,0.1l-0.1,0.1c0,0-1.8,1.9-1.8,1.9c0,0-0.1,0.1-0.1,0.1c0,0-0.1,0.1-0.1,0.1c0,0,0.7,0.4,0.7,0.4l0,0l0-0.1
			c-0.1-0.1-0.1-0.1-0.1-0.1c0,0,0,0,0,0c0,0,0.1-0.1,0.1-0.1c0,0,0.4-0.4,0.4-0.4c0,0,0.9,0.4,0.9,0.4c0,0-0.1,0.5-0.1,0.5
			c0,0,0,0.1,0,0.1c0,0,0,0-0.1,0c0,0-0.1,0.1-0.1,0.1c0,0,0.7,0.4,0.7,0.4c0,0,0.1-0.1,0.1-0.1c0-0.1-0.1-0.1,0-0.2
			c0,0,0.3-2.5,0.3-2.5l0-0.2c0,0,0-0.1,0.1,0c0,0,0.1-0.1,0.1-0.1C76.2,65,75.3,64.6,75.3,64.7C75.3,64.6,75.3,64.7,75.3,64.7z
			 M75.5,65.5c-0.1,0.2-0.2,1.1-0.2,1.2l0,0c-0.1-0.1-0.5-0.3-0.6-0.3C74.7,66.3,75.4,65.5,75.5,65.5L75.5,65.5z M78.7,65.9
			c0.1,0.1,0.1,0.1,0.1,0.2l-0.4,1.7c-0.1,0.4-0.4,0.5-0.8,0.5c-0.2,0-0.3-0.1-0.4-0.3c-0.1-0.1-0.1-0.3,0-0.5l0.4-1.7
			c0-0.1,0-0.1,0.1-0.1c0,0,0.1-0.1,0.1-0.1c0,0-0.9-0.2-0.9-0.2l0,0l0,0l0,0.1c0.1,0.1,0.1,0.1,0.1,0.2l-0.4,1.7
			c-0.2,0.8,0.1,1.3,0.9,1.4c0.4,0.1,0.7,0.1,1-0.1c0.2-0.1,0.4-0.4,0.5-0.8l0.4-1.7c0-0.1,0-0.1,0.1-0.1c0,0,0.1-0.1,0.1-0.1
			c0,0-0.8-0.2-0.8-0.2C78.7,65.8,78.7,65.9,78.7,65.9z M81.1,66l-1.3,0c0,0,0,0.1,0,0.1c0.1,0,0.1,0.1,0.1,0.2c0,0,0,2.6,0,2.6
			c0,0.1,0,0.1-0.1,0.1l0,0.1c0,0,1.2,0,1.2,0c0.5,0,0.9-0.1,1.2-0.4c0.3-0.3,0.4-0.7,0.4-1.2C82.5,66.6,82,66,81.1,66z M81.8,67.6
			c0,0.8-0.2,1-1,1c0,0-0.3,0-0.3,0v0c0,0,0-1.9,0-2c0.1,0,0.3,0,0.3,0C81.6,66.6,81.8,66.8,81.8,67.6L81.8,67.6z M85.6,67.8
			c0,0-0.1,0-0.1,0c0,0.1,0,0.1-0.2,0.2c0,0-1.3,0.3-1.3,0.3c0,0,0,0,0,0c0-0.1-0.1-0.7-0.2-0.7c0.1,0,0.7-0.2,0.7-0.2
			c0.1,0,0.2,0,0.2,0c0,0,0.1,0,0.1,0c0,0-0.1-0.7-0.1-0.7c0,0-0.1,0-0.1,0c0,0.1,0,0.1-0.2,0.1c0,0-0.7,0.2-0.7,0.2c0,0,0,0,0,0
			c0-0.1-0.2-0.7-0.2-0.7c0,0,1.2-0.3,1.2-0.3c0.1,0,0.2,0,0.2,0c0,0,0.1,0,0.1,0c0,0-0.2-0.7-0.2-0.7c0,0-0.1,0-0.1,0
			c0,0.1,0,0.1-0.2,0.2l-2,0.5c0,0,0,0.1,0,0.1c0.2,0,0.2,0,0.2,0.1l0.7,2.5c0,0.1,0,0.1-0.1,0.2c0,0,0,0.1,0,0.1
			c0,0,2.1-0.5,2.1-0.5c0.1,0,0.2,0,0.2,0c0,0,0.1,0,0.1,0C85.7,68.5,85.6,67.8,85.6,67.8z M49.8,62.1l-1.9-1.8c0,0-0.2-0.2-0.2-0.2
			c0,0,0-0.1,0-0.1c0,0,0-0.1,0-0.1c0,0-0.9,0.4-0.9,0.4c0,0,0,0.1,0,0.1c0.1,0,0.1,0,0.1,0c0,0,0,0.2,0,0.2c0,0,0.4,2.6,0.4,2.6
			c0,0.1,0,0.1,0,0.1c0,0,0,0.1,0,0.1c0,0,0.7-0.3,0.7-0.3l0,0l-0.1-0.1c-0.1,0-0.1,0-0.2,0c0,0,0-0.1,0-0.1c0,0-0.1-0.5-0.1-0.5
			c0,0,0.9-0.5,0.9-0.5c0,0,0.4,0.4,0.4,0.4c0,0,0.1,0.1,0.1,0.1c0,0,0,0,0,0c0,0,0,0-0.1,0.1c0,0,0,0,0,0c0,0,0,0.1,0,0.1
			c0,0,0.7-0.4,0.7-0.4c0,0,0-0.1,0-0.1C49.9,62.2,49.8,62.2,49.8,62.1z M48.4,61.7c-0.1,0-0.5,0.2-0.6,0.3c0-0.1-0.2-1.1-0.2-1.2
			l0,0C47.8,61,48.4,61.7,48.4,61.7L48.4,61.7z"/>
		<g>
			<path class="st1" d="M41.9,35.1l-1.1-0.4l0.6,1.1l-1.1,0.8l1.2,0.3l-0.1,1.2l1-0.8l0.9,0.8l-0.1-1.3c0,0,1.3-0.1,1.3-0.1
				l-1.1-0.8l0.6-1.1l-1.2,0.4l-0.5-1.2L41.9,35.1z"/>
			<path class="st1" d="M49.2,37l-1.1-0.4l0.6,1.1l-1.1,0.7l1.3,0.3L48.7,40l1-0.8l1,0.8l-0.1-1.3l1.3-0.1l-1.1-0.8l0.6-1.1L50.2,37
				l-0.5-1.2L49.2,37z"/>
			<polygon class="st1" points="41,43.3 41.5,44.5 42.7,44.1 42.1,45.2 43.2,46 41.9,46.1 42,47.4 41,46.6 40,47.4 40.1,46.2 
				38.9,45.9 40,45.2 39.4,44.1 40.5,44.5 			"/>
			<polygon class="st1" points="49.7,43.8 50,44.9 51.2,44.9 50.3,45.6 50.6,46.7 49.7,46.1 48.8,46.7 49.1,45.6 48.2,44.9 
				49.3,44.9 			"/>
			<path class="st1" d="M49.2,52.6L48,52.2l0.6,1.1L47.5,54l1.2,0.3l-0.1,1.3l1-0.9l0.9,0.9l-0.1-1.3l1.3-0.2l-1.1-0.8l0.6-1.1
				l-1.2,0.4l-0.5-1.2L49.2,52.6z"/>
		</g>
		<g>
			<g>
				<path class="st1" d="M47,29.4c-0.4,0-0.9,0.5-1.1,0.7c0.7-0.3,1-0.1,1.2-0.3C47.1,29.6,47.1,29.5,47,29.4z"/>
				<path class="st1" d="M47.4,29.6c-0.1,0.5,0.2,0.9,0.6,1.2l0.1-0.4C48.1,30.1,47.7,29.8,47.4,29.6z"/>
				<path class="st1" d="M47.2,30.5c0,0.1-0.2,0.3-0.1,0.4c0.1,0.3,0.5,0.4,0.6,0.8C47.9,31.3,47.6,30.6,47.2,30.5z"/>
				<path class="st1" d="M46.9,31.3l-0.2,0.3c-0.3,0.5,0.3,0.8,0.2,1.1c0.2-0.2,0.4-0.7,0.3-1C47.2,31.5,47.1,31.4,46.9,31.3z"/>
				<path class="st1" d="M45.8,31.3c-0.2,0.1-0.7,0.4-0.9,0.4c0.1,0.2,0.7,0.1,0.9,0.1c0.3,0,0.6-0.4,0.7-0.6L45.8,31.3z"/>
				<path class="st1" d="M46.3,32.2c-0.7,0.2-0.2,0.9-0.8,1.4c0.4-0.1,0.6-0.1,0.8-0.5C46.5,32.8,46.5,32.4,46.3,32.2z"/>
				<path class="st1" d="M41.2,30.7c-0.1,0.5,0,0.6,0.2,0.9c-0.1-0.7,0.7-1,0.3-1.6C41.5,30.1,41.2,30.4,41.2,30.7z"/>
				<path class="st1" d="M44,32.6c0,0.2,0.7,0.1,0.9,0c0.1,0,0.6-0.2,0.7-0.4C44.5,32,44.9,32.4,44,32.6z"/>
				<path class="st1" d="M45.3,31c0.1,0.1,0.7,0,0.9-0.2c0.1-0.1,0.6-0.3,0.6-0.5C45.7,30.2,46.2,30.6,45.3,31z"/>
				<path class="st1" d="M41.5,29.5c-0.2-0.1-0.6,0.2-0.8,0.2c-0.3,0.1-0.7,0.6-0.6,0.7C40.9,29.9,41,30.5,41.5,29.5z"/>
			</g>
			<g>
				<path class="st1" d="M43.1,27.5c0.4,0.1,0.6,0.3,0.8,0.4c0.3,0,0.4-0.1,0.5-0.2C44.3,27.3,43.5,27.3,43.1,27.5z"/>
				<path class="st1" d="M45,29.2c0-0.4,0.1-0.7,0.1-0.9c-0.1-0.3-0.2-0.4-0.3-0.4C44.4,28.2,44.7,28.9,45,29.2z"/>
				<path class="st1" d="M43.1,27.8c-0.3-0.1-0.9,0.1-1.1,0.3c0.4,0,0.7,0.4,1.2,0.2l0.3-0.2C43.4,28,43.2,27.9,43.1,27.8z"/>
				<path class="st1" d="M43.7,28.6c-0.1,0.3,0.1,0.9,0.3,1.1c-0.1-0.4,0.4-0.7,0.2-1.2L44,28.2C43.9,28.3,43.8,28.5,43.7,28.6z"/>
				<path class="st1" d="M45.4,33L45,33c-0.5,0.1-0.5,0.6-0.9,0.8c0.2,0,0.9,0,1.1-0.3C45.3,33.4,45.4,33.2,45.4,33z"/>
				<path class="st1" d="M41.7,28.5c-0.5,0.2-0.5,0.3-0.6,0.7c0.5-0.5,1.2,0,1.5-0.6C42.3,28.4,41.9,28.4,41.7,28.5z"/>
				<path class="st1" d="M42.8,29.5c0,0.5,0.2,0.6,0.5,0.8c-0.3-0.6,0.4-1.2-0.2-1.6C42.9,28.8,42.8,29.2,42.8,29.5z"/>
			</g>
			<path class="st1" d="M42.2,29.4c0,0.7,0,1.3,0.3,1.6c0.2-0.6,0.2-0.8,0-1.2C42.5,29.7,42.3,29.4,42.2,29.4z"/>
		</g>
	</g>
</g>
</svg>
